<?xml version="1.0" encoding="utf-8"?>
<!-- Generator: Adobe Illustrator 25.2.1, SVG Export Plug-In . SVG Version: 6.00 Build 0)  -->
<svg version="1.1" xmlns="http://www.w3.org/2000/svg" xmlns:xlink="http://www.w3.org/1999/xlink" x="0px" y="0px"
	 viewBox="0 0 1020 714" style="enable-background:new 0 0 1020 714;" xml:space="preserve">
<style type="text/css">
	.st0{fill:#FDF1CF;}
	.st1{fill:none;stroke:#000000;stroke-width:2;stroke-linecap:round;stroke-linejoin:round;stroke-miterlimit:10;}
	.st2{fill:#FDF1CF;stroke:#000000;stroke-width:1.6;stroke-miterlimit:10;}
	.st3{fill:#FDF1CF;stroke:#000000;stroke-width:2;stroke-miterlimit:10;}
	.st4{fill:none;stroke:#000000;stroke-width:2;stroke-linecap:round;stroke-miterlimit:10;}
	.st5{filter:url(#Adobe_OpacityMaskFilter);}
	.st6{mask:url(#SVGID_1_);fill:#FDF1CF;stroke:#000000;stroke-width:2;stroke-linecap:round;stroke-miterlimit:10;}
	.st7{filter:url(#Adobe_OpacityMaskFilter_1_);}
	.st8{mask:url(#SVGID_2_);fill:#FDF1CF;stroke:#000000;stroke-width:2;stroke-miterlimit:10;}
	.st9{fill:#FDF1CF;stroke:#000000;stroke-width:2;stroke-linecap:round;stroke-miterlimit:10;}
	.st10{fill:none;stroke:#000000;stroke-width:2;stroke-miterlimit:10;}
	.st11{stroke:#FDF1CF;stroke-width:2;stroke-miterlimit:10;}
	.st12{fill:#FFFFFF;}
	.st13{font-family:'SpaceMono-Bold';}
	.st14{font-size:17.9154px;}
</style>
<g id="bg">
	<rect class="st0" width="1020" height="714"/>
</g>
<g id="ice_cream">
	<g>
		<g id="SPLINE_90_">
			<path class="st1" d="M180.7,588.8C180.7,588.8,180.7,588.8,180.7,588.8C180.6,588.8,180.6,588.8,180.7,588.8"/>
		</g>
		<g id="SPLINE_73_">
			<polyline class="st1" points="180.6,588.7 180.6,588.7 180.6,588.7 			"/>
		</g>
		<g id="SPLINE_72_">
			<path class="st1" d="M271.9,593.9c0.1,0.1,0.2,0.2,0.3,0.2c0.3,0.3,0.7,0.6,1,1c0.3,0.3,0.6,0.6,0.9,0.9c0.1,0.1,0.3,0.3,0.4,0.4
				c0.7,0.8,1.4,1.6,2,2.4c0.1,0.1,0.1,0.2,0.2,0.2c0.6,0.8,1.2,1.7,1.8,2.6c0.1,0.1,0.1,0.2,0.1,0.2c0,0,0,0,0,0.1
				c0.5,0.8,0.9,1.6,1.4,2.5c0.1,0.2,0.2,0.5,0.3,0.7c0.3,0.7,0.6,1.3,0.8,2c0.3,0.9,0.5,1.8,0.7,2.7c0.2,0.9,0.3,1.8,0.4,2.7
				c0,0.2,0,0.5,0,0.7c0,0.6,0,1.3,0,1.9c0,0.9-0.1,1.7-0.2,2.6c-0.2,1.6-0.6,3.3-1.2,5c-0.5,1.6-1.2,3.2-2,4.7"/>
		</g>
		<g id="SPLINE_71_">
			<path class="st1" d="M278.9,627.4C278.9,627.4,278.9,627.4,278.9,627.4C278.9,627.4,278.9,627.4,278.9,627.4
				c-20.7,0-41.4,0-62.1,0"/>
		</g>
		<g id="SPLINE_70_">
			<path class="st1" d="M216.8,627.4c-14.2,0-28.4,0-42.6,0"/>
		</g>
		<g id="SPLINE_69_">
			<path class="st1" d="M174.2,627.4c-0.8-1.6-1.7-3.2-2.5-4.7c-0.7-1.3-1.4-2.5-2.2-3.8c-0.2-0.4-0.5-0.8-0.7-1.2
				c-0.5-0.9-1-1.7-1.6-2.6c-0.5-0.9-1.1-1.7-1.6-2.6c-0.5-0.9-1.1-1.8-1.6-2.7c-0.6-0.9-1.1-1.8-1.6-2.7c-0.5-0.9-1.1-1.8-1.6-2.7
				c-0.5-0.9-1-1.8-1.5-2.8c-0.5-0.9-0.9-1.9-1.3-2.8c-0.4-0.9-0.7-1.8-1-2.7c0,0,0-0.1,0-0.1c-0.3-0.8-0.5-1.6-0.7-2.4
				c0-0.2-0.1-0.3-0.1-0.5c-0.1-0.6-0.2-1.2-0.3-1.8c0-0.3-0.1-0.7-0.1-1c0-0.4-0.1-0.8-0.1-1.2c0-0.6,0-1.1,0.1-1.7
				c0-0.2,0-0.3,0-0.5c0.1-0.8,0.2-1.6,0.4-2.4c0.2-0.6,0.3-1.2,0.6-1.8c0.1-0.4,0.3-0.7,0.4-1.1c0.4-1,1-2,1.5-2.9
				c0.6-1,1.3-2,2.1-2.9c0.3-0.4,0.7-0.8,1-1.2c0.3-0.4,0.6-0.7,1-1.1"/>
		</g>
		<g id="SPLINE_68_">
			<path class="st1" d="M192,521.5c0-0.1-0.1-0.2-0.1-0.2c0-0.1-0.1-0.2-0.1-0.3c-0.1-0.2-0.1-0.4-0.2-0.6c-0.1-0.4-0.3-0.9-0.4-1.3
				c0-0.1,0-0.2-0.1-0.3c-0.2-0.7-0.3-1.4-0.3-2.2c0-0.1,0-0.1,0-0.2c0-0.6,0-1.3,0-1.9c0-0.3,0.1-0.7,0.1-1c0.1-0.3,0.1-0.7,0.2-1
				c0.2-0.7,0.4-1.5,0.6-2.2c0.2-0.6,0.5-1.2,0.8-1.7c0.6-1.2,1.4-2.4,2.3-3.6c0.7-1,1.5-1.9,2.4-2.7c0.2-0.2,0.4-0.4,0.6-0.6
				c1.1-1.1,2.3-2.1,3.5-3c1.2-0.9,2.5-1.8,3.8-2.7c1.3-0.8,2.7-1.6,4.1-2.3c1.4-0.7,2.8-1.4,4.3-2c1.4-0.6,2.9-1.1,4.4-1.6
				c1.5-0.5,2.9-0.9,4.4-1.2c1.3-0.3,2.7-0.6,4-0.8c0.1,0,0.2,0,0.4-0.1"/>
		</g>
		<g id="SPLINE_67_">
			<path class="st1" d="M226.5,488c0.1,0,0.2,0,0.4,0.1c1.4,0.2,2.7,0.5,4,0.8c1.5,0.4,3,0.8,4.4,1.2c1.5,0.5,3,1,4.4,1.6
				c1.5,0.6,3,1.3,4.4,2c1.5,0.7,3,1.5,4.4,2.3c0.3,0.2,0.6,0.4,1,0.5c1.2,0.7,2.4,1.4,3.5,2.1c1.5,1,3,2,4.5,3
				c1.5,1.1,3.1,2.2,4.6,3.3c1.6,1.2,3.1,2.4,4.6,3.6c1.5,1.3,3.1,2.6,4.5,3.9c0.5,0.4,1,0.9,1.5,1.3c0.3,0.2,0.5,0.5,0.8,0.7
				c0.7,0.7,1.4,1.4,2.1,2.1c0.7,0.7,1.4,1.4,2,2.2c0.2,0.2,0.4,0.4,0.5,0.6c0.5,0.5,0.9,1.1,1.4,1.6c0.2,0.3,0.5,0.6,0.7,0.9
				c0.4,0.5,0.7,0.9,1,1.4c0.2,0.3,0.4,0.6,0.7,0.9c0.3,0.4,0.6,0.9,0.9,1.4c0.2,0.3,0.3,0.6,0.5,0.9c0.3,0.5,0.5,1,0.7,1.4
				c0.1,0.2,0.2,0.5,0.3,0.7c0.2,0.5,0.4,1.1,0.6,1.6c0.3,0.8,0.5,1.6,0.6,2.4c0,0.1,0,0.1,0,0.2c0.1,0.7,0.2,1.5,0.2,2.2
				c0,0.4,0,0.8,0,1.2c0,0.4-0.1,0.8-0.1,1.2c-0.1,0.4-0.1,0.8-0.2,1.2c-0.1,0.4-0.2,0.8-0.4,1.2c-0.1,0.3-0.2,0.6-0.3,0.9
				c0,0,0,0.1,0,0.1c0,0.1-0.1,0.1-0.1,0.2c-0.1,0.2-0.2,0.5-0.3,0.7"/>
		</g>
		<g id="SPLINE_66_">
			<path class="st1" d="M180.6,588.8c-0.6-0.5-1.3-0.9-1.9-1.4c-1.3-1-2.6-1.9-3.8-2.9c-1.2-1-2.5-1.9-3.7-2.9
				c-0.5-0.4-0.9-0.8-1.4-1.2c-0.7-0.6-1.3-1.1-2-1.7c-1.1-0.9-2.1-1.9-3.1-2.9c-0.9-0.9-1.8-1.9-2.7-2.9c-0.1-0.1-0.2-0.2-0.3-0.4
				c-0.7-0.8-1.3-1.7-1.9-2.5c-0.3-0.4-0.6-0.9-0.8-1.3c-0.3-0.5-0.6-1-0.8-1.6c-0.3-0.7-0.6-1.4-0.8-2.1c-0.1-0.2-0.1-0.5-0.2-0.7
				c-0.3-0.9-0.4-1.9-0.5-2.8c0,0,0-0.1,0-0.1c0-0.6,0-1.2,0-1.8c0-0.3,0.1-0.6,0.1-0.9c0-0.3,0.1-0.5,0.1-0.8
				c0.1-0.6,0.3-1.2,0.5-1.8c0-0.1,0-0.1,0.1-0.2c0.2-0.5,0.4-1.1,0.6-1.6c0.2-0.4,0.4-0.8,0.6-1.2c0.5-0.9,1-1.7,1.6-2.5
				c0.1-0.1,0.1-0.2,0.2-0.2c0.7-0.9,1.4-1.8,2.2-2.7c0.8-0.9,1.7-1.8,2.5-2.6c0.5-0.4,0.9-0.9,1.4-1.3c0.3-0.3,0.6-0.5,0.8-0.7
				c0.2-0.2,0.4-0.4,0.6-0.5c0.2-0.2,0.4-0.4,0.6-0.5"/>
		</g>
		<g id="SPLINE_65_">
			<path class="st1" d="M182,555.8C182,555.8,182,555.8,182,555.8C182,555.7,182,555.7,182,555.8"/>
		</g>
		<g id="SPLINE_64_">
			<path class="st1" d="M182,555.7c-0.1-0.1-0.2-0.1-0.2-0.2c-0.3-0.2-0.6-0.5-0.9-0.7c-0.4-0.3-0.8-0.6-1.2-0.9
				c-0.4-0.3-0.8-0.6-1.2-0.9c-0.3-0.3-0.7-0.5-1-0.8c-0.7-0.6-1.4-1.2-2.1-1.8c0,0,0,0-0.1-0.1c-0.6-0.6-1.2-1.2-1.8-1.8
				c-0.3-0.3-0.5-0.6-0.8-0.9c-0.7-0.8-1.4-1.7-2.1-2.6c-0.1-0.1-0.1-0.2-0.2-0.3c-0.2-0.3-0.4-0.7-0.7-1c-0.3-0.4-0.5-0.8-0.7-1.3
				c-0.2-0.4-0.4-0.8-0.6-1.3c0-0.1-0.1-0.1-0.1-0.2c0,0,0-0.1,0-0.1c-0.1-0.3-0.2-0.6-0.3-0.9c-0.1-0.4-0.3-0.8-0.4-1.2
				c-0.1-0.4-0.2-0.8-0.2-1.2c-0.1-0.4-0.1-0.8-0.1-1.2c0-0.4,0-0.8,0-1.2c0-0.7,0.1-1.5,0.2-2.2c0-0.1,0-0.1,0-0.2
				c0.2-0.8,0.4-1.6,0.6-2.4c0.2-0.6,0.4-1.1,0.6-1.6c0.1-0.2,0.2-0.5,0.3-0.7c0.2-0.5,0.5-1,0.7-1.4c0.2-0.3,0.3-0.6,0.5-0.9
				c0.3-0.5,0.6-0.9,0.9-1.4c0.2-0.3,0.4-0.6,0.7-0.9c0.3-0.5,0.7-0.9,1-1.4c0.2-0.3,0.5-0.6,0.7-0.9c0.4-0.5,0.9-1.1,1.4-1.6
				c0.2-0.2,0.4-0.4,0.5-0.6c0.7-0.7,1.3-1.4,2-2.2c0.7-0.7,1.4-1.4,2.1-2.1c0.2-0.2,0.5-0.5,0.8-0.7c0.5-0.4,1-0.9,1.5-1.3
				c1.5-1.3,3-2.6,4.5-3.9c1.5-1.2,3-2.4,4.6-3.6c1.5-1.1,3-2.2,4.6-3.3c1.5-1,3-2,4.5-3c1.2-0.7,2.3-1.4,3.5-2.1
				c0.3-0.2,0.6-0.4,1-0.5c1.5-0.8,2.9-1.6,4.4-2.3c1.5-0.7,2.9-1.4,4.4-2c1.5-0.6,2.9-1.1,4.4-1.6c0.7-0.2,1.5-0.5,2.2-0.7"/>
		</g>
		<g id="SPLINE_63_">
			<path class="st1" d="M191.9,521.5C191.9,521.5,191.9,521.5,191.9,521.5C191.9,521.5,191.9,521.5,191.9,521.5"/>
		</g>
		<g id="SPLINE_62_">
			<path class="st1" d="M263.3,526.6c0,0,0.2,0.2,0.3,0.2c0.3,0.2,1,0.7,1.2,0.9c0.1,0,0.1,0.1,0.2,0.1c0.5,0.3,1,0.7,1.5,1
				c0.7,0.5,1.3,0.9,2,1.4c0.4,0.2,0.7,0.5,1.1,0.7c0.8,0.6,1.6,1.1,2.4,1.7c0.1,0.1,0.2,0.1,0.3,0.2c0,0,0,0,0.1,0
				c0.1,0.1,0.2,0.1,0.2,0.2c1,0.7,1.9,1.3,2.8,2c0,0,0,0,0,0c0.6,0.4,1.1,0.8,1.6,1.2c0.6,0.4,1.1,0.8,1.7,1.2
				c0.5,0.4,1.1,0.8,1.6,1.2c0.1,0.1,0.3,0.2,0.5,0.4c0.4,0.3,0.8,0.6,1.1,0.9c0.5,0.4,1,0.8,1.5,1.2c0.5,0.4,1,0.8,1.5,1.3
				c0.2,0.2,0.4,0.4,0.6,0.5c0.3,0.2,0.6,0.5,0.8,0.7c0.5,0.4,0.9,0.9,1.4,1.3c0.9,0.8,1.7,1.7,2.5,2.6c0.8,0.8,1.5,1.7,2.2,2.7
				c0.1,0.1,0.1,0.2,0.2,0.2c0.6,0.8,1.1,1.6,1.6,2.5c0.2,0.4,0.4,0.8,0.6,1.2c0.2,0.5,0.5,1,0.6,1.6c0,0.1,0.1,0.1,0.1,0.2
				c0.2,0.6,0.4,1.2,0.5,1.8c0.1,0.3,0.1,0.5,0.1,0.8c0,0.3,0.1,0.6,0.1,0.9c0,0.6,0.1,1.2,0,1.8c0,0,0,0.1,0,0.1
				c-0.1,1-0.2,1.9-0.5,2.8c-0.1,0.2-0.1,0.5-0.2,0.7c-0.2,0.7-0.5,1.4-0.8,2.1c-0.5,1-1,1.9-1.6,2.9c-0.6,0.9-1.2,1.7-1.9,2.5
				c0,0-0.1,0.1-0.1,0.1c-0.1,0.1-0.1,0.1-0.2,0.2c-0.2,0.2-0.4,0.5-0.6,0.7"/>
		</g>
		<g id="SPLINE_61_">
			<path class="st1" d="M271.6,559.7C271.6,559.7,271.6,559.7,271.6,559.7C271.6,559.7,271.6,559.7,271.6,559.7"/>
		</g>
		<g id="SPLINE_60_">
			<path class="st1" d="M271.6,559.7c0.1,0.1,0.2,0.1,0.3,0.2c0.3,0.2,0.9,0.5,1.2,0.7c0.4,0.3,0.9,0.5,1.3,0.8
				c0.1,0,0.2,0.1,0.2,0.1c0.9,0.6,1.9,1.2,2.8,1.8c0.5,0.3,0.9,0.6,1.4,0.9c0.4,0.3,0.9,0.6,1.3,0.9c0.9,0.6,1.7,1.2,2.6,1.8
				c0.1,0,0.1,0.1,0.2,0.1c1.3,0.9,2.5,1.9,3.7,2.9c0.3,0.2,0.6,0.5,0.9,0.8c0.8,0.7,1.6,1.4,2.3,2.1c0.6,0.6,1.1,1.1,1.6,1.7
				c0.3,0.4,0.7,0.8,1,1.2c0.8,0.9,1.5,1.9,2.1,2.9c0.6,0.9,1.1,1.9,1.5,2.9c0.2,0.4,0.3,0.7,0.4,1.1c0.2,0.6,0.4,1.2,0.6,1.8
				c0.2,0.8,0.3,1.6,0.4,2.4c0,0.2,0,0.3,0,0.5c0,0.6,0.1,1.1,0.1,1.7c0,0.4,0,0.8-0.1,1.2c0,0.3-0.1,0.7-0.1,1
				c-0.1,0.6-0.2,1.2-0.3,1.8c0,0.2-0.1,0.3-0.1,0.5c-0.2,0.8-0.4,1.6-0.7,2.4c0,0,0,0.1,0,0.1c-0.3,0.9-0.7,1.8-1,2.7
				c-0.4,1-0.8,1.9-1.3,2.8c-0.5,0.9-1,1.9-1.5,2.8c-0.5,0.9-1,1.8-1.6,2.7c-0.5,0.9-1.1,1.8-1.6,2.7c-0.5,0.9-1.1,1.8-1.6,2.7
				c-0.5,0.9-1.1,1.7-1.6,2.6c-0.5,0.9-1,1.7-1.6,2.6c-0.2,0.4-0.5,0.8-0.7,1.2c-0.7,1.3-1.5,2.5-2.2,3.8c-0.8,1.5-1.6,2.9-2.4,4.4"
				/>
		</g>
		<g id="SPLINE_54_">
			<path class="st1" d="M272,593.9C272,593.9,272,593.9,272,593.9C272,593.9,272,593.9,272,593.9"/>
		</g>
	</g>
</g>
<g id="feathers">
	<path class="st2" d="M898.8,608.1l-2.1-8.6l5.1-29.8c0,0-2.8,3.5-6.3,1.5c-3.5-1.9-5.2,1.1-5.3,4.3c0,0-1.9-4.2,1.5-5.7
		c3.4-1.5,5.7-1.7,5.4-4.9c0,0-9.3,5.1-14.3-3.8c0,0,5.6,5.3,12.4,1.6c0,0-1.8-1.9-6.5-1.6c-4.8,0.3-5.8-0.1-7-4.6
		c0,0,0.9,5.3,9.1,2.5c0,0-3.1-0.5-4.6-5.3c0,0,2.1,4.1,7.5,4.6c0,0-7.1-5.2-8.9-11.4c-1.8-6.2-0.3-18.1-0.3-18.1
		s3.8,12.4,13.2,18.7c0,0-8.7-7.2-13.4-24.4l4.1-13.5c0,0,4.9,13.2,11.7,20.7c0,0-8.4-14.9-10.2-23.1c-1.8-8.2,4.7-17.7,4.7-17.7
		s2.3,11.5,10.3,16.3c0,0-8.1-11.9-7.6-19.9c0.6-8.1,9.2-17.7,9.2-17.7s5.8,13.5,5.7,13.2c-0.1-0.2-4.4-11.5-2.9-18.2
		c1.5-6.7,8.6-18.4,13.7-14.4s8.5,20.7,7.5,25.2s-10.6,12.5-10.6,12.5s6.1-1.8,11-10c0,0,3,16.8,0.6,47l-15.8,9.7l15.6-6.9
		c0,0,2.5,19.6-7.8,31.3c-10.2,11.7-16.8,9.7-16.8,9.7s4.6,2,10.8,0.1c0,0-6.1,2.8-11.7,2.1c0,0,1.4,4.5,6.7,4.4c0,0-4.9,2-7.4-2
		c0,0-1,6.2,3.4,9.7c0,0-3.8-2.1-4.9-7.5L898.8,608.1z"/>
	<path class="st2" d="M771.6,608.3l-5.6-6.8l-8.1-29.1c0,0-1.1,4.4-5,4.1s-4.2,3.2-3,6.2c0,0-3.5-3-1.1-5.8c2.5-2.8,4.4-4,2.8-6.8
		c0,0-6.3,8.6-14.5,2.7c0,0,7.3,2.4,11.9-3.9c0,0-2.4-1-6.6,1.3s-5.2,2.4-8.3-1.1c0,0,3,4.4,9.3-1.6c0,0-3,0.9-6.4-2.8
		c0,0,3.7,2.8,8.7,1c0,0-8.6-1.7-12.9-6.5s-8.1-16.2-8.1-16.2s8.7,9.5,19.9,11.2c0,0-11-2.8-22.6-16.3l-2-14c0,0,10.1,9.8,19.5,13.7
		c0,0-14-9.8-19.1-16.5c-5.1-6.6-3.4-18-3.4-18s7,9.4,16.3,10.3c0,0-12.4-7.2-15.4-14.8s0.7-20,0.7-20s11,9.7,10.8,9.5
		c-0.1-0.2-9-8.5-10.5-15.2c-1.5-6.7-0.1-20.3,6.1-18.9s16.6,15,17.6,19.5s-4.2,15.8-4.2,15.8s4.7-4.2,5.7-13.8
		c0,0,9.9,13.9,20.7,42.2l-10.1,15.6l11.1-12.9c0,0,10.6,16.6,6.4,31.6c-4.2,15-11,16-11,16s5-0.2,9.8-4.6c0,0-4.3,5.2-9.6,6.9
		c0,0,3.2,3.5,7.9,1.1c0,0-3.6,3.9-7.5,1.3c0,0,1.8,6,7.2,7.3c0,0-4.3-0.3-7.6-4.7L771.6,608.3z"/>
	<path class="st2" d="M864.5,607.8l-2.6-10.8l6.5-37.4c0,0-3.6,4.4-8,1.9c-4.4-2.4-6.6,1.3-6.7,5.4c0,0-2.4-5.3,1.9-7.1
		c4.3-1.8,7.2-2.1,6.8-6.2c0,0-11.8,6.4-18-4.8c0,0,7,6.7,15.6,2c0,0-2.2-2.4-8.2-2.1c-6,0.4-7.3-0.1-8.8-5.7c0,0,1.1,6.7,11.4,3.2
		c0,0-3.9-0.6-5.7-6.6c0,0,2.7,5.2,9.4,5.9c0,0-8.9-6.5-11.2-14.4s-0.4-22.8-0.4-22.8s4.8,15.6,16.6,23.5c0,0-11-9.1-16.9-30.7
		l5.2-17c0,0,6.1,16.6,14.7,26.1c0,0-10.6-18.7-12.8-29c-2.2-10.3,5.9-22.3,5.9-22.3s2.9,14.5,13,20.5c0,0-10.2-14.9-9.5-25.1
		c0.7-10.2,11.6-22.3,11.6-22.3s7.2,16.9,7.2,16.7c-0.1-0.3-5.6-14.5-3.7-22.9c1.9-8.4,10.8-23.1,17.2-18.2
		c6.3,4.9,10.7,26.1,9.5,31.7c-1.2,5.6-13.3,15.8-13.3,15.8s7.7-2.3,13.9-12.6c0,0,3.7,21.2,0.8,59.1l-19.9,12.2l19.6-8.7
		c0,0,3.1,24.6-9.8,39.4c-12.9,14.8-21.1,12.2-21.1,12.2s5.7,2.5,13.6,0.1c0,0-7.7,3.6-14.7,2.7c0,0,1.7,5.7,8.4,5.5
		c0,0-6.2,2.5-9.3-2.6c0,0-1.3,7.8,4.3,12.2c0,0-4.8-2.6-6.1-9.5L864.5,607.8z"/>
	<path class="st2" d="M799.6,607.9l-5.4-9.7l-3.8-37.8c0,0-2.3,5.2-7.1,4c-4.9-1.2-6,3-5,7c0,0-3.7-4.4-0.1-7.4
		c3.7-2.9,6.3-4,4.9-7.8c0,0-9.6,9.3-18.6,0.2c0,0,8.5,4.6,15.6-2.3c0,0-2.8-1.8-8.4,0.2s-7,1.8-10-3.2c0,0,2.8,6.1,11.8,0
		c0,0-3.9,0.5-7.3-4.8c0,0,4,4.3,10.6,3.1c0,0-10.3-3.9-14.6-10.9c-4.3-6.9-6.5-21.8-6.5-21.8s8.8,13.7,22.3,18.2
		c0,0-13-5.8-24.5-25.1l0.5-17.8c0,0,10.4,14.4,21.2,21.2c0,0-15.2-15.2-20.1-24.6s-0.3-23-0.3-23s6.7,13.2,18,16.3
		c0,0-13.9-11.7-15.9-21.6s5.2-24.6,5.2-24.6s11.5,14.4,11.4,14.1s-9.3-12.5-9.7-21.1c-0.4-8.6,4.3-25.2,11.7-22.1
		s17.3,22.2,17.6,28c0.3,5.8-8.6,18.7-8.6,18.7s6.8-4.2,10-15.9c0,0,9.3,19.4,16.6,56.8L795,511.4l16.6-13.6c0,0,9.6,22.9,1.2,40.6
		c-8.4,17.7-17.1,17.5-17.1,17.5s6.2,0.8,13.1-3.6c0,0-6.5,5.5-13.4,6.5c0,0,3.2,5,9.6,3c0,0-5.3,4-9.6,0c0,0,0.9,7.9,7.4,10.6
		c0,0-5.3-1.3-8.4-7.5L799.6,607.9z"/>
	<g>
		<path class="st2" d="M867.2,428.3l-8.3,10.9c0,0,6.2-8.5,7.3-13.8c1-5.3-3.6-23.2-3.6-23.2l-8.1,10.4c0,0,8.5-11.2,7.4-21.5
			c-1.1-10.3-5-13.3-5-13.3l-8.9,10.7c0,0,8.9-16.2,1.7-23.7c-7.2-7.5-21.4-6.5-21.4-6.5l-0.6,10.7c0,0-6-9.6-6.9-9
			c-0.9,0.7-15.9,16.1-14.5,40.8c1.4,24.7,24,40,24,40c-16.6-7-26.5-30.3-26.5-30.3s-6.2,10.9-3.6,30.7
			c2.6,19.8,21.9,39.4,21.9,39.4c-13.7-8.4-21.3-28.4-21.3-28.4s-3.6,39.8,0.3,60.5c3.6,19.1,22.8,36.4,25.6,38.9
			c-1-0.8-4-2.9-8.1-2.5c-5,0.4-7.7,5.3-7.7,5.3l3.4,0.1l-2.9,1.2l2.3,0.3l-4,1.7c3.4-1.5,6.9-0.8,6.9-0.8c-2.9,0.4-5.1,2.1-5.1,2.1
			c6.1-0.8,9.6,1.1,9.6,1.1c-3.9-1.2-7.6,0.4-7.6,0.4c5.8,0,9.1,3.4,9.1,3.4c-2.9-1.1-7.1,0.1-7.1,0.1c7.5,0.1,9.5,3.7,9.5,3.7
			c-3.9-1.8-9-0.6-9-0.6c3.8,0,8.6,1.8,9,2.6c0.4,0.8,0.7,1.9-1.8,1.3c-2.5-0.6-7,0.5-7,0.5c4.8,0.1,8.4,4.3,8.4,4.3
			c-3-0.2-5.7,2.4-5.7,2.4c4-1.1,6,2.6,6,2.6c-0.6,1.2,0,2.7,0,2.7c0.4-0.8,0.8-1.4,1.3-1.8c3.9-25,8.7-70.7,9.8-117.4
			c0-33.9-0.7-58.4-0.7-58.4c1.9,18.6,2.4,38.6,1.9,58.3c0,40.5-2.6,94.5-14.3,136.9l3.6-1.6l3.9-22.8c0,0,1.7,2.4,3,2.8
			c1.3,0.4-2.7-3.7-2.7-3.7c3.5,1.5,7.2-1.2,7.2-1.2c-3.1,1.4-6.5,0.3-7.2,0.1c0.3,0.1,1.3,0.1,3.8-1c3.2-1.5,4.4-5,4.4-5
			s-2.2,2.9-3.8,3.6c-1.6,0.6-4.4,0.7-1.2-0.8c3.2-1.5,5.2-5.8,5.2-5.8c-2.5,2.8-5.8,4.1-5.8,4.1s16.5-11.8,24.8-32.7
			c8.2-20.9,7.3-72.3,9.1-86.5C869.1,436.8,867.2,428.3,867.2,428.3z"/>
	</g>
	<g>
		<g id="SPLINE_44_">
			<path class="st3" d="M806.8,645.6c0-0.3,0-0.6,0-0.9c0-0.3,0-0.6,0-0.9"/>
		</g>
		<g id="SPLINE_43_">
			<path class="st3" d="M856.3,643.7c0,0.3,0,0.6,0,0.9c0,0.3,0,0.6,0,0.9"/>
		</g>
		<g id="SPLINE_42_">
			<path class="st3" d="M831.6,633.9c8.2,0,16.5,0,24.7,0"/>
		</g>
		<g id="SPLINE_41_">
			<path class="st3" d="M806.8,633.9c8.2,0,16.5,0,24.7,0"/>
		</g>
		<g id="SPLINE_40_">
			<path class="st3" d="M831.6,670.6c8.2,0,16.5,0,24.7,0"/>
		</g>
		<g id="SPLINE_39_">
			<path class="st3" d="M806.8,670.6C806.8,670.6,806.8,670.6,806.8,670.6c0,0,10.2,0,24.7,0"/>
		</g>
		<g id="SPLINE_38_">
			<path class="st3" d="M853.9,633.9c0-5.5,0-10.9,0-16.4"/>
		</g>
		<g id="SPLINE_37_">
			<path class="st3" d="M853.9,617.5c18.6,0,37.2,0,55.8,0c5.4,0,9.2-3.8,9.2-9.2c0-5.4-3.8-9.2-9.2-9.2c-51.9,0-103.8,0-155.7,0
				c-5.4,0-9.2,3.8-9.2,9.2c0,5.4,3.8,9.2,9.2,9.2c18.7,0,37.3,0,56,0"/>
		</g>
		<g id="SPLINE_36_">
			<path class="st3" d="M810,617.5c0,5.5,0,10.9,0,16.4"/>
		</g>
		<g id="SPLINE_35_">
			<path class="st3" d="M856.3,633.9c0,3.3,0,6.5,0,9.8"/>
		</g>
		<g id="SPLINE_33_">
			<path class="st3" d="M856.3,645.6c0,8.3,0,16.7,0,25"/>
		</g>
		<g id="SPLINE_32_">
			<path class="st3" d="M806.8,633.9c0,3.3,0,6.5,0,9.8"/>
		</g>
		<g id="SPLINE_31_">
			<path class="st3" d="M806.8,645.6c0,8.3,0,16.7,0,25"/>
		</g>
		<g id="SPLINE_30_">
			<line class="st3" x1="806.8" y1="633.9" x2="806.8" y2="633.9"/>
		</g>
	</g>
</g>
<g id="flower">
	<g>
		<path class="st3" d="M468.3,579.6c8.9-9.6,33.6-22.3,42.1-14.3c8.5,7.9-2.4,33.4-11.3,43c-15.7,16.9-30.6,16.7-37.9,9.9
			C453.8,611.3,452.9,596.1,468.3,579.6z"/>
		<path class="st3" d="M505.4,607c-3.8-12.6-1.5-40.5,10.6-44.2c12.2-3.7,29.6,18.3,33.4,30.8c6.7,22-1.9,35.1-12.4,38.3
			C526.5,635.2,512,628.6,505.4,607z"/>
		<path class="st3" d="M548.3,588c-12.8-2.8-36.3-17.6-33.8-29.2c2.5-11.5,30-15.4,42.8-12.7c22.5,4.8,30,17.9,27.8,27.9
			C583,584.1,570.4,592.8,548.3,588z"/>
		<path class="st3" d="M553.1,542.6c-8.9,9.6-34,21.9-43,13.6c-9-8.4,1.5-34.2,10.5-43.8c15.7-16.9,31-16.3,38.8-9.1
			C567.2,510.6,568.5,526.1,553.1,542.6z"/>
		<path class="st3" d="M522,515c3.8,12.6,1.4,40.6-11,44.3c-12.3,3.8-29.9-18.2-33.8-30.7c-6.7-22,2.1-35.2,12.7-38.4
			C500.7,486.9,515.4,493.4,522,515z"/>
		<path class="st3" d="M472.8,534.2c12.9,2.6,36.5,17.6,34,30c-2.4,12.3-30,17.3-42.9,14.7c-22.6-4.5-30.1-18.1-28-28.8
			C438,539.4,450.6,529.8,472.8,534.2z"/>
		<path class="st3" d="M518.3,568.9c-4.1,4.4-11,4.6-15.4,0.5c-4.4-4.1-4.6-11-0.5-15.4s11-4.6,15.4-0.5
			C522.1,557.7,522.4,564.5,518.3,568.9z"/>
	</g>
</g>
<g id="handle">
	<g>
		<g>
			<path class="st1" d="M259.4,121.6c-0.2-5.6,1.8-10.2,5.6-13.8c2-1.9,4.2-3.7,7.5-2.2c1.9,7.3-3.9,16.4-10.9,17.3
				c-7.6,1-14.6-4.3-16-12.1c-1.4-8,3.7-16.1,10.4-16.5c2.7,6.9-0.6,15.8-7.1,19.2c-9,4.7-18.6,3-28.2-0.7
				c-6.4-2.5-12.2-6-17.6-10.1"/>
			<path class="st1" d="M282,261.5c1.6,9.3,8.8,15.9,17.3,15.8c1.1-6-4.5-12.8-12.7-15.3c-7.9-2.4-13.3,0.8-14.8,8.8"/>
			<path class="st1" d="M286.4,117.9c-8-0.7-13.8,5.3-15,15.4c6.4,1.3,13.9-4.3,15.2-10.4c0.3-1.5,0-3.1,0-4.7"/>
			<path class="st1" d="M183.4,307.2c-0.2,9.5,6.6,18.7,14,19c1.4-7.4-4.5-16-13.1-19.2"/>
			<path class="st1" d="M169.6,318.8c1.2,9,6.9,14,14.7,17.3c2.8-0.5,2.8-2.5,1.8-4.5c-3.2-6.7-7.5-12.2-15.3-13.3"/>
			<path class="st1" d="M282.7,146.2c8.8,1.1,14.6-2.3,17.5-10.5c-0.9-2.6-2.8-3.5-5.1-2.9c-6.5,1.8-11.7,5.1-12.9,12.6"/>
			<path class="st1" d="M259.7,279.8c-5.6-0.5-11-0.7-12.8,6.4c4.3,2.2,7.5,5.8,9.3,10.6c1.3,3.6,2.2,7.1,0.5,10.4
				c-7.5-0.1-12.2-10.1-10.3-21.5c-5.6-1.9-10.2-0.9-13.8,3.8c3.8,3.8,7.1,8.1,7.6,13.4c0.3,3-0.3,6-0.5,8.6
				c-4.2,1.7-5.7-1.3-6.8-3.3c-3.5-6.4-3.7-12.8-0.6-18.9c-8.9-4.5-16.4-0.4-18.5,6.3c-2,6.2,3.5,17,9.3,19.1
				c3.2-5.9,0.4-16.7-5.2-20.7c-6.5-4.6-14.3-3.1-18.6,3.5"/>
			<path class="st1" d="M281.8,146.4c0.2,9.1,5.4,14.8,13.4,14.8c8.8,0,15-4.7,14-10.5c-7.8-2.8-15.3,0.6-18.5,8.2"/>
			<path class="st1" d="M290.5,249.4c3.2,9.4,13.2,15.5,19.7,12.1c-1.4-6.9-8.2-12.3-16.6-12.8c-5.7-0.3-11.5,3.4-11.9,11.2"/>
			<path class="st1" d="M300.1,190.3c6.7,4.3,13.3,5.3,19.5,1c1-0.7,1.8-2.1,1.9-3.4c0.1-0.6-1.7-1.8-2.8-2.3
				c-8.8-4.1-17.6-0.1-20.5,8.4c-1.5,4.4,0.8,7.5,2.4,11.6c5.4-4,11.1-4.3,17-2.5c2.2,0.7,4.1,2.7,6.1,4.1
				c-4.2,6.9-14.8,5.9-22.4-1.3c-4.6,3.7-5.1,8.7-1.6,14.8c8.7-3.9,17.6-1.6,22,5.6c-3.5,5.8-12.8,3.8-21.8-4.6
				c-5,2.9-6.1,6.8-3.9,13.2c11.6-0.6,18.2,2.4,21.2,10c-1.6,2.8-4.4,2.4-7,1.8c-6.1-1.4-11-4.7-14-10.8c-5.6,1.3-7.6,6.9-6.4,12.8"
				/>
			<path class="st1" d="M297,175.7c5.9,2.8,11.5,2.2,16.8-0.4c2.1-1,3.9-2.6,3.4-5.7c-9.2-6.1-22.2,0.1-22.3,10.8
				c-0.1,3.8,1.6,6.9,4.7,9.3"/>
			<path class="st1" d="M197.8,299.9c-0.6,9.2,3.3,16.2,10.9,19.7c3.5-5.4-0.8-15.3-8.9-20.7"/>
			<path class="st1" d="M272.3,271.5c6.3,1.6,11.1,5.3,13.8,11.5c0.9,2,1,4.4,1.6,6.7c-8.5,0-14.9-7.1-16.1-17"/>
			<path class="st1" d="M259.3,280.6c-0.5,10.1,5.3,18.9,12.8,19.4c2.5-6.8-2.1-14.7-11.5-19.8"/>
			<path class="st1" d="M198.9,298.5c-8.1-1.3-12.1,0.8-15.1,7.8"/>
			<path class="st1" d="M182.5,307.4c-6.7,0-11.2,4-12.5,11.1"/>
			<path class="st1" d="M290.2,160.4c-1.2,5.6,0.2,10.4,5.7,13.8"/>
			<path class="st1" d="M270.5,133.5c-6-0.8-9-4.9-10.8-10.3"/>
			<path class="st1" d="M271.7,134.3c0.6,5.9,4.2,9.2,9.2,11.6"/>
			<path class="st1" d="M270.4,271.8c-5.2-0.2-8.9,1.9-10.4,7.1"/>
		</g>
		
			<rect x="188.7" y="89.7" transform="matrix(0.5378 -0.8431 0.8431 0.5378 5.7352 212.7988)" class="st3" width="16.4" height="22.9"/>
		<g>
			<g>
				<g id="SPLINE_25_">
					<path class="st3" d="M136.7,368.2c-7,0-13.3-0.5-18.9-1.5c-5.6-1-10.6-2.4-15-4.2c-4.4-1.8-8.2-4-11.4-6.6s-5.9-5.3-8-8.3
						c-0.3-0.4-0.5-0.8-0.8-1.1"/>
				</g>
				<g id="SPLINE_24_">
					<path class="st3" d="M76.1,328.2c-0.4-3.2-0.4-6.3-0.2-9.2c0.2-2.9,0.6-5.8,1.3-8.7c1.2-5.4,3.2-10,5.4-14.2
						c1.1-2.1,2.3-4.1,3.6-6c1.2-1.9,2.5-3.9,3.8-5.8c2.5-3.9,5.1-7.9,7.4-12.6c2.3-4.7,4.5-10.1,6.2-16.9
						c1.7-6.7,3.1-14.8,3.6-23.6c0.6-8.8,0.4-18.3-0.9-27.9s-3.6-19.3-7.3-28.6s-8.8-18-15.5-25.7"/>
				</g>
				<g id="SPLINE_23_">
					<path class="st3" d="M83.3,149c35.6,0,71.2,0,106.7,0"/>
				</g>
				<g id="SPLINE_22_">
					<path class="st3" d="M82.6,346.4c-0.2-0.3-0.3-0.7-0.5-1c-0.2-0.3-0.3-0.7-0.5-1c-0.3-0.7-0.7-1.5-1-2.2
						c-0.7-1.6-1.3-3.2-1.8-4.9c-0.1-0.3-0.2-0.7-0.3-1c-0.1-0.3-0.2-0.7-0.3-1c-0.2-0.7-0.5-1.5-0.7-2.2c-0.5-1.6-0.9-3.2-1.3-4.8"
						/>
				</g>
				<g id="SPLINE_21_">
					<path class="st3" d="M136.7,368.2c7,0,13.3-0.5,18.9-1.5c5.6-1,10.6-2.4,15-4.2c4.4-1.8,8.2-4,11.4-6.6c3.2-2.5,5.9-5.3,8-8.3
						c2.1-3,3.8-6.2,4.9-9.4c1.2-3.2,1.9-6.5,2.3-9.7s0.5-6.4,0.3-9.5c-0.2-2.9-0.6-5.8-1.3-8.7c-1.2-5.4-3.2-10-5.4-14.2
						c-1.1-2.1-2.3-4.1-3.6-6c-1.2-1.9-2.5-3.9-3.8-5.8c-2.5-3.9-5.1-7.9-7.4-12.6c-2.3-4.7-4.5-10.1-6.2-16.9
						c-1.7-6.7-3.1-14.8-3.6-23.6c-0.6-8.8-0.4-18.3,0.9-27.9c1.3-9.6,3.6-19.3,7.3-28.6s8.8-18,15.5-25.7"/>
				</g>
			</g>
			<polygon class="st0" points="168.1,278.8 173.2,326.1 126.2,352 104.5,352 87.8,332.7 100.8,304.2 126.2,275.9 140.9,267.3 			
				"/>
		</g>
	</g>
</g>
<g id="control_box">
	<g>
		<g id="SPLINE_10_">
			<path class="st1" d="M382.1,121.8c78.9,0,157.7,0,236.6,0"/>
		</g>
		<g id="SPLINE_9_">
			<path class="st1" d="M618.7,121.8c0,78.9,0,157.7,0,236.6"/>
		</g>
		<g id="SPLINE_8_">
			<path class="st1" d="M618.7,358.4c-78.9,0-157.7,0-236.6,0"/>
		</g>
		<g id="SPLINE_7_">
			<path class="st1" d="M382.1,358.4c0-78.9,0-157.7,0-236.6"/>
		</g>
		<g id="SPLINE_6_">
			<path class="st1" d="M567.7,282.3c-44.9,0-89.7,0-134.6,0"/>
		</g>
		<g id="SPLINE_5_">
			<path class="st1" d="M433.1,282.3c0,6.5,0,13,0,19.5"/>
		</g>
		<g id="SPLINE_4_">
			<path class="st1" d="M433.1,301.9c44.9,0,89.7,0,134.6,0"/>
		</g>
		<g id="SPLINE_3_">
			<path class="st1" d="M567.7,301.9c0-6.5,0-13,0-19.5"/>
		</g>
		<g>
			<g id="SPLINE_2_">
				<circle class="st1" cx="557.6" cy="189.4" r="17.9"/>
			</g>
			<g id="SPLINE_1_">
				<circle class="st1" cx="443.1" cy="189.4" r="17.9"/>
			</g>
		</g>
	</g>
</g>
<g id="buttons">
	<g>
		<rect x="704.2" y="107" class="st3" width="142.4" height="25.5"/>
		<path class="st3" d="M744.7,98.7c0,0,4.6-7,11.8-7.5c9-0.6,15.1,5.7,15.7,12.9c0.6,7.1-4.4,13.7-8.3,18.1
			c-5.4,6-13.6,12.2-18.4,15.1c-4.9-2.7-13.3-8.6-19-14.5c-4.1-4.3-9.3-10.7-9-17.8c0.3-7.2,6.2-13.7,15.2-13.5
			C739.9,91.9,744.7,98.7,744.7,98.7z"/>
	</g>
	<g>
		<rect x="704.2" y="170.3" class="st3" width="142.4" height="25.5"/>
		<path class="st3" d="M795.8,186.7c0.3-1,0.4-2.1,0.4-3.2c0-5.9-4.2-10.8-9.7-11.9c-2.1-6.2-8-10.7-15-10.7c-5.7,0-10.7,3-13.5,7.6
			c-1.2-0.3-2.5-0.5-3.8-0.5c-8.8,0-15.9,7.1-15.9,15.9c0,0.8,0.1,1.5,0.2,2.2c-0.1,0-0.1,0-0.2,0c-3.9,0-7.1,3.2-7.1,7.1
			c0,3.9,3.2,7.1,7.1,7.1c0,0,54.1,0,54.5,0c3.9,0,7.1-3.2,7.1-7.1C800,190.3,798.3,187.8,795.8,186.7z"/>
	</g>
	<g>
		<path class="st4" d="M897.7,128.3c1.3,5.1-2.6,9.9-6,14c-3.4,4.1-6.7,9.6-4.3,14.3c0.6,1.3,1.7,2.4,1.7,3.8c0,1.4-1,2.6-1.9,3.6
			c-2.9,3.2-5.8,6.4-8.7,9.6"/>
		<path class="st4" d="M908.8,128.4c0.6,8.6,1.2,17.1,1.8,25.7c0.1,1.5,0.2,3.1-0.2,4.5c-0.4,1.4-1.1,2.7-1.6,4
			c-1.4,4.1,0.3,8.6,2,12.6"/>
		<path class="st4" d="M920.5,129.3c4.1,0.7,6.2,5.6,5.9,9.7c-0.3,4.2-2.2,8-3.1,12.1c-2.9,12.6,4.2,25.6,2.6,38.4"/>
		<polygon class="st3" points="907.8,83.4 881.2,129.4 934.3,129.4 		"/>
	</g>
	<g>
		<path class="st4" d="M723.3,269.1c-10.7,15.8-11.7,37.1-24,51.8"/>
		<path class="st4" d="M734.5,268.8c6,10.8,2.2,24.3-3.1,35.5c-5.3,11.2-12.1,22.4-11.8,34.7"/>
		<g>
			<g>
				<g>
					<path class="st3" d="M724.1,273.7l0,0.3l0,2.9l0,0.5l0,2.1c0,0.4,0.3,0.8,0.7,0.9l0.7,0.3c0.4,0.1,0.9,0,1.1-0.3l1.6-1.9
						l0.4-0.4l0.2-0.2l0.4-0.5l1.4-1.7l0.3-0.4l0.9-1.1l0.4-0.5l0.6-0.8l0.3-0.4l1.6-2l0.3-0.4l0.1-0.1l0.3-0.3l2-2.4l0.3-0.4l0-0.1
						l0.4-0.5l1.5-1.9l0.3-0.4l0.8-1l0.4-0.5l0.8-1l0.3-0.4l1.5-1.9l0.4-0.5l0,0l0.3-0.4l2.3-2.8l0.4-0.5l2-2.5
						c0.2-0.3,0.1-0.7-0.3-0.8l-0.1,0l-1.5-0.5l-13.8-5l-1-0.4L728,244l-0.9-0.3l-2.5-0.9c-0.4-0.1-0.7,0.1-0.7,0.4l0,0.4l0,1.1
						l0,4.1l0,0.5l0,0.5l0,1l0,2l0,0.5l0,2.3l0,1l0,0.2l0,0.5l0,3.5l0,0.5l0,0.1l0,0.9l0,2.5l0,0.5l0,1.8l0,0.9l0,0.8l0,0.5l0,3.4
						l0,0.1l0,0.2l0,0.4"/>
				</g>
				<g>
					<g>
						<path class="st3" d="M744.6,226.7c-9.6-3.5-18.4,1.3-20.6,7.6c-0.5,1.4-0.6,2.9-0.4,4.4c0,0,0,0,0,0c0.2,0.6,0.5,1.5,1.1,2.2
							c0.9,1,1.1,2.1,2.1,2.6c1,0.5,2.1,0.6,2.8,1.6c0.7,1,4.1,1.5,5,2.5c0.9,0.9,1.6,2,3.7,2.2c2.1,0.2,3.7,1,5.2,1.1
							c1.5,0.1,4.3-0.3,5.2,0c0.8,0.3,2.5-0.8,3.5-0.6c1.6-1.2,2.8-2.6,3.4-4.5C757.8,239.3,754.7,230.3,744.6,226.7z"/>
						<defs>
							<filter id="Adobe_OpacityMaskFilter" filterUnits="userSpaceOnUse" x="722.4" y="224.5" width="34.8" height="26.6">
								<feColorMatrix  type="matrix" values="1 0 0 0 0  0 1 0 0 0  0 0 1 0 0  0 0 0 1 0"/>
							</filter>
						</defs>
						<mask maskUnits="userSpaceOnUse" x="722.4" y="224.5" width="34.8" height="26.6" id="SVGID_1_">
							<g class="st5">
							</g>
						</mask>
						<path class="st6" d="M752.1,250.1c1.6-1.2,2.8-2.6,3.4-4.5c2.3-6.3-0.7-15.3-10.9-19c-9.6-3.5-18.4,1.3-20.6,7.6
							c-0.5,1.4-0.6,2.9-0.4,4.4"/>
						<defs>
							<filter id="Adobe_OpacityMaskFilter_1_" filterUnits="userSpaceOnUse" x="722.3" y="237.8" width="29.9" height="14">
								<feColorMatrix  type="matrix" values="1 0 0 0 0  0 1 0 0 0  0 0 1 0 0  0 0 0 1 0"/>
							</filter>
						</defs>
						<mask maskUnits="userSpaceOnUse" x="722.3" y="237.8" width="29.9" height="14" id="SVGID_2_">
							<g class="st7">
							</g>
						</mask>
						<path class="st8" d="M723.5,238.7C723.5,238.7,723.5,238.7,723.5,238.7c0.2,0.6,0.5,1.5,1.1,2.2c0.9,1,1.1,2.1,2.1,2.6
							c1,0.5,2.1,0.6,2.8,1.6c0.7,1,4.1,1.5,5,2.5c0.9,0.9,1.6,2,3.7,2.2c2.1,0.2,3.7,1,5.2,1.1c1.5,0.1,4.3-0.3,5.2,0
							c0.8,0.3,2.5-0.8,3.5-0.6"/>
					</g>
					<g>
						<path class="st3" d="M751.5,250.2c-1,0.2-2.2,0.9-2.9,0.6c-1-0.3-3.7,0.1-5.2,0c-1.5-0.1-3.1-0.9-5.2-1.1
							c-2.1-0.2-2.8-1.2-3.7-2.2c-0.9-0.9-4.3-1.5-5-2.5c-0.7-1-1.8-1.1-2.8-1.6c-1-0.5-1.2-1.5-2.1-2.6"/>
						<path class="st3" d="M752.1,250.1"/>
						<path class="st9" d="M723.8,237.8c-0.9,0.6-1.8,1.3-2,2.3c-0.2,1,0.4,1.9,1.5,2.5c0.3,0.4,0.6,0.7,1,1
							c0.9,0.9,1.9,2.1,3.3,2.7c0.3,0.1,0.6,0.2,0.9,0.3c0.4,0.2,0.8,0.4,1.3,0.6c0.7,0.5,1.3,1,2.1,1.5c2.3,1.5,5,2.5,7.7,3.1
							c2.5,0.5,5.5,1,8.2,0.8c0.8,0.1,1.6,0,2.4-0.2c0.1,0,0.1,0,0.2-0.1c1-0.2,1.8-0.6,2.1-1.3c0.1-0.1,0-0.2,0.1-0.3
							c0.2-0.1,1.2-2,1-2.3"/>
					</g>
				</g>
			</g>
			<line class="st3" x1="724.1" y1="272.8" x2="724.1" y2="274.3"/>
		</g>
	</g>
	<g>
		<path class="st4" d="M907,253.9c-0.1,6.7,0.2,13.4,0.9,20c0.2,2.1,0.5,4.3,1.4,6.3c0.8,1.6,2,2.9,2.9,4.3
			c3.2,4.9,3.3,11.1,3.3,16.9"/>
		<path class="st4" d="M915.7,249.9c3.5,3.7,7,7.4,10.4,11.1c6.9,7.3,14,15.1,15.9,24.9"/>
		<path class="st4" d="M923.9,241.7c2.9,3.6,8,4.2,12.3,5.9c4.3,1.7,8,4.6,12.1,6.8c8.4,4.5,18.2,5.9,27.7,7.1"/>
		<circle class="st3" cx="904.3" cy="229.6" r="22.6"/>
	</g>
	<path class="st10" d="M820.6,252.8c15.5,1.7,33.6,5.2,40.3,19.3c1,2.1,1.7,4.5,3.5,6"/>
	<path class="st10" d="M824.1,266c8.6,17.2,22.9,31.6,40.1,40.3"/>
	<g>
		<path class="st3" d="M803.2,280c-2.2,1.4-4.4,2.9-6.9,3.7c-2.5,0.8-5.4,0.8-7.6-0.6c-0.8-0.5-1.4-1.1-1.8-1.9
			c-0.4-0.8-0.3-1.8,0.2-2.5c-1.3,0.1-2.5-0.7-3-1.8c-0.5-1.2,0-2.6,1-3.4c-1-0.4-2-1.3-2.3-2.3c-0.3-1.1,0.1-2.4,1.1-2.9
			c-1.8-0.4-3.1-2.3-2.9-4.2s2-3.4,3.9-3.3c-1.1-0.6-2.2-1.2-2.7-2.2c-0.6-1.2-0.3-2.6,0-3.8c0.3-1.2,0.6-2.5,1.5-3.4
			c0.9-0.9,2.6-1.1,3.4-0.1c-1.6-1.9,0.8-5.6,1.9-7.1c1.5-2.2,5.1-2.2,5.3,1c-0.1-2,0.4-4.2,2.1-5.3c2-1.4,5.2-0.3,6,2
			c0.8-0.7,1.6-1.5,2.6-1.9s2.2-0.4,3.1,0.2c0.4,0.3,0.8,0.8,1.3,0.8c0.4,0,0.7-0.4,1-0.5c0.6-0.4,1.5-0.3,2,0.2s0.7,1.3,0.4,2
			c1.2-0.5,2.5-1.1,3.8-0.8c1.3,0.3,2.4,1.8,1.7,3c1.7-1,4.1-0.5,5.2,1.1c1.1,1.6,0.7,4-0.8,5.2c1.5-0.1,3.1,0.2,4.3,1.2
			c1.2,0.9,1.9,2.5,1.7,4s-1.6,2.8-3.1,2.7c1.5,0.3,3.4,0.9,3.5,2.4c0,0.8-0.5,1.5-1.1,1.9s-1.5,0.6-2.2,0.6
			c1.4-0.2,2.6,1.4,2.2,2.8s-1.8,2.3-3.2,2.4c1.8,0.6,2.4,3.3,1.2,4.9c-1.2,1.5-3.6,1.8-5.3,0.9c1.5,0.6,2.1,2.3,2.1,3.8
			c0,1.4-0.6,3-1.9,3.5c-1.7,0.6-3.4-0.8-4.6-2.1c0.1,1.2-1.1,2.1-2.3,2.1c-1.2,0-2.3-0.7-3.1-1.5c-0.9-0.8-1.7-1.7-2.7-2.3
			L803.2,280z"/>
		<g>
			<path class="st3" d="M810.8,271.7c-1.3-3.3-3.5-7.5-4-10.9c-0.7-4.7,0.3-11.2-1.9-11.2c-2.2,0-3.3,2.8-2.4,5.4
				c1,2.6,0.3,3.9-1.5,8.8c-1.1,2.9-1.9,6.4-2.4,8.7c-0.3,0.8-0.5,1.7-0.5,2.6c0,3.7,3,6.8,6.8,6.8c3.7,0,6.8-3,6.8-6.8
				C811.7,273.9,811.4,272.7,810.8,271.7z"/>
		</g>
	</g>
</g>
<g id="labels">
	<g>
		<circle class="st11" cx="77" cy="80.9" r="19.8"/>
		<text transform="matrix(1 0 0 1 71.5254 86.4751)" class="st12 st13 st14">1</text>
	</g>
	<g>
		<circle class="st11" cx="117.6" cy="458.7" r="19.8"/>
		<text transform="matrix(1 0 0 1 112.0708 464.2129)" class="st12 st13 st14">4</text>
	</g>
	<g>
		<circle class="st11" cx="402.5" cy="458.7" r="19.8"/>
		<text transform="matrix(1 0 0 1 397.0303 464.2129)" class="st12 st13 st14">5</text>
	</g>
	<g>
		<circle class="st11" cx="669.7" cy="458.7" r="19.8"/>
		<text transform="matrix(1 0 0 1 664.2479 464.2125)" class="st12 st13 st14">6</text>
	</g>
	<g>
		<circle class="st11" cx="360.5" cy="80.9" r="19.8"/>
		<text transform="matrix(1 0 0 1 354.9712 86.4751)" class="st12 st13 st14">2</text>
	</g>
	<g>
		<circle class="st11" cx="669.7" cy="80.9" r="19.8"/>
		<text transform="matrix(1 0 0 1 664.248 86.4751)" class="st12 st13 st14">3</text>
	</g>
</g>
<g id="axon">
</g>
<g id="lines">
</g>
</svg>
