<?xml version="1.0" encoding="utf-8"?>
<!-- Generator: Adobe Illustrator 25.2.1, SVG Export Plug-In . SVG Version: 6.00 Build 0)  -->
<svg version="1.1" id="Layer_1" xmlns="http://www.w3.org/2000/svg" xmlns:xlink="http://www.w3.org/1999/xlink" x="0px" y="0px"
	 viewBox="0 0 1020 714" style="enable-background:new 0 0 1020 714;" xml:space="preserve">
<style type="text/css">
	.st0{fill:#FDF1CF;}
	.st1{fill:none;stroke:#000000;stroke-width:3;stroke-linecap:round;stroke-linejoin:round;stroke-miterlimit:10;}
	.st2{fill:#FDF1CF;stroke:#000000;stroke-width:3;stroke-miterlimit:10;}
	.st3{fill:#FDF1CF;stroke:#000000;stroke-width:3;stroke-linecap:round;stroke-linejoin:round;stroke-miterlimit:10;}
	.st4{fill:none;stroke:#000000;stroke-width:3;stroke-linecap:round;stroke-miterlimit:10;}
	.st5{fill:none;stroke:#A5A5A5;stroke-width:2.5;stroke-miterlimit:10;}
	.st6{fill:none;stroke:#A5A5A5;stroke-width:2.5;stroke-miterlimit:10;stroke-dasharray:12.0911,12.0911;}
	.st7{fill:#A5A5A5;}
	.st8{fill:none;stroke:#A5A5A5;stroke-width:2.5;stroke-miterlimit:10;stroke-dasharray:9.8472,9.8472;}
	.st9{fill:none;stroke:#A5A5A5;stroke-width:2.5;stroke-miterlimit:10;stroke-dasharray:11.4793,11.4793;}
	.st10{fill:none;stroke:#A5A5A5;stroke-width:2.5;stroke-miterlimit:10;stroke-dasharray:12.4025,12.4025;}
	.st11{fill:none;stroke:#A5A5A5;stroke-width:2.5;stroke-miterlimit:10;stroke-dasharray:12.4135,12.4135;}
	.st12{fill:none;stroke:#A5A5A5;stroke-width:2.5;stroke-miterlimit:10;stroke-dasharray:12,12;}
</style>
<rect x="-0.5" y="0.2" class="st0" width="1020" height="714"/>
<g>
	<g id="SPLINE_189_">
		<path class="st1" d="M674.4,605.6c8,4.6,16,9.3,24,13.9"/>
	</g>
	<g id="SPLINE_141_">
		<path class="st1" d="M729.9,323.7c67.2,38.8,134.4,77.6,201.6,116.4"/>
	</g>
	<g id="SPLINE_140_">
		<path class="st1" d="M931.5,440.1c-67.2,38.8-134.4,77.6-201.6,116.4"/>
	</g>
	<g id="SPLINE_131_">
		<path class="st1" d="M729.9,556.5c-67.2-38.8-134.4-77.6-201.6-116.4"/>
	</g>
	<g id="SPLINE_127_">
		<path class="st1" d="M528.3,440.1c67.2-38.8,134.4-77.6,201.6-116.4"/>
	</g>
	<g id="SPLINE_126_">
		<path class="st1" d="M751.3,494c-38.2-22.1-76.5-44.1-114.7-66.2"/>
	</g>
	<g id="SPLINE_108_">
		<path class="st1" d="M636.6,427.8c-5.5,3.2-11.1,6.4-16.6,9.6"/>
	</g>
	<g id="SPLINE_105_">
		<path class="st1" d="M620,437.4c38.2,22.1,76.5,44.1,114.7,66.2"/>
	</g>
	<g id="SPLINE_101_">
		<path class="st1" d="M734.6,503.6c5.5-3.2,11.1-6.4,16.6-9.6"/>
	</g>
	<g id="SPLINE_96_">
		<path class="st1" d="M636.6,432c-4.3,2.5-8.6,5-12.9,7.5"/>
	</g>
	<g id="SPLINE_91_">
		<path class="st1" d="M747.6,496.1c-37-21.4-74-42.7-111-64.1"/>
	</g>
	<g id="SPLINE_89_">
		<path class="st1" d="M931.5,440.1c0,1.4,0,2.8,0,4.3"/>
	</g>
	<g id="SPLINE_88_">
		<path class="st1" d="M729.9,556.5c0,1.4,0,2.8,0,4.3"/>
	</g>
	<g id="SPLINE_87_">
		<path class="st1" d="M528.3,440.1c0,1.4,0,2.8,0,4.3"/>
	</g>
	<g id="SPLINE_86_">
		<path class="st1" d="M636.6,432c0-1.4,0-2.8,0-4.3"/>
	</g>
	<g id="SPLINE_85_">
		<path class="st1" d="M799.1,443.5c0.8-3.3,3.5-6.3,7.4-8.5c10.8-6.3,26.2-6.3,37,0c3.9,2.3,6.6,5.2,7.4,8.5"/>
	</g>
	<g id="SPLINE_84_">
		<ellipse class="st1" cx="825" cy="441.4" rx="26.2" ry="15.1"/>
	</g>
	<g id="SPLINE_83_">
		<path class="st1" d="M701.5,387.2c0.8-3.3,3.5-6.3,7.4-8.5c10.8-6.3,26.2-6.3,37,0c3.9,2.3,6.6,5.2,7.4,8.5"/>
	</g>
	<g id="SPLINE_82_">
		<ellipse class="st1" cx="727.4" cy="385.1" rx="26.2" ry="15.1"/>
	</g>
	<g id="SPLINE_81_">
		<path class="st1" d="M667.1,449.7c-4.3,2.5-8.6,5-12.9,7.5"/>
	</g>
	<g id="SPLINE_80_">
		<path class="st1" d="M674.4,573.6c0,10.7,0,21.4,0,32"/>
	</g>
	<g id="SPLINE_79_">
		<path class="st1" d="M535.7,440.1c64.7,37.4,129.5,74.8,194.2,112.1"/>
	</g>
	<g id="SPLINE_78_">
		<path class="st1" d="M924.1,440.1c-64.7-37.4-129.5-74.8-194.2-112.1"/>
	</g>
	<g id="SPLINE_77_">
		<path class="st1" d="M729.9,374.3c0,8.6,0,17.2,0,25.8"/>
	</g>
	<g id="SPLINE_76_">
		<path class="st1" d="M729.9,328c-64.7,37.4-129.5,74.8-194.2,112.1"/>
	</g>
	<g id="SPLINE_75_">
		<path class="st1" d="M729.9,552.2c64.7-37.4,129.5-74.8,194.2-112.1"/>
	</g>
	<g id="SPLINE_74_">
		<path class="st1" d="M528.3,529.8c1.2,0.7,2.5,1.4,3.7,2.1"/>
	</g>
	<g id="SPLINE_59_">
		<path class="st1" d="M532,532c46.2,26.7,92.5,53.4,138.7,80.1"/>
	</g>
	<g id="SPLINE_58_">
		<path class="st1" d="M670.7,612.1c1.2-0.7,2.5-1.4,3.7-2.1"/>
	</g>
	<g id="SPLINE_57_">
		<path class="st1" d="M674.4,609.9c8,4.6,16,9.3,24,13.9"/>
	</g>
	<g id="SPLINE_56_">
		<path class="st1" d="M698.5,628.1c9.2,5.3,18.5,10.7,27.7,16"/>
	</g>
	<g id="SPLINE_55_">
		<path class="st1" d="M726.2,644.1c1.2,0.7,2.5,1.4,3.7,2.1"/>
	</g>
	<g id="SPLINE_53_">
		<path class="st1" d="M729.9,646.2c1.2-0.7,2.5-1.4,3.7-2.1"/>
	</g>
	<g id="SPLINE_52_">
		<path class="st1" d="M733.6,644.1c64.7-37.4,129.5-74.8,194.2-112.1"/>
	</g>
	<g id="SPLINE_51_">
		<path class="st1" d="M927.8,532c1.2-0.7,2.5-1.4,3.7-2.1"/>
	</g>
	<g id="SPLINE_50_">
		<path class="st1" d="M698.5,628.1c0-1.4,0-2.8,0-4.3"/>
	</g>
	<g id="SPLINE_49_">
		<path class="st1" d="M698.5,623.8c0-12.1,0-24.2,0-36.3"/>
	</g>
	<g id="SPLINE_48_">
		<path class="st1" d="M698.5,587.5c-9.2-5.3-18.5-10.7-27.7-16"/>
	</g>
	<g id="SPLINE_47_">
		<path class="st1" d="M670.7,571.5c0,12.1,0,24.2,0,36.3"/>
	</g>
	<g id="SPLINE_46_">
		<path class="st1" d="M670.7,607.8c0,1.4,0,2.8,0,4.3"/>
	</g>
	<g id="SPLINE_45_">
		<path class="st1" d="M528.3,529.8c0-1.4,0-2.8,0-4.3"/>
	</g>
	<g id="SPLINE_34_">
		<path class="st1" d="M528.3,525.5c0-27.1,0-54.1,0-81.2"/>
	</g>
	<g id="SPLINE_29_">
		<path class="st1" d="M729.9,560.8c0,27.1,0,54.1,0,81.2"/>
	</g>
	<g id="SPLINE_28_">
		<path class="st1" d="M729.9,642c0,1.4,0,2.8,0,4.3"/>
	</g>
	<g id="SPLINE_27_">
		<path class="st1" d="M931.5,529.8c0-1.4,0-2.8,0-4.3"/>
	</g>
	<g id="SPLINE_26_">
		<path class="st1" d="M931.5,525.5c0-27.1,0-54.1,0-81.2"/>
	</g>
	<g id="SPLINE_20_">
		<path class="st1" d="M674.4,609.9c0-1.4,0-2.8,0-4.3"/>
	</g>
</g>
<g id="SPLINE_139_">
	<path class="st1" d="M826.8,169.3c0,0.3-0.1,0.6-0.3,0.9"/>
</g>
<g id="SPLINE_138_">
	<path class="st1" d="M811.4,140.8c0,0.2,0.1,0.3,0.2,0.4c0.1,0.1,0.3,0.2,0.4,0.4c0.2,0.2,0.7,0.3,1,0.2c0.7-0.2,1.4-0.3,2.1-0.5
		c0.2,0,0.3-0.1,0.5-0.1c0.1,0,0.2,0,0.2-0.1c0.2,0,0.4-0.1,0.5-0.1c0.6-0.1,1.2-0.3,1.8-0.4c0.2,0,0.3-0.1,0.5-0.1
		c0.4-0.1,0.8-0.2,1.2-0.3c0.2,0,0.4-0.1,0.5-0.1c0.3-0.1,0.6-0.1,0.9-0.2c0.2,0,0.3-0.1,0.5-0.1c0.7-0.2,1.5-0.3,2.2-0.5
		c0.1,0,0.3-0.1,0.4-0.1c0,0,0.1,0,0.1,0c0.1,0,0.2-0.1,0.4-0.1c0.9-0.2,1.8-0.4,2.6-0.6c0.2,0,0.3-0.1,0.5-0.1c0,0,0,0,0.1,0
		c0.2,0,0.4-0.1,0.5-0.1c0.7-0.1,1.4-0.3,2-0.4c0.2,0,0.3-0.1,0.5-0.1c0.4-0.1,0.7-0.1,1.1-0.2c0.2,0,0.4-0.1,0.6-0.1
		c0.3-0.1,0.7-0.1,1-0.2c0.2,0,0.3-0.1,0.5-0.1c0.7-0.1,1.4-0.3,2.1-0.4c0.2,0,0.4-0.1,0.6-0.1c0,0,0,0,0,0c0.2,0,0.3-0.1,0.5-0.1
		c1-0.2,2.1-0.4,3.1-0.7c0.2,0,0.4-0.1,0.6-0.1c0.9-0.2,1.8-0.4,2.8-0.6c0,0,0.1,0,0.1,0"/>
</g>
<g id="SPLINE_137_">
	<path class="st1" d="M814.5,122.1c-0.1,0.1-0.2,0.2-0.3,0.3c-0.5,0.5-1,1-1.4,1.5c-0.1,0.1-0.2,0.2-0.3,0.3
		c-0.4,0.4-0.7,0.7-1.1,1.1c-0.2,0.2-0.2,0.5,0.1,0.7c0.1,0.1,0.3,0.2,0.4,0.4c0.2,0.2,0.7,0.3,1,0.2c0.7-0.2,1.4-0.3,2.1-0.5
		c0.2,0,0.3-0.1,0.5-0.1c0.1,0,0.2,0,0.2-0.1c0.2,0,0.4-0.1,0.5-0.1c0.6-0.1,1.2-0.3,1.8-0.4c0.2,0,0.3-0.1,0.5-0.1
		c0.4-0.1,0.8-0.2,1.2-0.3c0.2,0,0.4-0.1,0.5-0.1c0.3-0.1,0.6-0.1,0.9-0.2c0.2,0,0.3-0.1,0.5-0.1c0.7-0.2,1.5-0.3,2.2-0.5
		c0.1,0,0.3-0.1,0.4-0.1c0,0,0.1,0,0.1,0c0.1,0,0.2-0.1,0.4-0.1c0.9-0.2,1.8-0.4,2.6-0.6c0.2,0,0.3-0.1,0.5-0.1c0,0,0,0,0.1,0
		c0.2,0,0.4-0.1,0.5-0.1c0.7-0.1,1.4-0.3,2-0.4c0.2,0,0.3-0.1,0.5-0.1c0.4-0.1,0.7-0.1,1.1-0.2c0.2,0,0.4-0.1,0.6-0.1
		c0.3-0.1,0.7-0.1,1-0.2c0.2,0,0.3-0.1,0.5-0.1c0.7-0.1,1.4-0.3,2.1-0.4c0.2,0,0.4-0.1,0.6-0.1c0,0,0,0,0,0c0.2,0,0.3-0.1,0.5-0.1
		c1-0.2,2.1-0.4,3.1-0.7c0.2,0,0.4-0.1,0.6-0.1c0.9-0.2,1.8-0.4,2.8-0.6c0,0,0.1,0,0.1,0"/>
</g>
<g id="SPLINE_136_">
	<path class="st1" d="M843.8,135.2c3.2,0.4,4.8,0,6.2-0.7c2.8-1.4,4.7-3.9,4.7-6.8"/>
</g>
<g id="SPLINE_135_">
	<path class="st1" d="M843.8,119.9c3.2,0.4,4.8,0,6.2-0.7c4.8-2.4,7-8.1,1.3-13.3c-5.4-5-14.2-5.5-19-3.1c-1.1,0.5-1.9,1.3-2.5,2.1"
		/>
</g>
<g id="SPLINE_134_">
	<line class="st1" x1="829.7" y1="104.9" x2="829.7" y2="104.9"/>
</g>
<g id="SPLINE_133_">
	<path class="st1" d="M829.7,104.9c-0.2,0.4-0.3,1-0.3,1.5c0,0.1,0,0.1,0,0.2"/>
</g>
<g id="SPLINE_132_">
	<path class="st1" d="M829.5,106.5c-0.1,0-0.1,0.1-0.2,0.1c-0.1,0.1-0.1,0.1-0.2,0.2c-0.2,0.2-0.4,0.4-0.5,0.6
		c-0.7,0.7-1.3,1.4-2,2.1c-0.1,0.1-0.2,0.2-0.3,0.3c-0.1,0.1-0.1,0.2-0.2,0.2c-0.2,0.2-0.3,0.3-0.5,0.5c-0.3,0.3-0.7,0.7-1,1
		c-0.1,0.1-0.2,0.2-0.3,0.3c-0.4,0.4-0.8,0.8-1.1,1.2c-0.2,0.2-0.3,0.3-0.5,0.5c0,0-0.1,0.1-0.1,0.1c-0.1,0.1-0.2,0.2-0.3,0.3
		c-0.6,0.6-1.1,1.2-1.7,1.8c-0.1,0.1-0.2,0.2-0.3,0.3c0,0,0,0,0,0c-0.1,0.2-0.3,0.3-0.4,0.5c-0.4,0.4-0.8,0.8-1.2,1.3
		c-0.1,0.1-0.2,0.2-0.3,0.3c-0.3,0.3-0.6,0.6-0.9,0.9c-0.1,0.2-0.3,0.3-0.4,0.5c-0.1,0.1-0.3,0.3-0.4,0.4c-0.1,0.1-0.2,0.2-0.3,0.3
		c-0.5,0.6-1.1,1.1-1.6,1.7c0,0,0,0-0.1,0.1c0,0-0.1,0.1-0.1,0.1c-0.1,0.1-0.1,0.1-0.2,0.2"/>
</g>
<g id="SPLINE_107_">
	<path class="st1" d="M835.4,176.9c1.1-2.9,1.8-6,2.4-9.3c0.6-3.5,0.8-7.2,0.9-11c0.1-4.1-0.2-8.4-0.6-12.8
		c-0.2-2.4-0.5-4.8-0.9-7.2"/>
</g>
<g id="SPLINE_106_">
	<path class="st1" d="M832.3,137.6c-0.4,2.1-0.8,4.2-1.3,6.2c-0.4,2-0.9,3.9-1.4,5.8c-0.5,1.7-0.9,3.5-1.3,5.2
		c-0.4,1.6-0.8,3.2-1,4.8c-0.3,1.5-0.5,3.1-0.6,4.7c-0.1,1.6-0.1,3.2,0.1,4.9"/>
</g>
<g id="SPLINE_104_">
	<path class="st1" d="M811.4,140.8c0-5.1,0-10.1,0-15.2"/>
</g>
<g id="SPLINE_103_">
	<path class="st1" d="M854.6,112.5c0,5.1,0,10.2,0,15.2"/>
</g>
<g id="SPLINE_102_">
	<path class="st1" d="M829.4,106.6c0-0.1,0-0.3,0-0.4"/>
</g>
<g>
	<g id="SPLINE_130_">
		<path class="st1" d="M737.2,66.1c1.9-2,3-4.3,3-6.8"/>
	</g>
	<g id="SPLINE_129_">
		<path class="st1" d="M704.5,59.3c0,4.3,3,7.9,8,10.2c8.7,4,18.9,2.6,24.7-3.4"/>
	</g>
	<g id="SPLINE_128_">
		<ellipse class="st1" cx="722.3" cy="45.6" rx="17.8" ry="12.2"/>
	</g>
	<g id="SPLINE_100_">
		<path class="st1" d="M731.9,107.8c0.2-1.5,0.2-3.1,0.1-4.7c-0.1-1.7-0.3-3.5-0.6-5.3c-0.3-1.9-0.7-3.9-1.1-5.8
			c-0.4-2.1-0.9-4.3-1.3-6.4c-0.5-2.4-1-4.7-1.4-7.1c-0.5-2.4-0.9-4.7-1.2-7.1"/>
	</g>
	<g id="SPLINE_99_">
		<path class="st1" d="M704.5,59.3c0-4.6,0-9.1,0-13.7"/>
	</g>
	<g id="SPLINE_98_">
		<path class="st1" d="M740.2,45.7c0,4.5,0,9.1,0,13.6"/>
	</g>
	<g id="SPLINE_97_">
		<path class="st1" d="M721.5,95c0.3-0.9,0.6-1.8,0.8-2.7c0.2-0.8,0.4-1.6,0.6-2.4c0.1-0.7,0.2-1.4,0.3-2.1c0.1-0.6,0.1-1.2,0.1-1.8
			c0-0.5,0-1.1-0.1-1.6c0-0.5-0.1-0.9-0.2-1.4c-0.1-0.4-0.2-0.7-0.3-1c0-0.1,0-0.1-0.1-0.2c-0.1-0.4-0.3-0.7-0.5-1.1
			c-0.2-0.3-0.4-0.7-0.6-1c-0.2-0.3-0.4-0.6-0.7-0.9c-0.5-0.6-1.1-1.2-1.7-1.8c-0.6-0.6-1.3-1.2-1.9-1.8c-0.7-0.6-1.4-1.3-2-1.9
			c-0.7-0.7-1.3-1.4-1.9-2.2c-0.4-0.5-0.7-1-1-1.5"/>
	</g>
</g>
<g>
	<g>
		<path class="st1" d="M412.3,666.9c5.7-4.7,5.3-10.8,3.3-16.8c-1.1-3.4-1.3-7.9-6.4-8.5c-5,8-4.1,16.9,2.6,25.3
			c-6,5.7-15.6,5.4-21.5-0.6c-5.5-5.7-4.4-18.3,2.3-24.4c6.5,5.8,6.6,16.6,0.2,25"/>
		<path class="st1" d="M351.6,658.8c8.3-3.1,11.6-16.9,8.2-23.6c-8.6,2.8-12.8,13.1-9.7,23.5c-7.6,2.8-14,0-17.8-8.2
			c6.7-1.9,10.4-6.6,12.4-13.1c1-3.3,2-6.4,0.4-9.7c-10,3.3-15.7,13.3-13.1,22c-8.3,1.3-13.7-2.4-17.4-11.9"/>
		<path class="st1" d="M414.3,667c5.9,3.1,11.7,2.3,16.6-2.2c4.4-4.1,6.1-10.7,3.3-16.8c-1.9-4.1-3.6-8.8-8.8-10.3
			c-4.1,9-1.7,18.2,6.2,24.1"/>
		<path class="st1" d="M315.1,638.4c10.1-2.4,17.1-11.1,16-19.7c-8-1.4-16.4,7.8-17,18.7"/>
		<path class="st1" d="M299.8,623.6c10.8,0.2,16.3-6.4,19.8-15.5c-2.6-2.4-6.1-2.3-10.6,0.4c-6.9,4.2-10.8,11.4-9.4,17.5
			c1.5,6.8,7.4,11.4,14.9,11.8"/>
		<path class="st1" d="M390.7,668.3c-7.1,3.9-12.8,3.5-20-3.2c4.3-2,6.5-5.7,7.6-10c1.3-5.1,0.5-11.3-1.7-15.1
			c-8.1,4.1-10.8,14.1-6.6,25.6c-7.5,2.1-13.7,0.3-18.9-5.4"/>
		<path class="st1" d="M277.6,589c-1.4,8.5,3,15.4,10.1,17.5c2.3,0.7,5.3,1.2,7.4,0.3c6.7-2.6,12.2-7,14.3-13.1
			c-6.5-3.8-17.3,0.8-21,8.9c-3.7,8.2,0.6,16.6,10.5,20.6"/>
		<path class="st1" d="M452.4,655.5c-4.7,7.1-11.9,9.2-19.4,7"/>
		<path class="st1" d="M271.6,569.1c-2.8,7-1.1,12.3,6,18.8"/>
	</g>
	<path class="st1" d="M485.6,632.1c-8.1-2.4-13-8-15.4-15.9c-0.4-1.5,0-4.4,0.8-4.8c1.5-0.7,4.1-0.6,5.5,0.4
		c5.5,3.7,9.1,8.9,9.7,15.7c0.6,6.2-2.3,11.4-7.9,14.1c-2.1,1-4.4,1.7-7.1,2.7c1.2-7.9-2.2-13.4-8-17.8c-2.4-1.8-4.3-4.7-8-3
		c-0.9,9.7,4.2,16.5,15.3,20.6c-1.5,7.4-7.4,11.1-17.3,10.7"/>
	<path class="st1" d="M550.6,613.4c-6.2,3.9-12.3,3.6-17.6-1.3c-6-5.4-7.5-12.4-5.3-20c0.5-1.8,2.5-3.2,3.8-5
		c7.3,7.7,8.2,18.4,2.8,25.6c-4.6,6.2-9.4,7.2-16.7,3.4c3.6-7,2.2-13.8-1.7-20.2c-1.1-1.8-3.2-3-4.8-4.5c-6.3,7.7-3.5,18,5.8,25
		c-3.7,6.4-9.7,8.6-16.7,6.1c-8.4-3-13.5-12.2-11.6-22.6c1.9,0.4,4.3,0.2,5.5,1.4c6,5.3,8.7,12.2,7.4,20.2c-1,6.4-6.1,9.8-15.2,10.9
		"/>
	<path class="st1" d="M453.8,654.4c2-10.5-3-20-11.9-22.5c-3.5,7.5,1,17.2,10.6,23.1"/>
	<g>
		<g id="SPLINE">
			<path class="st2" d="M251.6,335.3c0.5,0.2,1,0.4,1.5,0.6c3.9,1.7,7.4,3.5,10.5,5.6c3.1,2,5.9,4.3,8.1,6.6
				c2.3,2.3,4.1,4.7,5.6,7.1c1.4,2.4,2.4,4.9,3,7.3c0.3,1.3,0.5,2.6,0.6,4c0.1,1.4,0.1,2.8-0.1,4.1c-0.1,1.3-0.4,2.6-0.7,3.9
				c-0.4,1.3-0.8,2.6-1.4,3.9c-0.6,1.3-1.3,2.6-2.1,3.9c-0.8,1.2-1.6,2.3-2.5,3.4c-1.1,1.3-2.2,2.5-3.4,3.6
				c-1.2,1.1-2.4,2.1-3.6,3.1c-1.3,1-2.7,2-4.1,2.9c-1.7,1.1-3.4,2-5.1,2.9c-3.5,1.8-7.1,3.3-10.8,4.6c-4,1.4-8.1,2.5-12.3,3.4
				c-4.5,0.9-9.1,1.6-13.6,2c-4.7,0.4-9.4,0.5-14.1,0.3c-4.5-0.2-9-0.6-13.4-1.2c-4.2-0.6-8.5-1.5-12.6-2.7c-4-1.1-7.9-2.4-11.7-4.1
				c-1.7-0.7-3.4-1.5-5-2.4c-1.7-0.9-3.4-1.9-5.1-2.9c-1.4-0.9-2.7-1.8-4.1-2.9c-1.4-1.1-2.7-2.2-3.9-3.4c-1.1-1.1-2.2-2.3-3.2-3.5
				c-0.9-1.1-1.8-2.3-2.6-3.6c-0.8-1.3-1.5-2.6-2.1-4c-0.5-1.3-1-2.6-1.3-3.9c-0.6-2.4-0.8-4.9-0.6-7.5c0.2-2.5,0.8-5.1,1.9-7.7
				c1.1-2.6,2.6-5.1,4.6-7.6c2-2.5,4.5-4.9,7.3-7.1c2.9-2.2,6.1-4.3,9.7-6.1c1.8-0.9,3.8-1.8,5.8-2.6"/>
		</g>
		<g id="SPLINE_19_">
			<ellipse class="st2" cx="211.2" cy="365.1" rx="65.5" ry="37.8"/>
		</g>
		<g id="SPLINE_18_">
			<path class="st2" d="M252.6,471.5c0.4,1.7,0.9,3.3,1.4,5c0.7,2,1.4,3.9,2.1,5.7c0.8,1.8,1.6,3.4,2.4,4.8c0.3,0.6,0.7,1.1,1,1.7
				c0.2,0.3,0.4,0.6,0.6,0.9c0.2,0.3,0.4,0.6,0.6,0.9c0.4,0.6,0.9,1.2,1.3,1.8c0.5,0.6,1,1.2,1.5,1.8c0.7,0.8,1.3,1.5,2,2.3
				c1.3,1.5,2.9,3.2,4.8,5.4c1,1.1,2,2.4,3,3.6c1.1,1.4,2.2,2.9,3.3,4.4c1.4,2,2.8,4.1,4,6.2c1.6,2.8,3,5.6,4.3,8.5
				c1.2,2.9,2.2,5.8,3.1,8.8c0.2,0.7,0.4,1.5,0.6,2.2"/>
		</g>
		<g id="SPLINE_17_">
			<path class="st2" d="M288.7,535.3c1,4,1.7,8.1,2,12.2c0.3,3.5,0.3,7.1,0,10.7c-0.1,1.8-0.3,3.7-0.6,5.5
				c-0.8,5.3-2.2,10.4-4.3,15.4c-0.3,0.8-0.7,1.6-1.1,2.4c-2.2,4.8-5,9.3-8.4,13.5c-1.6,1.9-3.2,3.8-5,5.5c-2.1,2-4.2,3.9-6.5,5.7
				c-3.8,2.9-7.8,5.4-12.1,7.6c-3.8,1.9-7.8,3.6-11.8,4.9c-1.5,0.5-3,1-4.6,1.4c-2.2,0.6-4.4,1.1-6.7,1.6c-3.5,0.7-7,1.2-10.5,1.4"
				/>
		</g>
		<g id="SPLINE_16_">
			<path class="st2" d="M266.5,392.7c-0.1,0.1-0.2,0.2-0.5,0.5c-0.4,0.4-1.1,1.2-2,2.2c-0.8,1-1.7,2.2-2.6,3.7
				c-0.9,1.4-1.8,2.9-2.7,4.7c-0.8,1.6-1.6,3.3-2.3,5c-1.1,2.7-2.1,5.6-3,8.6c-1,3.5-1.8,7.2-2.4,11c-0.5,3.2-0.9,6.5-1.1,9.7
				c-0.4,5.6-0.4,11.3,0.1,16.9c0.2,2.7,0.5,5.4,0.9,8.1c0.4,2.9,1,5.8,1.7,8.6"/>
		</g>
		<g id="SPLINE_15_">
			<path class="st2" d="M219.4,622.9c-3.5,0.3-7,0.4-10.4,0.3c-3.7-0.1-7.4-0.4-11.1-0.9c-3.9-0.5-7.8-1.3-11.6-2.4
				c-0.1,0-0.2,0-0.2-0.1c-4-1.1-8-2.5-11.8-4.1c-4.2-1.8-8.3-4-12.1-6.5c-4-2.6-7.7-5.6-11.1-8.9c-0.2-0.2-0.3-0.3-0.5-0.5
				c-3.9-3.9-7.2-8.3-10-13.1c-1-1.8-2-3.6-2.8-5.4c-1.7-3.7-3.1-7.6-4.1-11.6"/>
		</g>
		<g id="SPLINE_14_">
			<path class="st2" d="M169.9,420.5c-0.8-3.3-1.8-6.4-2.9-9.3c-1-2.7-2.1-5.2-3.3-7.4c-0.5-0.9-1-1.9-1.5-2.8c-1.2-2-2.3-3.7-3.3-5
				c-0.9-1.2-1.7-2-2.2-2.5c-0.2-0.2-0.5-0.4-0.7-0.7"/>
		</g>
		<g id="SPLINE_13_">
			<path class="st2" d="M133.6,569.7c-0.5-2-0.9-4.1-1.2-6.1c-0.8-5.1-1-10.4-0.6-15.6c0-0.2,0-0.4,0-0.6c0.4-4.9,1.2-9.7,2.6-14.4
				c0.8-2.8,1.7-5.5,2.8-8.1c1.2-2.9,2.6-5.7,4.1-8.4c1.4-2.4,2.8-4.7,4.4-6.9c1.1-1.6,2.3-3.1,3.6-4.7c0.9-1.1,1.8-2.2,2.8-3.3
				c1.9-2.2,3.5-3.9,4.8-5.4c1.4-1.5,2.4-2.7,3.3-3.8c1-1.2,1.9-2.5,2.7-3.8c0.6-1,1.2-2,1.8-3.1c0.7-1.3,1.4-2.7,2-4.3
				c0.6-1.5,1.2-3.1,1.7-4.7c0.2-0.7,0.5-1.5,0.7-2.3c0.3-0.9,0.5-1.8,0.7-2.7c0.4-1.8,0.8-3.6,1.2-5.4c0.3-1.8,0.6-3.5,0.8-5.3
				c0.3-2,0.5-4,0.6-6c0-0.3,0-0.6,0.1-0.9c0.6-8.6,0.2-17.4-1.1-25.7c-0.4-2.6-1-5.2-1.6-7.8"/>
		</g>
		<g id="SPLINE_12_">
			<path class="st2" d="M170.9,335.3c0.8-0.3,1.6-0.6,2.3-1"/>
		</g>
		<g id="SPLINE_11_">
			<path class="st2" d="M249.1,334.3c0.8,0.3,1.6,0.7,2.5,1"/>
		</g>
	</g>
	<g>
		<g id="SPLINE_149_">
			<path class="st3" d="M653.9,618.6c-6.2-3.6-12.3-7.1-18.5-10.7"/>
		</g>
		<g>
			<g id="SPLINE_150_">
				<path class="st3" d="M635.4,608c-8.6,5-17.2,10-25.9,14.9"/>
			</g>
			<g id="SPLINE_148_">
				<path class="st3" d="M628,633.6c8.6-5,17.2-10,25.9-14.9"/>
			</g>
			<g id="SPLINE_147_">
				<path class="st3" d="M653.9,640c0-7.1,0-14.2,0-21.3"/>
			</g>
			<g id="SPLINE_146_">
				<path class="st3" d="M628,654.9c8.6-5,17.2-10,25.9-14.9"/>
			</g>
			<g id="SPLINE_145_">
				<path class="st3" d="M609.5,644.2c0-7.1,0-14.2,0-21.3"/>
			</g>
			<g id="SPLINE_144_">
				<path class="st3" d="M609.5,622.9c6.2,3.6,12.3,7.1,18.5,10.7"/>
			</g>
			<g id="SPLINE_143_">
				<path class="st3" d="M628,654.9c0-7.1,0-14.2,0-21.3"/>
			</g>
			<g id="SPLINE_142_">
				<path class="st3" d="M609.5,644.2c6.2,3.6,12.3,7.1,18.5,10.7"/>
			</g>
		</g>
	</g>
	<path class="st4" d="M550.4,613.4c10.9,4.8,19.6,13.5,29.9,19.6c12.3,7.3,24,6.4,38.2,5.3"/>
</g>
<g>
	<g>
		<g id="SPLINE_161_">
			<path class="st1" d="M253.2,229c0,0-0.5-0.1-0.5-0.1c-0.3-0.1-0.8-0.1-1.2-0.2c-1.1-0.2-2.3-0.4-3.4-0.6c-0.2,0-0.4-0.1-0.5-0.1
				c-0.2,0-0.3-0.1-0.5-0.1c-2.1-0.4-4.3-0.8-6.4-1.3c-0.3-0.1-0.6-0.1-1-0.2c-2-0.4-4.1-0.9-6.1-1.4c-2-0.5-4-1-5.9-1.6
				c-0.6-0.2-1.2-0.3-1.7-0.5c-2.7-0.8-5.4-1.6-8.1-2.5c-2-0.7-4-1.4-5.9-2.1c-0.8-0.3-1.6-0.6-2.4-0.9c-2.8-1.1-5.7-2.2-8.4-3.5
				c-2.8-1.2-5.6-2.6-8.4-4c-2.8-1.4-5.5-2.9-8.2-4.4c-2.7-1.5-5.3-3.2-7.9-4.9c-0.7-0.5-1.5-1-2.2-1.5c-1.8-1.2-3.5-2.5-5.2-3.8
				c-2.3-1.8-4.6-3.7-6.8-5.6c-2.1-1.9-4.2-3.9-6.2-5.9c-1.9-2-3.7-4-5.4-6.1c-1.7-2-3.2-4.1-4.7-6.2c-0.7-1-1.4-2.1-2.1-3.2
				c-0.6-1-1.2-2-1.8-3.1"/>
		</g>
		<g id="SPLINE_160_">
			<path class="st1" d="M142.1,165.3C142.1,165.3,142.1,165.3,142.1,165.3c-0.6-1.1-1.2-2.2-1.7-3.2c-0.5-1-1-2.1-1.5-3.1
				c-0.5-1-0.9-2.1-1.3-3.1c-0.4-1-0.8-2.1-1.1-3.1c-0.3-1-0.7-2.1-1-3.1c-0.3-1-0.5-2.1-0.8-3.1c-0.5-2-0.8-4.1-1.1-6.1
				c-0.2-2-0.4-4-0.4-6c0-1.9,0-3.9,0.2-5.8c0.1-1.9,0.4-3.7,0.7-5.6c0.3-1.8,0.7-3.6,1.2-5.3c0.5-1.7,1-3.4,1.6-5
				c0.6-1.6,1.3-3.2,2-4.7c0.7-1.5,1.5-3,2.3-4.4c0.8-1.4,1.7-2.8,2.6-4.1c0.9-1.3,1.8-2.6,2.8-3.8c1.9-2.4,3.9-4.6,6.1-6.7
				c0.9-0.8,1.7-1.6,2.7-2.4c1.2-1.1,2.5-2.1,3.9-3.1c2-1.5,4.1-2.9,6.3-4.1c0.2-0.1,0.3-0.2,0.5-0.3c2.2-1.2,4.5-2.4,6.9-3.3
				c0.1,0,0.1,0,0.2-0.1c1.1-0.4,2.2-0.9,3.3-1.2c1-0.4,2-0.7,3-1c0.1,0,0.2-0.1,0.4-0.1c0.8-0.2,1.6-0.5,2.5-0.7
				c0.5-0.1,1-0.2,1.4-0.3c0.4-0.1,0.7-0.2,1.1-0.2c0,0,0.4-0.1,0.4-0.1c0,0,0.1,0,0.1,0c0.1,0,0.3-0.1,0.4-0.1
				c0.1,0,0.3-0.1,0.4-0.1c0.1,0,0.3-0.1,0.4-0.1c0.3-0.1,0.5-0.1,0.8-0.2c0.3-0.1,0.5-0.1,0.8-0.2c0.3-0.1,0.5-0.1,0.8-0.2
				c0.3-0.1,0.5-0.1,0.8-0.2c0.1,0,0.3-0.1,0.4-0.1c0.1,0,0.3-0.1,0.4-0.1c0.1,0,0.3-0.1,0.4-0.1c0.1,0,0.2,0,0.2,0
				c0.1,0,0.1,0,0.1,0"/>
		</g>
		<g id="SPLINE_159_">
			<path class="st1" d="M287,190.8c-0.1,0.1-0.2,0.1-0.3,0.2c-0.1,0.1-0.2,0.1-0.4,0.2c-0.2,0.1-0.3,0.2-0.5,0.3
				c-0.3,0.2-0.6,0.4-0.9,0.6c0,0-0.1,0-0.1,0.1c0,0-0.1,0.1-0.1,0.1c-0.3,0.2-0.5,0.4-0.8,0.6c-0.2,0.1-0.3,0.3-0.5,0.4
				c-0.2,0.1-0.3,0.3-0.5,0.4c0,0-0.1,0.1-0.1,0.1c-0.1,0.1-0.1,0.1-0.2,0.2c-0.1,0.1-0.2,0.2-0.3,0.3c-0.2,0.2-0.4,0.4-0.6,0.6
				c-0.2,0.2-0.3,0.4-0.5,0.6c-0.1,0.2-0.3,0.4-0.4,0.6c-0.3,0.4-0.5,0.8-0.7,1.3c-0.2,0.4-0.3,0.9-0.4,1.3
				c-0.1,0.4-0.1,0.9-0.1,1.3c0,0.4,0.1,0.9,0.2,1.3c0.1,0.2,0.1,0.4,0.2,0.6c0.1,0.2,0.2,0.4,0.2,0.6c0.1,0.2,0.2,0.4,0.3,0.6
				c0.1,0.1,0.1,0.2,0.2,0.3c0.1,0.1,0.1,0.2,0.2,0.3c0.1,0.1,0.2,0.3,0.3,0.4c0.1,0.1,0.1,0.2,0.2,0.2c0,0.1,0.1,0.1,0.1,0.2
				c0.2,0.3,0.4,0.6,0.6,0.9c0.2,0.3,0.4,0.6,0.6,0.9c0.2,0.3,0.4,0.6,0.6,0.9c0.4,0.6,0.9,1.1,1.3,1.7c0.4,0.5,0.8,1,1.1,1.5
				c0.1,0.1,0.1,0.2,0.2,0.2c0.5,0.6,0.9,1.1,1.4,1.7c0.5,0.6,0.9,1.1,1.4,1.6c0.2,0.3,0.5,0.5,0.7,0.8c0.2,0.3,0.5,0.5,0.7,0.8
				c0.2,0.3,0.5,0.5,0.7,0.8c0.1,0.1,0.2,0.3,0.4,0.4c0.1,0.1,0.1,0.2,0.2,0.2c0,0.1,0.1,0.1,0.1,0.2c0.1,0.1,0.2,0.2,0.3,0.3
				c0.1,0.1,0.2,0.2,0.3,0.3c0.2,0.2,0.4,0.4,0.5,0.7c0.2,0.2,0.3,0.5,0.5,0.7c0.1,0.2,0.3,0.5,0.4,0.7c0.2,0.3,0.3,0.7,0.5,1
				c0.1,0.2,0.1,0.3,0.2,0.5c0,0.1,0,0.1,0.1,0.2c0,0.1,0,0.1,0.1,0.2c0,0.1,0.1,0.3,0.1,0.4c0.1,0.3,0.1,0.5,0.1,0.8
				c0,0.5,0.1,0.9,0.1,1.4c0,0.8-0.1,1.5-0.3,2.2c0,0.2-0.1,0.4-0.2,0.7c-0.1,0.5-0.3,1-0.5,1.5c-0.1,0.3-0.3,0.6-0.4,0.9
				c-0.1,0.1-0.1,0.2-0.2,0.4c-0.3,0.5-0.5,1.1-0.8,1.6c-0.1,0.1-0.1,0.2-0.2,0.3c-0.3,0.6-0.7,1.2-1.1,1.8
				c-0.6,0.9-1.1,1.7-1.7,2.6c-0.1,0.1-0.2,0.3-0.3,0.4c0,0,0,0,0,0c-0.1,0.1-0.2,0.2-0.3,0.4c-0.9,1.3-1.9,2.6-2.9,3.9"/>
		</g>
		<g id="SPLINE_158_">
			<path class="st1" d="M274.1,123.9c1.7,0.1,3.5,0.3,5.2,0.6c0.3,0,0.5,0.1,0.8,0.1c2,0.3,3.9,0.7,5.8,1.2c1,0.3,2,0.5,2.9,0.9
				c1.1,0.4,2.2,0.8,3.3,1.2c0.6,0.3,1.3,0.6,1.9,0.9c0.2,0.1,0.3,0.2,0.5,0.3c0.2,0.1,0.3,0.2,0.5,0.3c0.3,0.2,0.6,0.4,0.9,0.5
				c0.6,0.4,1.1,0.8,1.7,1.2c0.8,0.6,1.5,1.3,2.2,2c0.6,0.6,1.1,1.3,1.5,2.1c0.1,0.2,0.2,0.3,0.3,0.5c0.1,0.2,0.2,0.3,0.2,0.5
				c0.1,0.3,0.3,0.7,0.4,1c0.1,0.3,0.2,0.7,0.2,1c0.1,0.3,0.1,0.7,0.1,1c0,0.7,0,1.3-0.2,2c0,0.1-0.1,0.3-0.1,0.4
				c-0.3,1.2-1,2.3-1.8,3.4c-0.5,0.6-1.1,1.2-1.7,1.8c-0.1,0.1-0.2,0.2-0.3,0.2c-0.6,0.5-1.3,1-1.9,1.4c-0.4,0.3-0.9,0.5-1.3,0.7
				c-0.5,0.2-0.9,0.5-1.4,0.7c-0.5,0.2-1,0.4-1.6,0.6c0,0,0,0,0,0c-0.3,0.1-0.6,0.2-0.8,0.3c-0.2,0.1-0.5,0.2-0.7,0.2
				c-0.3,0.1-0.3,0.1-0.3,0.1c0,0-0.1,0-0.1,0c0,0,0,0-0.1,0c-0.1,0-0.3,0.1-0.4,0.1c-0.1,0-0.3,0.1-0.4,0.1
				c-0.1,0.1-0.3,0.1-0.4,0.2c0,0-0.1,0-0.1,0c-0.3,0.1-0.6,0.2-0.8,0.3c-0.3,0.1-0.5,0.2-0.8,0.4c-0.1,0-0.1,0.1-0.2,0.1
				c-0.4,0.2-0.7,0.4-1.1,0.6c-0.2,0.1-0.4,0.2-0.6,0.3c-0.2,0.1-0.4,0.2-0.6,0.3c-0.2,0.1-0.4,0.2-0.6,0.4
				c-0.2,0.1-0.4,0.3-0.6,0.4c-0.1,0.1-0.2,0.1-0.3,0.2c-0.1,0.1-0.2,0.1-0.3,0.2c-0.1,0.1-0.2,0.1-0.3,0.2
				c-0.1,0.1-0.2,0.2-0.3,0.2c-0.1,0.1-0.1,0.1-0.1,0.1c0,0-0.1,0.1-0.1,0.1c0,0-0.1,0.1-0.1,0.1c0,0-0.1,0.1-0.1,0.1c0,0,0,0,0,0
				c0,0,0,0,0,0c0,0-0.1,0.1-0.1,0.1c0,0-0.1,0.1-0.1,0.2c-0.1,0.1-0.1,0.2-0.2,0.3c0,0.1-0.1,0.1-0.1,0.2c-0.1,0.2-0.1,0.4-0.2,0.6
				c0,0.2-0.1,0.5,0,0.7c0,0,0,0.1,0,0.1c0,0.3,0.1,0.6,0.2,0.8c0.1,0.1,0.1,0.3,0.2,0.4c0.1,0.1,0.1,0.2,0.2,0.4
				c0.1,0.1,0.2,0.2,0.3,0.3c0.1,0.1,0.2,0.2,0.3,0.3c0,0,0,0,0.1,0.1c0.1,0.1,0.2,0.1,0.3,0.2c0.1,0,0.1,0.1,0.2,0.1
				c0,0,0.1,0.1,0.2,0.1c0.1,0.1,0.2,0.1,0.4,0.2c0.1,0.1,0.3,0.2,0.4,0.2c0.1,0.1,0.2,0.1,0.3,0.2c0.2,0.1,0.3,0.2,0.5,0.3
				c0.2,0.1,0.5,0.3,0.8,0.4c0.3,0.1,0.5,0.3,0.8,0.4c0.3,0.1,0.6,0.3,0.9,0.4c0.2,0.1,0.4,0.2,0.6,0.3c0.5,0.2,1,0.4,1.5,0.7
				c0,0,0,0,0,0s0,0,0,0c0,0,0,0,0,0c0.1,0,0.2,0.1,0.4,0.1c0.1,0,0.2,0.1,0.4,0.1c0.3,0.1,0.5,0.2,0.8,0.3c0.5,0.2,1,0.4,1.5,0.5
				c0.2,0.1,0.4,0.1,0.7,0.2c0,0,0.1,0,0.1,0c0.2,0.1,0.5,0.2,0.7,0.2c0.3,0.1,0.5,0.2,0.8,0.2c0.1,0,0.3,0.1,0.4,0.1
				c0.1,0,0.2,0.1,0.5,0.1c0.2,0.1,0.4,0.1,0.6,0.2c0.2,0.1,0.5,0.1,0.7,0.2c0.4,0.1,0.9,0.3,1.3,0.5c0.4,0.2,0.8,0.3,1.3,0.5
				c0.4,0.2,0.8,0.4,1.2,0.6c0.7,0.4,1.4,0.8,2.1,1.3c0.6,0.4,1.2,0.9,1.8,1.4c1.1,1,1.9,2.1,2.4,3.2c0.3,0.5,0.4,1.1,0.6,1.7
				c0.1,0.3,0.1,0.6,0.1,0.9c0,0,0,0.1,0,0.1c0,0.2,0,0.5,0,0.7c0,0.3,0,0.6-0.1,0.9c0,0.3-0.1,0.6-0.2,0.9
				c-0.2,0.6-0.4,1.3-0.8,1.8c-0.4,0.7-0.9,1.4-1.4,2c-0.6,0.7-1.3,1.3-2,1.9c-0.9,0.7-1.9,1.4-3,2c-1.4,0.8-3,1.5-4.7,2.1
				c-0.2,0.1-0.5,0.2-0.7,0.3c-0.9,0.3-1.9,0.6-2.8,0.9c-1,0.3-1.9,0.5-2.9,0.7c-0.8,0.2-1.7,0.3-2.5,0.5c-1.2,0.2-2.4,0.4-3.6,0.5
				c-2.2,0.3-4.4,0.4-6.5,0.6c-2.3,0.1-4.6,0.1-6.9,0.1c-2.4,0-4.8-0.2-7.2-0.4c-0.1,0-0.3,0-0.4,0c-2.4-0.2-4.7-0.5-7-0.8
				c-2.5-0.4-5.1-0.8-7.6-1.3c-2.6-0.5-5.1-1.1-7.6-1.8c-2.5-0.7-5-1.4-7.5-2.2c-2.5-0.8-4.9-1.7-7.3-2.6c-1.2-0.5-2.4-0.9-3.6-1.4
				c-1.1-0.5-2.1-0.9-3.2-1.4c-0.1,0-0.2-0.1-0.3-0.1c-1.1-0.5-2.3-1.1-3.4-1.6c-1.1-0.5-2.2-1.1-3.3-1.7c-1.1-0.6-2.1-1.2-3.2-1.8
				c-1-0.6-2.1-1.2-3.1-1.8c-1-0.6-2-1.3-3-1.9c-1-0.6-1.9-1.3-2.9-2c-1.8-1.3-3.6-2.7-5.3-4.2c-1.7-1.4-3.3-2.9-4.8-4.4
				c-1.5-1.4-2.9-3-4.2-4.5c-1.3-1.5-2.5-3-3.7-4.6c-0.6-0.8-1.1-1.5-1.6-2.3c-0.5-0.8-1-1.6-1.5-2.3c-0.9-1.5-1.7-3.1-2.5-4.7
				c-0.7-1.5-1.4-3.1-1.9-4.7c0-0.1-0.1-0.2-0.1-0.2"/>
		</g>
		<g id="SPLINE_157_">
			<path class="st1" d="M267.4,92.9c0.2,0,0.4,0,0.5,0.1c0.6,0.1,1.2,0.2,1.8,0.3c0.6,0.1,1.1,0.2,1.7,0.3c1.1,0.2,2.2,0.5,3.2,0.7
				c0.1,0,0.2,0,0.3,0.1c0.9,0.3,1.8,0.6,2.6,0.9c0.5,0.2,1,0.5,1.6,0.7c0.5,0.3,1,0.6,1.5,0.9c0.1,0.1,0.2,0.1,0.3,0.2
				c0.4,0.3,0.8,0.6,1.2,1c0.2,0.2,0.3,0.3,0.5,0.5c0.1,0.2,0.3,0.3,0.4,0.5c0.1,0.2,0.3,0.3,0.4,0.5c0.1,0.2,0.2,0.4,0.3,0.5
				c0.2,0.4,0.3,0.7,0.5,1.1c0.2,0.8,0.3,1.5,0.2,2.3c-0.1,0.4-0.1,0.8-0.3,1.1c-0.1,0.4-0.3,0.8-0.5,1.1c-0.1,0.2-0.2,0.4-0.3,0.5
				c-0.1,0.2-0.3,0.3-0.4,0.5c-0.1,0.2-0.3,0.3-0.4,0.5c-0.1,0.1-0.2,0.2-0.2,0.2c-0.1,0.1-0.1,0.1-0.2,0.2
				c-0.1,0.1-0.2,0.2-0.3,0.3c0,0,0,0-0.1,0.1c-0.1,0.1-0.2,0.1-0.2,0.2c-0.2,0.2-0.4,0.4-0.6,0.6c-0.2,0.2-0.4,0.4-0.6,0.6
				c-0.2,0.2-0.4,0.4-0.6,0.6c-0.4,0.4-0.8,0.8-1.1,1.2c-0.1,0.1-0.3,0.3-0.4,0.4c-0.2,0.3-0.5,0.5-0.7,0.8
				c-0.4,0.4-0.7,0.8-1.1,1.3c-0.3,0.4-0.7,0.9-1,1.3c-0.1,0.1-0.1,0.2-0.2,0.2c-0.1,0.1-0.2,0.3-0.3,0.4c-0.2,0.2-0.3,0.4-0.5,0.7
				c-0.2,0.2-0.3,0.4-0.5,0.7c-0.1,0.1-0.1,0.2-0.2,0.3c-0.1,0.1-0.2,0.2-0.2,0.3c-0.1,0.1-0.1,0.2-0.1,0.2c0,0.1-0.1,0.2-0.1,0.2
				c-0.1,0.1-0.1,0.3-0.2,0.4c0,0,0,0.1,0,0.1c-0.1,0.2-0.1,0.3-0.2,0.5c0,0.2-0.1,0.4-0.1,0.5c0,0.1,0,0.2,0,0.3c0,0.3,0,0.6,0,0.8
				c0,0.2,0,0.3,0.1,0.5c0,0.2,0.1,0.4,0.2,0.6c0.1,0.2,0.1,0.4,0.2,0.5c0.1,0.2,0.2,0.3,0.3,0.5c0.1,0.1,0.2,0.3,0.3,0.4
				c0.1,0.2,0.3,0.3,0.4,0.5c0.1,0.1,0.1,0.1,0.2,0.2c0,0,0,0,0,0c0,0,0.1,0.1,0.1,0.1c0,0,0.1,0.1,0.1,0.1c0.1,0.1,0.2,0.1,0.3,0.2
				c0,0,0.1,0.1,0.1,0.1c0.1,0.1,0.2,0.1,0.3,0.2c0,0,0.1,0,0.1,0c0,0,0,0,0.1,0c0,0,0.1,0,0.2,0.1c0.1,0,0.2,0.1,0.2,0.1
				c0.1,0,0.2,0.1,0.2,0.1c0,0,0.1,0,0.1,0c0.1,0,0.2,0.1,0.2,0.1"/>
		</g>
		<g id="SPLINE_156_">
			<path class="st1" d="M202.3,255.7c0,0-0.5-0.3-0.6-0.4c-0.2-0.2-0.5-0.3-0.7-0.4c-0.2-0.1-0.3-0.2-0.5-0.3
				c-0.9-0.6-1.7-1.1-2.6-1.6c-0.1-0.1-0.2-0.1-0.3-0.2c-1-0.6-2.1-1.3-3.1-1.9c-0.3-0.2-0.6-0.4-0.9-0.5c-1.2-0.7-2.4-1.4-3.5-2.1
				c-0.4-0.2-0.8-0.5-1.1-0.7c-1.8-1.1-3.5-2.1-5.3-3.2c-1.9-1.2-3.8-2.4-5.8-3.6c-0.2-0.1-0.4-0.3-0.7-0.4
				c-1.8-1.2-3.7-2.4-5.5-3.6c-2.2-1.5-4.3-3-6.4-4.5c-2.2-1.6-4.4-3.3-6.6-5c-0.1-0.1-0.2-0.1-0.3-0.2c-2.1-1.7-4.2-3.4-6.3-5.2
				c-2.2-1.9-4.3-3.9-6.4-5.9c-2.1-2.1-4.1-4.2-6.1-6.4c-2-2.2-3.9-4.5-5.7-6.8c-1.8-2.3-3.5-4.7-5.1-7.2c-1.6-2.4-3-4.9-4.4-7.5
				c-1.3-2.5-2.5-5.1-3.6-7.7c-0.2-0.5-0.4-1-0.6-1.5c-0.8-2.1-1.5-4.2-2.2-6.4c-0.8-2.6-1.4-5.3-1.9-8c-0.5-2.6-0.8-5.3-1-7.9
				c-0.2-2.6-0.2-5.2-0.1-7.8c0-0.5,0-1,0.1-1.6c0.1-2,0.3-4.1,0.6-6.1c0.4-2.5,0.8-4.9,1.5-7.4c0.2-0.8,0.4-1.5,0.6-2.3
				c0.5-1.6,1-3.2,1.5-4.8c0.4-1.1,0.8-2.3,1.3-3.4c0.5-1.1,0.9-2.2,1.4-3.3c0.5-1.1,1-2.1,1.6-3.2c0.1-0.2,0.2-0.3,0.3-0.5
				c0.4-0.9,0.9-1.7,1.4-2.6c0.6-1,1.2-2,1.8-3c0.6-1,1.2-2,1.9-2.9c0.6-1,1.3-1.9,2-2.8c0.7-0.9,1.3-1.8,2-2.7
				c0.1-0.1,0.1-0.2,0.2-0.2c1.3-1.7,2.7-3.3,4.1-4.9c1.4-1.6,2.9-3.2,4.4-4.8c1.2-1.2,2.5-2.4,3.7-3.6c0.2-0.1,0.3-0.3,0.4-0.4
				c0.1-0.1,0.3-0.2,0.4-0.3c1.5-1.4,3-2.7,4.5-4c1.5-1.2,3-2.4,4.5-3.6c1.4-1.1,2.9-2.2,4.4-3.2c1.4-1,2.8-1.9,4.3-2.8
				c1.3-0.9,2.7-1.7,4.1-2.5c1.3-0.8,2.6-1.5,3.9-2.2c1.2-0.7,2.4-1.3,3.7-1.9c2.2-1.1,4.4-2.1,6.7-3c1.2-0.5,2.5-1,3.8-1.4
				c0.8-0.3,1.5-0.5,2.3-0.7c0.3-0.1,0.6-0.2,0.8-0.2c0.7-0.2,1.4-0.4,2.2-0.5c0.6-0.1,1.1-0.2,1.7-0.3c0.4-0.1,0.7-0.1,1.1-0.2
				c0,0,0.1,0,0.1,0c0.1,0,0.2,0,0.2,0c0.8-0.1,1.6-0.2,2.4-0.2c1.1-0.1,2.2,0,3.3,0c0.1,0,0.3,0,0.4,0c0.5,0.1,1,0.1,1.5,0.2
				c0.4,0.1,0.9,0.2,1.3,0.3c0.2,0.1,0.4,0.1,0.6,0.2c0.2,0.1,0.4,0.1,0.5,0.2c0.2,0.1,0.3,0.1,0.5,0.2c0.1,0,0.2,0.1,0.2,0.1
				c0.1,0,0.1,0.1,0.2,0.1c0.1,0,0.1,0.1,0.2,0.1c0.1,0,0.1,0.1,0.2,0.1c0.1,0.1,0.3,0.1,0.4,0.2c0.1,0.1,0.3,0.1,0.4,0.2
				c0.1,0.1,0.3,0.1,0.4,0.2c0.3,0.1,0.5,0.3,0.8,0.4c0.3,0.1,0.5,0.3,0.8,0.4c0.3,0.1,0.6,0.3,0.8,0.4c0.3,0.1,0.6,0.3,0.8,0.4
				c0.1,0.1,0.3,0.1,0.4,0.2c0.1,0.1,0.3,0.1,0.4,0.2c0.1,0.1,0.3,0.1,0.4,0.2c0.1,0,0.1,0.1,0.2,0.1c0.1,0,0.1,0.1,0.2,0.1
				c0.1,0,0.1,0,0.2,0.1c0.1,0,0.1,0,0.2,0.1c0.1,0,0.2,0.1,0.3,0.1c0.1,0,0.2,0.1,0.3,0.1c0.1,0,0.2,0.1,0.4,0.1
				c0.2,0.1,0.5,0.1,0.7,0.2c0.2,0.1,0.5,0.1,0.7,0.1c0.2,0,0.5,0.1,0.7,0.1c0.2,0,0.4,0,0.5,0c0,0,0.1,0,0.1,0c0.1,0,0.2,0,0.3,0
				c0.1,0,0.2,0,0.3,0c0.1,0,0.2,0,0.2,0c0,0,0.1,0,0.1,0c0,0,0,0,0.1,0c0.1,0,0.2,0,0.2,0c0.1,0,0.2,0,0.2,0c0.2,0,0.3,0,0.5-0.1
				c0.2,0,0.3,0,0.5-0.1c0.2,0,0.3,0,0.5-0.1c0.3,0,0.7-0.1,1-0.1c0.3,0,0.7-0.1,1-0.1c0.3,0,0.7-0.1,1-0.1c0.3,0,0.7-0.1,1-0.1
				c0.2,0,0.4,0,0.5-0.1c0.2,0,0.4,0,0.5-0.1c0.2,0,0.4,0,0.5-0.1c0.1,0,0.2,0,0.2,0c0.1,0,0.3,0,0.4,0c0.2,0,0.5-0.1,0.6-0.1
				c0,0,0,0,0.1,0c0.2,0,0.5,0,0.7-0.1c0.5,0,0.9-0.1,1.4-0.1c0.5,0,0.9-0.1,1.4-0.1c0.2,0,0.3,0,0.5,0c0.3,0,0.6,0,0.9,0
				c0.8,0,1.6,0,2.4,0.1c0.1,0,0.2,0,0.3,0c0.1,0,0.2,0,0.3,0c0.5,0,1,0.1,1.5,0.1c1,0.1,2,0.3,2.9,0.5c0.1,0,0.1,0,0.2,0
				c0.1,0,0.2,0,0.3,0.1c0.5,0.1,1,0.3,1.4,0.4c0.2,0.1,0.4,0.1,0.7,0.2c0.2,0.1,0.4,0.2,0.6,0.2c0.2,0.1,0.4,0.2,0.6,0.3
				c0.2,0.1,0.4,0.2,0.6,0.3c0.4,0.2,0.7,0.4,1.1,0.6c0.2,0.1,0.4,0.3,0.7,0.5c0.1,0.1,0.2,0.2,0.3,0.2c0.3,0.2,0.6,0.5,0.8,0.8
				c0.5,0.5,0.9,1.1,1.2,1.7c0.3,0.6,0.4,1.2,0.5,1.9"/>
		</g>
		<g id="SPLINE_155_">
			<path class="st1" d="M148.2,257.8c-1-1.4-2.1-2.8-3.1-4.2c-0.1-0.1-0.2-0.3-0.3-0.4c-0.1-0.2-0.2-0.3-0.4-0.5
				c-1.1-1.5-2.2-3-3.3-4.5c-0.8-1-1.6-2.1-2.4-3.2c-0.9-1.2-1.7-2.3-2.6-3.5c-0.9-1.3-1.9-2.6-2.8-3.9c-0.9-1.2-1.7-2.5-2.6-3.7
				c-0.1-0.2-0.3-0.4-0.4-0.6c-1-1.6-2.1-3.1-3.1-4.7c-1.1-1.7-2.1-3.4-3.1-5.2c-1.1-1.8-2.1-3.7-3-5.6c-1-2-2-4-2.9-6.1
				c-0.3-0.8-0.7-1.5-1-2.3c-0.6-1.4-1.1-2.8-1.6-4.2c-0.8-2.3-1.6-4.6-2.2-6.9c-0.3-1.1-0.6-2.2-0.9-3.3c-0.3-1.3-0.6-2.6-0.9-3.9
				c-0.5-2.5-0.9-5-1.1-7.6c-0.1-1.2-0.2-2.5-0.3-3.7c-0.1-1.4-0.1-2.7-0.1-4.1c0-2.7,0.1-5.3,0.4-8c0.1-1.2,0.3-2.5,0.4-3.7
				c0.2-1.4,0.5-2.9,0.7-4.3c0.5-2.7,1.2-5.4,2.1-8c0.4-1.2,0.8-2.3,1.2-3.5c0-0.1,0-0.1,0.1-0.2"/>
		</g>
		<g id="SPLINE_154_">
			<path class="st1" d="M270.3,93.8C270.3,93.8,270.3,93.8,270.3,93.8C270.3,93.8,270.4,93.8,270.3,93.8"/>
		</g>
		<g id="SPLINE_153_">
			<path class="st1" d="M246.1,83.2c0,0,0,0,0.2,0.1c0.2,0.1,0.4,0.2,0.5,0.3c0.3,0.2,0.6,0.3,0.9,0.5c0.3,0.2,0.7,0.3,1,0.5
				c0.3,0.2,0.7,0.4,1,0.5c0.1,0,0.1,0.1,0.2,0.1c0.7,0.3,1.4,0.7,2,1c0.8,0.4,1.7,0.8,2.5,1.3c1,0.5,2,1,3,1.4
				c0.1,0,0.2,0.1,0.3,0.1c0.1,0.1,0.3,0.1,0.4,0.2c1.1,0.5,2.2,1,3.2,1.4c0.9,0.4,1.8,0.7,2.6,1.1c0,0,0.1,0,0.1,0
				c0.7,0.3,1.5,0.6,2.2,0.8c0.6,0.2,1.2,0.4,1.8,0.6c0,0,0.1,0,0.1,0c0.1,0,0.1,0,0.2,0.1c0.3,0.1,0.6,0.2,0.9,0.3"/>
		</g>
		<g id="SPLINE_152_">
			<path class="st1" d="M247.2,72.7c0.1,0.8,0.1,1.6,0.2,2.4c0,0.2,0,0.5,0.1,0.7c0.1,0.6,0.1,1.2,0.2,1.7c0.1,0.4,0.1,0.8,0.2,1.3
				c0.1,0.4,0.1,0.9,0.2,1.3c0,0.2,0.1,0.4,0.1,0.6c0,0.2,0.1,0.4,0.1,0.7c0,0.2,0.1,0.4,0.1,0.7c0,0.1,0,0.2,0.1,0.3
				c0,0.1,0,0.2,0.1,0.3c0,0.1,0,0.2,0,0.2c0,0,0,0.1,0,0.2c0,0.1,0,0.1,0,0.2c0,0.1,0,0.1,0.1,0.2c0,0.1,0.1,0.2,0.1,0.3
				c0.1,0.1,0.1,0.2,0.2,0.3c0.1,0.2,0.3,0.4,0.4,0.6c0.1,0.1,0.1,0.2,0.2,0.2"/>
		</g>
		<g id="SPLINE_151_">
			<path class="st1" d="M286,241.3c-0.4,0.5-0.8,0.9-1.2,1.3c-0.5,0.4-1,0.8-1.6,1.2c-0.6,0.4-1.3,0.8-2,1.1
				c-0.7,0.3-1.4,0.6-2.2,0.8c-0.8,0.2-1.5,0.4-2.3,0.6c-0.1,0-0.3,0.1-0.4,0.1c-0.2,0-0.4,0.1-0.6,0.1c-5.8,1.1-11.6,2.3-17.3,3.4
				c-0.2,0-0.5,0.1-0.7,0.1c-0.2,0-0.4,0.1-0.5,0.1c-0.2,0-0.3,0.1-0.5,0.1c-0.9,0.2-1.8,0.5-2.7,0.8c-0.8,0.3-1.6,0.7-2.4,1.1
				c-0.7,0.4-1.5,0.9-2.1,1.4c-0.6,0.5-1.1,1-1.6,1.6c-0.1,0.1-0.2,0.2-0.2,0.3c-0.1,0.1-0.1,0.2-0.2,0.3c-0.1,0.1-0.2,0.3-0.3,0.4
				c-0.1,0.2-0.2,0.3-0.3,0.5c-1.8,3-3.6,6-5.3,9c-0.1,0.2-0.2,0.3-0.3,0.5c-0.1,0.1-0.1,0.2-0.2,0.4c-0.1,0.1-0.1,0.2-0.2,0.3
				c-0.4,0.6-0.9,1.2-1.5,1.7c-0.6,0.6-1.3,1-2,1.5c-0.8,0.5-1.6,0.9-2.4,1.2c-0.9,0.4-1.9,0.7-2.8,0.9c-1,0.3-2.1,0.5-3.2,0.6
				c-2,0.2-4,0.3-6,0.1c-0.9-0.1-1.9-0.2-2.8-0.4c-0.9-0.2-1.8-0.4-2.6-0.7c-0.8-0.3-1.6-0.6-2.3-1c-0.1-0.1-0.2-0.1-0.4-0.2
				c-0.2-0.1-0.3-0.2-0.5-0.3c-0.2-0.1-0.5-0.2-0.7-0.3c-4.1-2.1-8.3-4.2-12.4-6.3c-0.2-0.1-0.5-0.2-0.7-0.3
				c-0.2-0.1-0.4-0.2-0.5-0.3c-0.1-0.1-0.3-0.1-0.4-0.2c-0.1-0.1-0.2-0.1-0.4-0.2c-0.8-0.4-1.6-0.6-2.4-0.9
				c-0.8-0.3-1.7-0.5-2.6-0.6c-1.1-0.2-2.2-0.3-3.3-0.4c-1.1-0.1-2.3-0.1-3.4,0c-0.5,0-1,0.1-1.4,0.1c-0.1,0-0.1,0-0.2,0
				c-0.2,0-0.4,0-0.6,0.1c-6,0.7-12,1.4-18,2c-0.2,0-0.5,0.1-0.7,0.1c-0.3,0-0.5,0.1-0.8,0.1c-1.6,0.1-3.1,0.2-4.7,0
				c-1.4-0.1-2.7-0.3-4.1-0.6c-1.2-0.3-2.4-0.7-3.6-1.2c-1.1-0.5-2.1-1-3-1.7c-0.4-0.3-0.8-0.6-1.2-1c-0.3-0.3-0.7-0.7-0.9-1.1"/>
		</g>
	</g>
	<path class="st1" d="M281.3,156.9c0,0-73.5-0.1-83.6-34.9c-10.1-34.8,11.6-38.9,11.6-38.9"/>
	<path class="st1" d="M173.1,137.5c0,0-22.7-37.4,21.9-54.4"/>
	<path class="st1" d="M272.9,122c0,0-66.7-3.2-39.5-27"/>
</g>
<g>
	<g>
		<line class="st5" x1="722.1" y1="107.5" x2="722.1" y2="113.5"/>
		<line class="st6" x1="722.1" y1="125.6" x2="722.1" y2="337.2"/>
		<line class="st5" x1="722.1" y1="343.2" x2="722.1" y2="349.2"/>
		<g>
			<polygon class="st7" points="715.8,347.4 722.1,358.2 728.3,347.4 			"/>
		</g>
	</g>
</g>
<g>
	<g>
		<line class="st5" x1="133.6" y1="269" x2="133.6" y2="275"/>
		<line class="st8" x1="133.6" y1="284.9" x2="133.6" y2="319.3"/>
		<line class="st5" x1="133.6" y1="324.2" x2="133.6" y2="330.2"/>
		<g>
			<polygon class="st7" points="127.3,328.4 133.6,339.2 139.8,328.4 			"/>
		</g>
	</g>
</g>
<g>
	<g>
		<line class="st5" x1="279.6" y1="269" x2="279.6" y2="275"/>
		<line class="st8" x1="279.6" y1="284.9" x2="279.6" y2="319.3"/>
		<line class="st5" x1="279.6" y1="324.2" x2="279.6" y2="330.2"/>
		<g>
			<polygon class="st7" points="273.3,328.4 279.6,339.2 285.8,328.4 			"/>
		</g>
	</g>
</g>
<g>
	<g>
		<line class="st5" x1="630.6" y1="239" x2="630.6" y2="245"/>
		<line class="st9" x1="630.6" y1="256.5" x2="630.6" y2="388.5"/>
		<line class="st5" x1="630.6" y1="394.2" x2="630.6" y2="400.2"/>
		<g>
			<polygon class="st7" points="624.3,398.4 630.6,409.2 636.8,398.4 			"/>
		</g>
	</g>
</g>
<polygon class="st0" points="714.1,228.1 697.8,233.2 697.8,248.4 727.4,266.8 729.9,239 729.9,234.9 "/>
<g>
	<g>
		<line class="st5" x1="737.6" y1="289" x2="737.6" y2="295"/>
		<line class="st10" x1="737.6" y1="307.4" x2="738.2" y2="450"/>
		<line class="st5" x1="738.2" y1="456.2" x2="738.3" y2="462.2"/>
		<g>
			<polygon class="st7" points="732,460.4 738.3,471.2 744.5,460.4 			"/>
		</g>
	</g>
</g>
<g>
	<g>
		<line class="st5" x1="849.6" y1="189.2" x2="849.6" y2="195.2"/>
		<line class="st11" x1="849.6" y1="207.6" x2="849.6" y2="400"/>
		<line class="st5" x1="849.6" y1="406.2" x2="849.6" y2="412.2"/>
		<g>
			<polygon class="st7" points="843.3,410.4 849.6,421.2 855.8,410.4 			"/>
		</g>
	</g>
</g>
<g>
	<g id="SPLINE_125_">
		<path class="st1" d="M680.2,210.4c1-0.4,1.9-0.8,2.8-1.3c3.1-1.8,4.6-4.1,4.6-6.5"/>
	</g>
	<g id="SPLINE_124_">
		<path class="st1" d="M679.6,188.6c1.2-0.4,2.3-0.9,3.4-1.5c5.4-3.1,6.1-8,2-11.5"/>
	</g>
	<g id="SPLINE_123_">
		<path class="st1" d="M684.9,175.6c3.8-4.5,2.5-10-3.9-13.7c-5.3-3.1-12.7-4.1-19.5-3.2"/>
	</g>
	<g id="SPLINE_122_">
		<path class="st1" d="M661.5,158.7c-0.8-0.8-1.8-1.6-3-2.2c-8.1-4.7-21.2-4.7-29.3,0c-0.7,0.4-1.3,0.8-1.9,1.3"/>
	</g>
	<g id="SPLINE_121_">
		<path class="st1" d="M611.2,183.4c0,1.4,0.9,2.7,2.7,3.8c16.8,9.7,33.6,19.4,50.3,29.1c3.6,2.1,9.5,2.1,13.1,0
			c1.8-1,2.7-2.4,2.7-3.8"/>
	</g>
	<g id="SPLINE_120_">
		<path class="st1" d="M627.3,157.7c-0.1,0-0.1-0.1-0.2-0.1c-3.6-2.1-9.5-2.1-13.2,0c-3.6,2.1-3.6,5.5,0,7.6
			c16.8,9.7,33.6,19.4,50.3,29.1c3.6,2.1,9.5,2.1,13.1,0c2.7-1.5,3.4-3.8,2.1-5.7"/>
	</g>
	<g id="SPLINE_119_">
		<path class="st2" d="M626.8,212.8c36,20.8,72.1,41.6,108.1,62.4"/>
	</g>
	<g id="SPLINE_118_">
		<path class="st1" d="M734.9,275.2c0-6.9,0-13.7,0-20.6"/>
	</g>
	<g id="SPLINE_117_">
		<path class="st1" d="M671.3,217.8c21.2,12.3,42.5,24.5,63.7,36.8"/>
	</g>
	<g id="SPLINE_116_">
		<path class="st1" d="M626.8,212.8c0-6,0-12.1,0-18.1"/>
	</g>
	<g id="SPLINE_115_">
		<path class="st1" d="M734.9,275.2c4.9-2.8,9.7-5.6,14.6-8.4"/>
	</g>
	<g id="SPLINE_114_">
		<path class="st1" d="M749.5,266.8c0-6.9,0-13.7,0-20.6"/>
	</g>
	<g id="SPLINE_113_">
		<path class="st1" d="M734.9,254.6c4.9-2.8,9.7-5.6,14.6-8.4"/>
	</g>
	<g id="SPLINE_112_">
		<path class="st1" d="M749.5,246.2c-21.8-12.6-43.6-25.2-65.5-37.8"/>
	</g>
	<g id="SPLINE_111_">
		<path class="st1" d="M680.2,212c18.5,10.7,37,21.3,55.5,32"/>
	</g>
	<g id="SPLINE_110_">
		<path class="st1" d="M735.6,244.1c-1.4,0.8-2.9,1.7-4.3,2.5"/>
	</g>
	<g id="SPLINE_109_">
		<path class="st1" d="M731.3,246.6c-17.7-10.2-35.5-20.5-53.2-30.7"/>
	</g>
	<g id="SPLINE_95_">
		<path class="st1" d="M687.6,180.7c0,7.3,0,14.6,0,21.9"/>
	</g>
	<g id="SPLINE_94_">
		<path class="st1" d="M687.1,170.5c0,2.6,0,5.2,0,7.8"/>
	</g>
	<g id="SPLINE_93_">
		<path class="st1" d="M611.2,183.4c0-7.3,0-14.7,0-22"/>
	</g>
	<g id="SPLINE_92_">
		<path class="st1" d="M680.2,190.6c0,7.3,0,14.6,0,21.9"/>
	</g>
</g>
<g>
	<g>
		<line class="st12" x1="645.7" y1="671" x2="676.7" y2="647.4"/>
		<g>
			<polygon class="st7" points="679.1,653.5 683.9,642 671.5,643.5 			"/>
		</g>
	</g>
</g>
</svg>
