<?xml version="1.0" encoding="utf-8"?>
<!-- Generator: Adobe Illustrator 24.0.3, SVG Export Plug-In . SVG Version: 6.00 Build 0)  -->
<svg version="1.1" id="Layer_1" xmlns="http://www.w3.org/2000/svg" xmlns:xlink="http://www.w3.org/1999/xlink" x="0px" y="0px"
	 viewBox="0 0 463 110" style="enable-background:new 0 0 463 110;" xml:space="preserve">
<style type="text/css">
	.st0{fill:#FFFFFF;}
	.st1{fill:#FCD1EE;}
</style>
<g>
	<g>
		<polygon class="st0" points="19.7,39.4 18.1,12.3 18.1,7.9 17.9,7.9 17.9,12.2 16.2,39.4 3.7,39.4 2.5,3.3 9.5,3.3 10.3,30.5 
			10.3,34.5 10.5,34.5 10.5,30.5 12.2,3.3 23.8,3.3 25.4,30.5 25.4,34.5 25.6,34.5 25.6,30.5 26.4,3.3 33.4,3.3 32.2,39.4 		"/>
		<path d="M32.9,3.8l-1.2,35.1H20.2l-1.6-26.7V7.4h-1.2v4.8l-1.6,26.7H4.2L3,3.8h6l0.8,26.7V35H11v-4.5l1.6-26.7h10.6l1.6,26.7V35
			h1.2v-4.5l0.8-26.7H32.9 M34,2.8h-1h-6h-1l0,1l-0.5,17.9L24.3,3.7l-0.1-0.9h-0.9H12.6h-0.9l-0.1,0.9l-1.1,17.9L10,3.8l0-1H9H3H2
			l0,1L3.2,39l0,1h1h11.5h0.9l0.1-0.9L18,18.9L19.2,39l0.1,0.9h0.9h11.5h1l0-1l1.2-35.1L34,2.8L34,2.8z"/>
	</g>
	<g>
		<path class="st0" d="M54.7,39.4V24.8c0-1.6-0.4-2.9-1.2-3.9c-0.8-0.9-1.8-1.4-3.3-1.4c-1.7,0-3,0.5-3.8,1.7
			c-0.9,1.2-1.3,2.8-1.3,4.8v13.5h-7.3V3.3h7.3v14.3h0.1c0.7-1.4,1.6-2.6,2.9-3.4c1.3-0.9,2.9-1.3,4.8-1.3c1.3,0,2.5,0.2,3.6,0.6
			c1.1,0.4,2.1,1.1,2.9,1.9c0.8,0.9,1.5,2,1.9,3.3c0.5,1.3,0.7,2.9,0.7,4.6v16.2H54.7z"/>
		<path d="M44.7,3.8V18h0.9c0.6-1.5,1.6-2.7,2.8-3.5c1.2-0.8,2.8-1.2,4.6-1.2c1.2,0,2.4,0.2,3.4,0.6c1,0.4,1.9,1,2.7,1.8
			c0.8,0.8,1.4,1.8,1.8,3.1c0.4,1.3,0.7,2.7,0.7,4.4v15.7h-6.3V24.8c0-1.8-0.4-3.2-1.3-4.2c-0.9-1-2.1-1.5-3.7-1.5
			c-1.9,0-3.3,0.6-4.2,1.9c-0.9,1.3-1.4,2.9-1.4,5v13h-6.3V3.8H44.7 M45.7,2.8h-1h-6.3h-1v1v35.1v1h1h6.3h1v-1V26
			c0-1.9,0.4-3.4,1.2-4.5c0.7-1,1.8-1.5,3.4-1.5c1.3,0,2.3,0.4,2.9,1.2c0.7,0.8,1,2,1,3.6v14.2v1h1h6.3h1v-1V23.3
			c0-1.8-0.2-3.4-0.7-4.8c-0.5-1.4-1.2-2.5-2-3.5c-0.9-0.9-1.9-1.6-3.1-2c-1.1-0.4-2.4-0.7-3.8-0.7c-2,0-3.7,0.5-5.1,1.4
			c-0.8,0.6-1.6,1.3-2.2,2.1v-12V2.8L45.7,2.8z"/>
	</g>
	<g>
		<path class="st0" d="M77.1,40.1c-1.6,0-3.1-0.3-4.4-0.9c-1.4-0.6-2.6-1.5-3.7-2.6c-1-1.1-1.9-2.6-2.5-4.2
			c-0.6-1.6-0.9-3.5-0.9-5.5v-0.8c0-2,0.3-3.9,0.9-5.5c0.6-1.6,1.4-3,2.4-4.2c1-1.2,2.2-2,3.6-2.7c1.4-0.6,2.8-0.9,4.3-0.9
			c1.9,0,3.4,0.3,4.5,1c1.1,0.6,2,1.5,2.6,2.7H84v-3h7.3v17.9c0,0.8,0.3,1,0.9,1h1.5v7h-4.8c-1.3,0-2.3-0.4-3.1-1.1
			c-0.7-0.7-1.1-1.5-1.2-2.5h-0.1c-0.7,1.5-1.7,2.6-2.9,3.3C80.2,39.8,78.7,40.1,77.1,40.1z M78.5,19.9c-1.7,0-3,0.5-4,1.7
			c-1,1.1-1.5,2.7-1.5,4.7v0.6c0,2,0.5,3.5,1.5,4.7c1,1.1,2.3,1.7,4,1.7s3-0.5,4-1.7c1-1.1,1.5-2.7,1.5-4.7v-0.6
			c0-2-0.5-3.5-1.5-4.7C81.5,20.4,80.2,19.9,78.5,19.9z"/>
		<path d="M76.8,13.3c1.8,0,3.2,0.3,4.3,0.9c1.1,0.6,1.9,1.5,2.6,2.8h0.9v-3h6.3v17.4c0,1,0.5,1.5,1.4,1.5h1v6h-4.3
			c-1.1,0-2.1-0.3-2.8-1c-0.7-0.7-1.1-1.5-1.1-2.6h-0.9c-0.7,1.6-1.6,2.7-2.8,3.3c-1.2,0.7-2.6,1-4.2,1c-1.5,0-2.9-0.3-4.2-0.9
			c-1.3-0.6-2.5-1.4-3.5-2.5c-1-1.1-1.8-2.4-2.4-4c-0.6-1.6-0.9-3.4-0.9-5.4v-0.8c0-2,0.3-3.7,0.9-5.3c0.6-1.6,1.3-2.9,2.3-4
			c1-1.1,2.1-1.9,3.4-2.5C73.9,13.6,75.3,13.3,76.8,13.3 M78.5,33.6c1.8,0,3.3-0.6,4.4-1.8c1.1-1.2,1.7-2.9,1.7-5v-0.6
			c0-2.1-0.6-3.8-1.7-5c-1.1-1.2-2.6-1.8-4.4-1.8c-1.8,0-3.3,0.6-4.4,1.8c-1.1,1.2-1.7,2.9-1.7,5v0.6c0,2.1,0.6,3.8,1.7,5
			C75.2,33,76.6,33.6,78.5,33.6 M76.8,12.3c-1.6,0-3.1,0.3-4.6,1c-1.4,0.6-2.7,1.6-3.7,2.8c-1,1.2-1.9,2.7-2.5,4.3
			c-0.6,1.7-0.9,3.6-0.9,5.7v0.8c0,2.1,0.3,4,0.9,5.7c0.6,1.7,1.5,3.1,2.6,4.3c1.1,1.2,2.4,2.1,3.8,2.8c1.4,0.6,3,0.9,4.6,0.9
			c1.8,0,3.3-0.4,4.7-1.1c1-0.5,1.9-1.4,2.5-2.5c0.2,0.6,0.6,1.1,1.1,1.6c0.9,0.8,2.1,1.3,3.5,1.3h4.3h1v-1v-6v-1h-1h-1
			c-0.3,0-0.4,0-0.4-0.5V14v-1h-1h-6.3h-1v1v1c-0.6-0.7-1.2-1.3-2-1.7C80.3,12.7,78.7,12.3,76.8,12.3L76.8,12.3z M78.5,32.6
			c-1.6,0-2.8-0.5-3.7-1.5c-0.9-1-1.4-2.5-1.4-4.3v-0.6c0-1.9,0.5-3.3,1.4-4.3c0.9-1,2.1-1.5,3.7-1.5c1.6,0,2.8,0.5,3.7,1.5
			c0.9,1,1.4,2.5,1.4,4.3v0.6c0,1.9-0.5,3.3-1.4,4.3C81.2,32.1,80,32.6,78.5,32.6L78.5,32.6z"/>
	</g>
	<g>
		<path class="st0" d="M108.2,39.4c-1.3,0-2.3-0.4-3.1-1.3c-0.8-0.8-1.2-1.9-1.2-3.2V20.6h-7.4v-7h7.4V3.3h7.3v10.2h9v7h-9v10.8
			c0,0.8,0.3,1,0.9,1h7.2v7H108.2z"/>
		<path d="M110.7,3.8V14h9v6h-9v11.3c0,1,0.5,1.5,1.4,1.5h6.7v6h-10.5c-1.1,0-2.1-0.4-2.8-1.1c-0.7-0.7-1.1-1.7-1.1-2.8v-15H97v-6
			h7.4V3.8H110.7 M111.7,2.8h-1h-6.3h-1v1V13H97h-1v1v6v1h1h6.4v14c0,1.4,0.5,2.6,1.4,3.5c0.9,0.9,2.1,1.4,3.5,1.4h10.5h1v-1v-6v-1
			h-1h-6.7c-0.3,0-0.4,0-0.4-0.5V21.1h8h1v-1v-6v-1h-1h-8V3.8V2.8L111.7,2.8z"/>
	</g>
	<g>
		<path class="st0" d="M128.6,18.9V14h2.9c0.5,0,0.8-0.2,0.9-1c-0.1,0-0.2,0-0.4,0c-0.7,0-1.4-0.1-2.1-0.4c-0.6-0.3-1.2-0.7-1.7-1.1
			c-0.5-0.5-0.9-1-1.1-1.7c-0.3-0.6-0.4-1.3-0.4-2.1c0-0.7,0.1-1.4,0.4-2c0.3-0.6,0.7-1.2,1.1-1.7c0.5-0.5,1-0.8,1.7-1.1
			c0.6-0.3,1.3-0.4,2.1-0.4c0.7,0,1.4,0.1,2,0.4c0.6,0.3,1.2,0.6,1.7,1.1c0.5,0.5,0.9,1,1.1,1.7c0.3,0.6,0.4,1.3,0.4,2v6.1
			c0,1.4-0.5,2.6-1.4,3.6c-0.9,1-2.1,1.5-3.5,1.5H128.6z"/>
		<path d="M132,3.1c0.6,0,1.2,0.1,1.8,0.4c0.6,0.3,1.1,0.6,1.5,1c0.4,0.4,0.8,0.9,1,1.5c0.3,0.6,0.4,1.2,0.4,1.8v6.1
			c0,1.3-0.4,2.3-1.3,3.2c-0.9,0.9-1.9,1.3-3.2,1.3h-3.2v-3.9h2.4c0.9,0,1.4-0.5,1.4-1.5v-0.6c-0.3,0.1-0.6,0.2-0.9,0.2
			c-0.7,0-1.3-0.1-1.9-0.4c-0.6-0.3-1.1-0.6-1.5-1c-0.4-0.4-0.8-0.9-1-1.5c-0.3-0.6-0.4-1.2-0.4-1.9c0-0.6,0.1-1.2,0.4-1.8
			c0.3-0.6,0.6-1.1,1-1.5c0.4-0.4,0.9-0.8,1.5-1C130.7,3.2,131.3,3.1,132,3.1 M132,2.1c-0.8,0-1.6,0.2-2.3,0.5
			c-0.7,0.3-1.3,0.7-1.8,1.2c-0.5,0.5-1,1.1-1.3,1.8c-0.3,0.7-0.5,1.5-0.5,2.2c0,0.8,0.2,1.6,0.5,2.3c0.3,0.7,0.7,1.3,1.2,1.8
			c0.5,0.5,1.1,0.9,1.8,1.2c0.5,0.2,1,0.4,1.5,0.4h-2.2h-1v1v3.9v1h1h3.2c1.5,0,2.9-0.5,3.9-1.6c1-1.1,1.6-2.4,1.6-3.9V7.8
			c0-0.8-0.2-1.5-0.5-2.2c-0.3-0.7-0.7-1.3-1.3-1.8c-0.5-0.5-1.1-0.9-1.8-1.2C133.5,2.2,132.7,2.1,132,2.1L132,2.1z"/>
	</g>
	<g>
		<path class="st0" d="M154,40.1c-2,0-3.7-0.3-5.1-0.8c-1.4-0.5-2.6-1.2-3.6-2c-1-0.8-1.7-1.7-2.2-2.7c-0.5-1-0.9-1.9-1-2.8
			l-0.1-0.4l6.8-2.2l0.1,0.5c0.2,1,0.8,1.8,1.5,2.6c0.8,0.7,2,1.1,3.6,1.1c1.8,0,2.6-0.3,2.9-0.6c0.5-0.4,0.7-0.8,0.7-1.2
			c0-0.3-0.1-0.5-0.2-0.7c-0.1-0.2-0.3-0.4-0.7-0.6c-0.4-0.2-0.9-0.4-1.5-0.6c-0.7-0.2-1.5-0.3-2.5-0.4c-2.9-0.2-5.2-1-7-2.3
			c-1.8-1.3-2.7-3.3-2.7-5.8V21c0-1.3,0.3-2.5,0.9-3.5c0.6-1,1.3-1.8,2.2-2.5c0.9-0.7,2-1.2,3.2-1.6c1.2-0.3,2.4-0.5,3.7-0.5
			c1.6,0,3,0.2,4.2,0.6c1.2,0.4,2.2,0.9,3.1,1.6c0.8,0.7,1.5,1.4,2.1,2.2c0.5,0.8,0.9,1.5,1.2,2.3l0.2,0.5l-6.7,2.7l-0.2-0.5
			c-0.3-0.8-0.7-1.4-1.4-1.9c-0.6-0.5-1.5-0.7-2.6-0.7c-1,0-1.7,0.2-2.1,0.5c-0.4,0.3-0.6,0.6-0.6,1c0,0.4,0.1,0.9,0.9,1.3
			c0.8,0.3,2.3,0.6,4.4,0.8c2.6,0.3,4.8,1.1,6.5,2.4c1.7,1.3,2.6,3.2,2.6,5.6v0.3c0,2.6-1,4.7-2.9,6.3
			C160.1,39.4,157.4,40.1,154,40.1z"/>
		<path d="M153.1,13.3c1.6,0,2.9,0.2,4.1,0.6c1.2,0.4,2.1,0.9,2.9,1.5c0.8,0.6,1.5,1.3,2,2.1c0.5,0.8,0.9,1.5,1.2,2.2l-5.7,2.3
			c-0.3-0.9-0.8-1.6-1.6-2.1c-0.7-0.5-1.7-0.8-2.9-0.8c-1.1,0-1.9,0.2-2.4,0.6c-0.5,0.4-0.8,0.9-0.8,1.4c0,0.8,0.4,1.4,1.3,1.7
			c0.8,0.4,2.4,0.6,4.6,0.9c2.5,0.3,4.6,1,6.2,2.3c1.6,1.3,2.4,3,2.4,5.2v0.3c0,2.5-0.9,4.5-2.7,5.9c-1.8,1.5-4.4,2.2-7.6,2.2
			c-1.9,0-3.6-0.3-5-0.8c-1.4-0.5-2.5-1.1-3.4-1.9c-0.9-0.8-1.6-1.6-2.1-2.5c-0.5-0.9-0.8-1.8-1-2.7l5.8-1.9c0.3,1.1,0.8,2,1.7,2.8
			c0.9,0.8,2.2,1.2,3.9,1.2c1.6,0,2.7-0.2,3.2-0.7c0.6-0.5,0.9-1,0.9-1.6c0-0.3-0.1-0.6-0.2-0.9c-0.2-0.3-0.4-0.6-0.8-0.8
			c-0.4-0.3-0.9-0.5-1.6-0.6c-0.7-0.2-1.5-0.3-2.6-0.4c-2.8-0.2-5-1-6.7-2.2c-1.7-1.2-2.5-3-2.5-5.4V21c0-1.2,0.3-2.3,0.8-3.3
			c0.5-0.9,1.2-1.7,2.1-2.4c0.9-0.7,1.9-1.1,3-1.5C150.7,13.5,151.9,13.3,153.1,13.3 M153.1,12.3c-1.3,0-2.6,0.2-3.8,0.5
			c-1.2,0.4-2.4,0.9-3.3,1.6c-1,0.7-1.8,1.6-2.4,2.7c-0.6,1.1-0.9,2.3-0.9,3.8v0.3c0,2.7,1,4.8,2.9,6.2c0.8,0.6,1.7,1.1,2.7,1.4
			l-0.2,0.1l-5.8,1.9l-0.8,0.3l0.2,0.9c0.2,1,0.5,2,1.1,3c0.5,1,1.3,2,2.3,2.8c1,0.8,2.2,1.5,3.7,2.1c1.5,0.5,3.3,0.8,5.3,0.8
			c3.5,0,6.3-0.8,8.3-2.4c2-1.7,3.1-3.9,3.1-6.7v-0.3c0-2.6-0.9-4.6-2.8-6c-1.3-1-3-1.8-4.9-2.2l0.2-0.1l5.7-2.3l0.9-0.4l-0.4-0.9
			c-0.3-0.8-0.7-1.6-1.3-2.4c-0.6-0.8-1.3-1.6-2.2-2.3c-0.9-0.7-2-1.2-3.2-1.7C156.3,12.5,154.8,12.3,153.1,12.3L153.1,12.3z
			 M156.7,22.8c-0.3,0-0.6-0.1-0.9-0.1c-2.6-0.3-3.8-0.6-4.3-0.8c-0.6-0.2-0.6-0.5-0.6-0.8c0-0.2,0-0.4,0.4-0.6
			c0.2-0.2,0.8-0.4,1.8-0.4c1,0,1.7,0.2,2.3,0.6c0.6,0.4,0.9,0.9,1.2,1.6L156.7,22.8L156.7,22.8z M154,32.9c-1.5,0-2.6-0.3-3.3-0.9
			c-0.7-0.7-1.2-1.4-1.4-2.3l-0.1-0.4c1.1,0.3,2.2,0.5,3.5,0.6c1,0.1,1.8,0.2,2.4,0.4c0.6,0.1,1,0.3,1.3,0.5
			c0.3,0.2,0.4,0.4,0.5,0.4c0.1,0.1,0.1,0.3,0.1,0.5c0,0.1,0,0.4-0.5,0.8C156.4,32.6,155.8,32.9,154,32.9L154,32.9z"/>
	</g>
	<g>
		<polygon class="st0" points="196.6,39.4 196.6,27.1 195.3,27.1 184.7,3.3 193.1,3.3 200.3,20.1 200.5,20.1 207.8,3.3 216.1,3.3 
			205.6,27.1 204.2,27.1 204.2,39.4 		"/>
		<path d="M215.3,3.8l-10.1,22.8h-1.5v12.4h-6.6V26.6h-1.5L185.5,3.8h7.2l7.2,16.8h0.9l7.2-16.8H215.3 M216.9,2.8h-1.5h-7.2h-0.7
			l-0.3,0.6l-6.8,15.7l-6.8-15.7l-0.3-0.6h-0.7h-7.2H184l0.6,1.4L194.7,27l0.3,0.6h0.7h0.5v11.4v1h1h6.6h1v-1V27.6h0.5h0.7l0.3-0.6
			l10.1-22.8L216.9,2.8L216.9,2.8z"/>
	</g>
	<g>
		<path class="st0" d="M227.6,40.1c-1.8,0-3.5-0.3-5.1-0.9c-1.6-0.6-3.1-1.5-4.3-2.6c-1.3-1.1-2.3-2.5-3-4.2
			c-0.7-1.6-1.1-3.6-1.1-5.7v-0.6c0-2.1,0.4-4,1.1-5.6c0.7-1.6,1.7-3.1,3-4.2c1.2-1.1,2.7-2,4.3-2.6c1.6-0.6,3.3-0.9,5.1-0.9
			c1.8,0,3.5,0.3,5.1,0.9c1.6,0.6,3.1,1.5,4.3,2.6c1.3,1.1,2.3,2.6,3,4.2c0.7,1.6,1.1,3.5,1.1,5.6v0.6c0,2.1-0.4,4.1-1.1,5.7
			c-0.7,1.6-1.7,3.1-3,4.2c-1.2,1.1-2.7,2-4.3,2.6C231.1,39.8,229.4,40.1,227.6,40.1z M227.6,19.9c-0.8,0-1.6,0.1-2.4,0.4
			c-0.7,0.3-1.4,0.7-1.9,1.2c-0.5,0.5-1,1.2-1.3,1.9c-0.3,0.8-0.5,1.6-0.5,2.6v1c0,1,0.2,1.8,0.5,2.6c0.3,0.8,0.8,1.4,1.3,1.9
			c0.6,0.5,1.2,0.9,1.9,1.2c0.7,0.3,1.5,0.4,2.4,0.4s1.6-0.1,2.4-0.4c0.7-0.3,1.4-0.7,1.9-1.2c0.5-0.5,1-1.2,1.3-1.9
			c0.3-0.8,0.5-1.6,0.5-2.6v-1c0-1-0.2-1.8-0.5-2.6c-0.3-0.8-0.8-1.4-1.3-1.9c-0.6-0.5-1.2-0.9-1.9-1.2
			C229.3,20,228.5,19.9,227.6,19.9z"/>
		<path d="M227.6,13.3c1.7,0,3.3,0.3,4.9,0.9c1.6,0.6,2.9,1.4,4.1,2.5c1.2,1.1,2.2,2.5,2.9,4c0.7,1.6,1.1,3.4,1.1,5.4v0.6
			c0,2.1-0.4,3.9-1.1,5.5c-0.7,1.6-1.7,2.9-2.9,4c-1.2,1.1-2.6,1.9-4.1,2.5c-1.6,0.6-3.2,0.9-4.9,0.9c-1.7,0-3.3-0.3-4.9-0.9
			c-1.6-0.6-2.9-1.4-4.1-2.5c-1.2-1.1-2.2-2.4-2.9-4c-0.7-1.6-1.1-3.4-1.1-5.5v-0.6c0-2,0.4-3.9,1.1-5.4c0.7-1.6,1.7-2.9,2.9-4
			c1.2-1.1,2.6-1.9,4.1-2.5C224.3,13.6,225.9,13.3,227.6,13.3 M227.6,33.6c0.9,0,1.8-0.2,2.6-0.5c0.8-0.3,1.5-0.7,2.1-1.3
			c0.6-0.6,1.1-1.3,1.4-2.1c0.4-0.8,0.5-1.7,0.5-2.8v-1c0-1-0.2-2-0.5-2.8c-0.4-0.8-0.8-1.5-1.4-2.1c-0.6-0.6-1.3-1-2.1-1.3
			c-0.8-0.3-1.7-0.5-2.6-0.5s-1.8,0.2-2.6,0.5c-0.8,0.3-1.5,0.7-2.1,1.3c-0.6,0.6-1.1,1.3-1.4,2.1c-0.4,0.8-0.5,1.7-0.5,2.8v1
			c0,1,0.2,2,0.5,2.8c0.4,0.8,0.8,1.5,1.4,2.1c0.6,0.6,1.3,1,2.1,1.3C225.9,33.5,226.7,33.6,227.6,33.6 M227.6,12.3
			c-1.8,0-3.6,0.3-5.2,0.9c-1.7,0.6-3.2,1.5-4.5,2.7c-1.3,1.2-2.3,2.7-3.1,4.4c-0.8,1.7-1.1,3.7-1.1,5.9v0.6c0,2.2,0.4,4.2,1.1,5.9
			c0.8,1.7,1.8,3.2,3.1,4.4c1.3,1.2,2.8,2.1,4.5,2.7c1.7,0.6,3.4,0.9,5.2,0.9c1.8,0,3.6-0.3,5.2-0.9c1.7-0.6,3.2-1.5,4.5-2.7
			c1.3-1.2,2.3-2.6,3.1-4.4c0.8-1.7,1.1-3.7,1.1-5.9v-0.6c0-2.2-0.4-4.1-1.1-5.9c-0.8-1.7-1.8-3.2-3.1-4.4c-1.3-1.2-2.8-2.1-4.5-2.7
			C231.2,12.6,229.5,12.3,227.6,12.3L227.6,12.3z M227.6,32.6c-0.8,0-1.5-0.1-2.2-0.4c-0.7-0.3-1.3-0.6-1.8-1.1
			c-0.5-0.5-0.9-1.1-1.2-1.8c-0.3-0.7-0.4-1.5-0.4-2.4v-1c0-0.9,0.2-1.7,0.4-2.4c0.3-0.7,0.7-1.3,1.2-1.8c0.5-0.5,1.1-0.8,1.8-1.1
			c0.7-0.3,1.4-0.4,2.2-0.4c0.8,0,1.5,0.1,2.2,0.4c0.7,0.3,1.3,0.6,1.8,1.1c0.5,0.5,0.9,1.1,1.2,1.8c0.3,0.7,0.4,1.5,0.4,2.4v1
			c0,0.9-0.2,1.7-0.4,2.4c-0.3,0.7-0.7,1.3-1.2,1.8c-0.5,0.5-1.1,0.8-1.8,1.1C229.2,32.5,228.4,32.6,227.6,32.6L227.6,32.6z"/>
	</g>
	<g>
		<path class="st0" d="M253.7,40.1c-1.3,0-2.5-0.2-3.6-0.6c-1.1-0.4-2.1-1.1-3-2c-0.8-0.9-1.5-2-2-3.3c-0.5-1.3-0.7-2.9-0.7-4.6
			V13.5h7.3v14.8c0,1.6,0.4,2.9,1.1,3.8c0.7,0.9,1.9,1.3,3.4,1.3c1.8,0,3-0.5,3.8-1.6c0.8-1.1,1.2-2.7,1.2-4.7V13.5h7.3v25.9h-7.3
			v-3.6h-0.1C260,38.7,257.5,40.1,253.7,40.1z"/>
		<path d="M268.1,14v24.9h-6.3v-3.6h-0.9c-1.1,2.9-3.5,4.3-7.1,4.3c-1.2,0-2.4-0.2-3.5-0.6c-1.1-0.4-2-1-2.8-1.9
			c-0.8-0.8-1.4-1.9-1.9-3.1c-0.5-1.3-0.7-2.7-0.7-4.4V14h6.3v14.3c0,1.8,0.4,3.2,1.3,4.1c0.8,1,2.1,1.5,3.8,1.5
			c1.9,0,3.3-0.6,4.2-1.8c0.9-1.2,1.3-2.9,1.3-5V14H268.1 M269.1,13h-1h-6.3h-1v1v13.1c0,1.9-0.4,3.4-1.1,4.4
			c-0.7,1-1.8,1.4-3.4,1.4c-1.4,0-2.4-0.4-3-1.1c-0.7-0.8-1-2-1-3.5V14v-1h-1h-6.3h-1v1v15.6c0,1.8,0.2,3.4,0.7,4.8
			c0.5,1.4,1.2,2.6,2.1,3.5c0.9,0.9,2,1.6,3.2,2.1c1.2,0.4,2.5,0.7,3.8,0.7c3.2,0,5.6-1,7-3v1.3v1h1h6.3h1v-1V14V13L269.1,13z"/>
	</g>
	<g>
		<path class="st0" d="M272.3,39.4v-7h5.1V20.6h-4.5v-7h11.5v3.6h0.1c0.5-1.3,1.3-2.4,2.5-3.1c1.2-0.8,2.7-1.2,4.3-1.2
			c2.6,0,4.7,0.8,6.3,2.5c1.6,1.6,2.4,4.2,2.4,7.5v1.6l-7.5,0.7v-1.3c0-1.2-0.3-2.2-0.9-3c-0.6-0.7-1.5-1.1-2.8-1.1
			c-1.3,0-2.2,0.4-2.9,1.3c-0.7,0.9-1.1,2.2-1.1,3.8v7.5h5.7v7H272.3z"/>
		<path d="M291.3,13.3c2.5,0,4.5,0.8,6,2.3c1.5,1.6,2.3,3.9,2.3,7.1v1.1l-6.5,0.6v-0.7c0-1.4-0.4-2.5-1.1-3.3
			c-0.7-0.8-1.8-1.2-3.2-1.2c-1.4,0-2.5,0.5-3.3,1.5c-0.8,1-1.2,2.4-1.2,4.2v8h5.7v6h-17.2v-6h5.1V20.1h-4.5v-6H284v3.6h0.9
			c0.5-1.4,1.3-2.4,2.4-3.2C288.4,13.7,289.7,13.3,291.3,13.3 M291.3,12.3c-1.8,0-3.3,0.4-4.6,1.3c-0.7,0.5-1.3,1-1.7,1.7V14v-1h-1
			h-10.5h-1v1v6v1h1h3.5v10.9h-4.1h-1v1v6v1h1H290h1v-1v-6v-1h-1h-4.7v-7c0-1.6,0.3-2.7,1-3.5c0.6-0.7,1.4-1.1,2.5-1.1
			c1.1,0,1.9,0.3,2.4,0.9c0.5,0.6,0.8,1.5,0.8,2.6v0.7v1.1l1.1-0.1l6.5-0.6l0.9-0.1v-0.9v-1.1c0-3.4-0.9-6.1-2.5-7.8
			C296.3,13.2,294,12.3,291.3,12.3L291.3,12.3z"/>
	</g>
</g>
<g>
	<g>
		<path class="st1" d="M206.5,70.6l14-2.5c0.9-0.2,1.8-0.2,2.6-0.2c0.9,0,1.7,0.1,2.4,0.3c1.5,0.4,2.8,0.9,3.9,1.8
			c1.1,0.8,2,1.8,2.7,3c0.7,1.2,1.2,2.4,1.4,3.7l0.2,1.2c0.2,1.3,0.2,2.7,0,4.1c-0.2,1.4-0.7,2.7-1.4,3.8c-0.7,1.2-1.7,2.2-3,3.1
			c-1.3,0.9-2.8,1.5-4.7,1.8l-6.5,1.2l2.4,13l-7.5,1.4L206.5,70.6z M216.8,84.6l5.9-1.1c1.3-0.2,2.3-0.8,2.9-1.6
			c0.6-0.8,0.8-1.8,0.6-2.9l-0.1-0.6c-0.2-1.1-0.7-1.9-1.6-2.5c-0.6-0.4-1.3-0.6-2.2-0.6c-0.4,0-0.7,0-1.1,0.1l-5.9,1.1L216.8,84.6z
			"/>
		<path d="M223.1,68.3c0.8,0,1.6,0.1,2.3,0.3c1.4,0.3,2.7,0.9,3.7,1.7c1,0.8,1.9,1.7,2.6,2.9c0.7,1.1,1.1,2.3,1.3,3.6l0.2,1.2
			c0.2,1.3,0.2,2.6,0,3.9c-0.2,1.3-0.7,2.5-1.4,3.7c-0.7,1.1-1.7,2.1-2.9,2.9c-1.2,0.8-2.7,1.4-4.5,1.7l-7,1.3l2.4,13l-6.5,1.2
			L207.1,71l13.5-2.5C221.5,68.4,222.3,68.3,223.1,68.3 M216.4,85.1l6.4-1.2c1.4-0.3,2.5-0.9,3.2-1.8c0.7-0.9,0.9-2,0.7-3.3
			l-0.1-0.6c-0.2-1.3-0.8-2.2-1.8-2.8c-0.7-0.5-1.5-0.7-2.4-0.7c-0.4,0-0.8,0-1.2,0.1l-6.4,1.2L216.4,85.1 M223.1,67.3
			c-0.8,0-1.7,0.1-2.7,0.3L206.9,70l-1,0.2l0.2,1l6.3,34.6l0.2,1l1-0.2l6.5-1.2l1-0.2l-0.2-1l-2.2-12.1l6-1.1c1.9-0.3,3.5-1,4.9-1.9
			c1.3-0.9,2.4-2,3.1-3.2c0.8-1.2,1.3-2.6,1.5-4c0.2-1.4,0.2-2.9,0-4.2l-0.2-1.2c-0.2-1.4-0.7-2.7-1.5-3.9c-0.7-1.2-1.7-2.3-2.8-3.1
			c-1.1-0.9-2.5-1.5-4.1-1.8C224.8,67.4,224,67.3,223.1,67.3L223.1,67.3z M215.9,76.9l5.4-1c0.4-0.1,0.7-0.1,1-0.1
			c0.7,0,1.4,0.2,1.9,0.5c0.7,0.5,1.2,1.2,1.4,2.2l0.1,0.6c0.2,1,0,1.8-0.5,2.5c-0.5,0.7-1.4,1.2-2.6,1.4l-5.4,1L215.9,76.9
			L215.9,76.9z"/>
	</g>
	<g>
		<polygon class="st1" points="239.6,94.2 248.2,92.6 244.2,70.9 235.9,72.4 234.7,65.5 250.2,62.7 255.4,91.3 263.4,89.9 
			264.7,96.8 240.8,101.1 		"/>
		<path d="M249.8,63.3l5.2,28.7l8-1.5l1.1,5.9l-22.8,4.1l-1.1-5.9l8.6-1.6l-4.1-22.7l-8.3,1.5l-1.1-5.9L249.8,63.3 M250.6,62.1
			l-1,0.2l-14.5,2.6l-1,0.2l0.2,1l1.1,5.9l0.2,1l1-0.2l7.3-1.3l3.8,20.8l-7.6,1.4l-1,0.2l0.2,1l1.1,5.9l0.2,1l1-0.2l22.8-4.1l1-0.2
			l-0.2-1l-1.1-5.9l-0.2-1l-1,0.2l-7,1.3l-5-27.7L250.6,62.1L250.6,62.1z"/>
	</g>
	<g>
		<path class="st1" d="M277.1,95c-0.9,0-1.7-0.1-2.5-0.2c-1.7-0.3-3.2-1-4.6-1.9c-1.4-1-2.5-2.2-3.5-3.8c-0.9-1.6-1.6-3.4-2-5.5
			l-0.1-0.3c-0.4-1.9-0.3-3.8,0-5.5c0.4-1.7,1.1-3.3,2-4.6c1-1.3,2.2-2.5,3.6-3.4c1.4-0.9,3.1-1.5,4.8-1.9c1-0.2,1.9-0.3,2.8-0.3
			c1.1,0,2.1,0.1,3.1,0.4c1.7,0.5,3.2,1.2,4.4,2.2c1.2,1,2.2,2.2,3,3.5c0.7,1.3,1.2,2.7,1.5,4l0.7,3.8l-17.9,3.3
			c0.2,0.4,0.4,0.8,0.6,1.2c0.4,0.5,0.9,0.9,1.4,1.2c0.6,0.3,1.2,0.5,1.9,0.6c0.3,0,0.6,0.1,1,0.1c0.4,0,0.8,0,1.2-0.1
			c1.4-0.3,2.5-0.7,3.2-1.3c0.7-0.6,1.1-1.3,1.3-2l0.1-0.5l6.8,2.3l-0.1,0.5c-0.2,0.7-0.5,1.5-0.9,2.3c-0.4,0.8-1,1.6-1.8,2.4
			c-0.8,0.7-1.8,1.4-2.9,2c-1.2,0.6-2.6,1.1-4.3,1.4C278.9,94.9,278,95,277.1,95z M277.5,74.4c-0.5,0-0.9,0-1.4,0.1
			c-1.5,0.3-2.6,0.9-3.3,1.7c-0.6,0.7-1,1.4-1.2,2.2l10.2-1.9c-0.4-0.7-1-1.3-1.9-1.7C279.2,74.5,278.4,74.4,277.5,74.4z"/>
		<path d="M277.7,68.1c1,0,2,0.1,2.9,0.4c1.6,0.5,3.1,1.2,4.3,2.1c1.2,1,2.1,2.1,2.9,3.4c0.7,1.3,1.2,2.6,1.4,3.9l0.6,3.3l-18,3.3
			c0.2,0.7,0.5,1.4,0.9,1.9c0.4,0.6,0.9,1,1.6,1.3c0.6,0.3,1.3,0.6,2.1,0.7c0.3,0.1,0.7,0.1,1,0.1c0.4,0,0.8,0,1.3-0.1
			c1.5-0.3,2.7-0.8,3.4-1.5c0.7-0.7,1.2-1.5,1.4-2.3l5.9,2c-0.2,0.7-0.5,1.4-0.9,2.2c-0.4,0.8-1,1.5-1.7,2.2
			c-0.7,0.7-1.7,1.4-2.8,1.9c-1.1,0.6-2.5,1-4.1,1.3c-0.9,0.2-1.9,0.3-2.8,0.3c-0.8,0-1.7-0.1-2.4-0.2c-1.6-0.3-3.1-0.9-4.4-1.9
			c-1.3-0.9-2.4-2.1-3.3-3.6c-0.9-1.5-1.5-3.3-1.9-5.3l-0.1-0.3c-0.3-1.9-0.3-3.6,0-5.3c0.4-1.7,1-3.1,1.9-4.4
			c0.9-1.3,2.1-2.4,3.5-3.3c1.4-0.9,2.9-1.5,4.7-1.8C276,68.2,276.9,68.1,277.7,68.1 M270.9,79.1l11.6-2.1c-0.4-1.1-1.2-2-2.4-2.5
			c-0.8-0.4-1.7-0.6-2.6-0.6c-0.5,0-1,0-1.5,0.1c-1.6,0.3-2.8,0.9-3.6,1.9C271.5,76.9,271,78,270.9,79.1 M277.7,67.1L277.7,67.1
			c-0.9,0-1.9,0.1-2.9,0.3c-1.8,0.3-3.5,1-5,1.9c-1.5,0.9-2.8,2.1-3.7,3.5c-1,1.4-1.7,3-2.1,4.8c-0.4,1.8-0.4,3.7,0,5.7l0.1,0.3
			c0.4,2.2,1.1,4.1,2,5.7c1,1.6,2.2,2.9,3.6,3.9c1.4,1,3,1.7,4.8,2c0.8,0.2,1.7,0.3,2.6,0.3c0.9,0,1.9-0.1,2.9-0.3
			c1.7-0.3,3.2-0.8,4.4-1.4c1.2-0.6,2.2-1.3,3.1-2.1c0.8-0.8,1.5-1.6,1.9-2.5c0.4-0.8,0.8-1.6,1-2.4l0.2-0.9l-0.9-0.3l-5.9-2
			l-0.8-0.3l6.9-1.3l1-0.2l-0.2-1l-0.6-3.3c-0.3-1.4-0.8-2.8-1.5-4.2c-0.8-1.4-1.8-2.6-3.1-3.7c-1.3-1-2.8-1.8-4.6-2.3
			C279.9,67.3,278.9,67.1,277.7,67.1L277.7,67.1z M272.3,77.8c0.2-0.4,0.5-0.8,0.8-1.2c0.7-0.8,1.7-1.3,3.1-1.6
			c0.5-0.1,0.9-0.1,1.3-0.1c0.8,0,1.5,0.2,2.2,0.5c0.5,0.2,0.9,0.5,1.2,0.9L272.3,77.8L272.3,77.8z M273.1,85.2l9.6-1.7l-0.2,0.9
			c-0.2,0.7-0.6,1.2-1.2,1.8c-0.6,0.6-1.6,1-2.9,1.2c-0.4,0.1-0.7,0.1-1.1,0.1c-0.3,0-0.6,0-0.9-0.1c-0.6-0.1-1.2-0.3-1.7-0.6
			c-0.5-0.3-0.9-0.6-1.3-1.1C273.4,85.5,273.2,85.4,273.1,85.2L273.1,85.2z"/>
	</g>
	<g>
		<path class="st1" d="M305,90c-0.8,0-1.6-0.1-2.4-0.3c-1.5-0.3-2.8-1-4.1-1.9c-1.2-0.9-2.3-2.2-3.2-3.7c-0.9-1.5-1.5-3.3-1.9-5.3
			l-0.1-0.8c-0.4-2-0.4-3.9-0.1-5.6c0.3-1.7,0.8-3.2,1.6-4.5c0.8-1.3,1.8-2.4,3-3.3c1.2-0.8,2.6-1.4,4.1-1.7
			c0.8-0.1,1.6-0.2,2.2-0.2c0.9,0,1.7,0.1,2.4,0.4c1.2,0.4,2.2,1.1,3.1,2.2l0.1,0l-0.5-3l7.2-1.3l3.2,17.6c0.2,0.9,0.5,0.9,0.8,0.9
			c0.1,0,0.2,0,0.3,0l1.4-0.3l1.3,6.9l-4.7,0.9c-0.3,0.1-0.7,0.1-1,0.1c-0.8,0-1.6-0.2-2.3-0.7c-0.8-0.5-1.4-1.3-1.6-2.2l-0.1,0
			c-0.4,1.6-1.2,2.9-2.3,3.7c-1.1,0.9-2.5,1.5-4.2,1.8C306.4,89.9,305.7,90,305,90z M306,69.5c-0.4,0-0.8,0-1.2,0.1
			c-1.7,0.3-2.9,1.1-3.7,2.4c-0.8,1.3-1,2.9-0.7,4.9l0.1,0.6c0.4,1.9,1.1,3.4,2.3,4.3c0.9,0.7,1.9,1,3.1,1l0,0c0.4,0,0.8,0,1.2-0.1
			c1.7-0.3,2.9-1.1,3.7-2.4c0.8-1.3,1-2.9,0.7-4.9l-0.1-0.6c-0.4-1.9-1.1-3.4-2.3-4.3C308.2,69.8,307.2,69.5,306,69.5z"/>
		<path d="M316,61.6l3.1,17.1c0.2,0.8,0.6,1.3,1.2,1.3c0.1,0,0.2,0,0.4,0l0.9-0.2l1.1,5.9l-4.2,0.8c-0.3,0.1-0.6,0.1-0.9,0.1
			c-0.8,0-1.4-0.2-2-0.6c-0.8-0.5-1.3-1.3-1.5-2.4l-0.9,0.2c-0.4,1.7-1.1,2.9-2.2,3.8c-1.1,0.9-2.4,1.4-4,1.7
			c-0.7,0.1-1.3,0.2-2,0.2c-0.8,0-1.6-0.1-2.3-0.3c-1.4-0.3-2.7-0.9-3.9-1.8c-1.2-0.9-2.2-2.1-3.1-3.5c-0.9-1.4-1.5-3.2-1.8-5.1
			l-0.1-0.8c-0.4-1.9-0.4-3.7-0.1-5.4c0.3-1.6,0.8-3.1,1.6-4.4c0.8-1.3,1.7-2.3,2.9-3.1c1.2-0.8,2.5-1.3,3.9-1.6
			c0.8-0.1,1.5-0.2,2.2-0.2c0.8,0,1.6,0.1,2.2,0.3c1.2,0.4,2.2,1.2,3,2.3l0.9-0.2l-0.5-3L316,61.6 M306,83.2c0.4,0,0.8,0,1.3-0.1
			c1.8-0.3,3.2-1.2,4-2.6c0.9-1.4,1.1-3.1,0.7-5.2l-0.1-0.6c-0.4-2.1-1.2-3.6-2.5-4.6c-1-0.8-2.1-1.1-3.4-1.1c-0.4,0-0.8,0-1.3,0.1
			c-1.8,0.3-3.2,1.2-4,2.6c-0.9,1.4-1.1,3.1-0.7,5.2l0.1,0.6c0.4,2.1,1.2,3.6,2.5,4.6C303.6,82.9,304.7,83.2,306,83.2 M316.8,60.5
			l-1,0.2l-6.2,1.1l-1,0.2l0.2,1l0.2,1c-0.7-0.6-1.4-1-2.3-1.3c-0.8-0.3-1.6-0.4-2.6-0.4c-0.7,0-1.5,0.1-2.3,0.2
			c-1.6,0.3-3,0.9-4.3,1.8c-1.3,0.9-2.3,2-3.2,3.4c-0.8,1.4-1.4,2.9-1.7,4.7c-0.3,1.8-0.3,3.7,0.1,5.7l0.1,0.8
			c0.4,2.1,1,3.9,1.9,5.5c0.9,1.5,2,2.8,3.3,3.8c1.3,1,2.7,1.7,4.3,2c0.8,0.2,1.7,0.3,2.6,0.3c0.7,0,1.4-0.1,2.2-0.2
			c1.7-0.3,3.2-1,4.4-1.9c0.9-0.7,1.6-1.7,2.1-2.9c0.3,0.5,0.8,1,1.4,1.4c0.8,0.5,1.6,0.7,2.6,0.7c0.3,0,0.7,0,1.1-0.1l4.2-0.8
			l1-0.2l-0.2-1l-1.1-5.9l-0.2-1l-1,0.2l-0.9,0.2c-0.1,0-0.1,0-0.2,0c-0.1,0-0.2,0-0.3-0.5L317,61.5L316.8,60.5L316.8,60.5z
			 M306,82.2c-1.1,0-2-0.3-2.8-0.9c-1.1-0.8-1.8-2.2-2.1-4l-0.1-0.6c-0.3-1.8-0.1-3.3,0.6-4.5c0.7-1.2,1.8-1.9,3.3-2.1
			c0.4-0.1,0.8-0.1,1.1-0.1c1.1,0,2,0.3,2.8,0.9c1.1,0.9,1.8,2.2,2.1,4l0.1,0.6c0.3,1.8,0.1,3.3-0.6,4.5c-0.7,1.2-1.8,1.9-3.3,2.1
			C306.7,82.2,306.3,82.2,306,82.2L306,82.2z"/>
	</g>
	<g>
		<path class="st1" d="M335.1,84.4c-0.7,0-1.4-0.1-2-0.2c-1.5-0.3-2.8-0.7-3.9-1.3c-1.1-0.6-2-1.4-2.6-2.2c-0.7-0.9-1.2-1.7-1.5-2.6
			l-0.2-0.4l6.2-3.4l0.2,0.5c0.4,0.9,1.1,1.7,2,2.3c0.6,0.4,1.3,0.6,2.2,0.6c0.5,0,1-0.1,1.5-0.1c1.8-0.3,2.5-0.8,2.8-1.1
			c0.4-0.5,0.5-0.9,0.5-1.3c0-0.2-0.1-0.5-0.3-0.7c-0.1-0.2-0.4-0.3-0.8-0.5c-0.4-0.2-0.9-0.3-1.6-0.3c-0.2,0-0.5,0-0.7,0
			c-0.5,0-1.1,0-1.8,0.1c-0.7,0.1-1.3,0.1-1.9,0.1c-2.1,0-3.9-0.4-5.3-1.1c-2-1-3.2-2.7-3.7-5.2l-0.1-0.3c-0.2-1.3-0.2-2.5,0.2-3.6
			c0.4-1.1,1-2.1,1.8-2.9c0.8-0.8,1.7-1.5,2.8-2.1c1.1-0.6,2.3-0.9,3.5-1.2c1-0.2,1.9-0.3,2.8-0.3c0.5,0,1,0,1.5,0.1
			c1.3,0.2,2.4,0.5,3.3,1c0.9,0.5,1.8,1.1,2.4,1.8c0.6,0.7,1.2,1.4,1.6,2l0.3,0.4l-6.1,3.8l-0.3-0.5c-0.4-0.7-1-1.3-1.7-1.6
			c-0.5-0.2-1-0.3-1.6-0.3c-0.3,0-0.7,0-1.1,0.1c-0.9,0.2-1.6,0.5-2,0.9c-0.3,0.4-0.5,0.7-0.4,1.1c0.1,0.6,0.5,0.9,1.2,1.1
			c0.4,0.1,1.1,0.1,1.9,0.1h0c0.7,0,1.6,0,2.6-0.1c0.4,0,0.9,0,1.3,0c2.1,0,3.9,0.4,5.5,1.2c1.9,1,3.1,2.7,3.6,5.1l0.1,0.3
			c0.5,2.6-0.1,4.8-1.7,6.7c-1.6,1.9-4.1,3.1-7.4,3.7C337.1,84.3,336,84.4,335.1,84.4z"/>
		<path d="M335.2,57.7c0.5,0,1,0,1.5,0.1c1.2,0.2,2.3,0.5,3.2,1s1.7,1,2.3,1.7c0.6,0.7,1.1,1.3,1.5,1.9l-5.2,3.3
			c-0.5-0.8-1.1-1.4-1.9-1.8c-0.5-0.2-1.1-0.4-1.8-0.4c-0.4,0-0.8,0-1.2,0.1c-1.1,0.2-1.8,0.5-2.3,1c-0.5,0.5-0.6,1-0.5,1.6
			c0.1,0.8,0.7,1.3,1.5,1.5c0.5,0.1,1.2,0.2,2,0.2c0.7,0,1.6,0,2.6-0.1c0.4,0,0.8,0,1.3,0c2,0,3.8,0.4,5.3,1.2
			c1.8,0.9,2.9,2.5,3.3,4.7l0.1,0.3c0.4,2.4-0.1,4.5-1.6,6.3c-1.5,1.8-3.9,3-7.1,3.5c-1.1,0.2-2.1,0.3-3.1,0.3
			c-0.7,0-1.3-0.1-1.9-0.2c-1.4-0.2-2.7-0.7-3.7-1.2c-1-0.6-1.9-1.3-2.5-2.1c-0.6-0.8-1.1-1.6-1.4-2.5l5.4-2.9
			c0.5,1,1.2,1.8,2.2,2.5c0.7,0.4,1.5,0.6,2.5,0.6c0.5,0,1-0.1,1.6-0.2c1.5-0.3,2.6-0.7,3.1-1.3c0.5-0.6,0.7-1.2,0.6-1.7
			c-0.1-0.3-0.2-0.6-0.4-0.9c-0.2-0.3-0.5-0.5-1-0.6c-0.4-0.2-1-0.3-1.7-0.3c-0.2,0-0.5,0-0.7,0c-0.5,0-1.2,0-1.9,0.1
			c-0.6,0.1-1.3,0.1-1.9,0.1c-2,0-3.7-0.3-5.1-1c-1.8-0.9-3-2.5-3.4-4.9l-0.1-0.3c-0.2-1.2-0.2-2.3,0.2-3.4c0.4-1,0.9-1.9,1.6-2.7
			c0.7-0.8,1.6-1.5,2.7-2c1.1-0.5,2.2-0.9,3.4-1.1C333.5,57.7,334.4,57.7,335.2,57.7 M335.2,56.7c-0.9,0-1.8,0.1-2.9,0.3
			c-1.3,0.2-2.5,0.6-3.6,1.2c-1.2,0.6-2.2,1.3-3,2.2c-0.8,0.9-1.5,1.9-1.9,3.1c-0.4,1.2-0.5,2.5-0.2,3.9l0.1,0.3
			c0.5,2.7,1.8,4.5,4,5.6c0.9,0.4,1.8,0.7,2.9,0.9l-0.2,0.1l-5.4,2.9l-0.8,0.4l0.3,0.8c0.4,0.9,0.9,1.8,1.6,2.7
			c0.7,0.9,1.7,1.7,2.8,2.4c1.1,0.6,2.5,1.1,4,1.4c0.7,0.1,1.4,0.2,2.1,0.2c1,0,2.1-0.1,3.3-0.3c3.4-0.6,6-1.9,7.7-3.9
			c1.7-2,2.3-4.4,1.8-7.1l-0.1-0.3c-0.5-2.5-1.7-4.3-3.8-5.4c-1.5-0.8-3.2-1.2-5.2-1.3l0.2-0.1l5.2-3.3l0.8-0.5l-0.5-0.8
			c-0.4-0.7-1-1.4-1.7-2.1c-0.7-0.7-1.6-1.4-2.6-1.9c-1-0.5-2.2-0.9-3.5-1.1C336.3,56.7,335.8,56.7,335.2,56.7L335.2,56.7z
			 M334.4,66.7c-0.8,0-1.4,0-1.8-0.1c-0.6-0.1-0.7-0.4-0.8-0.7c0-0.2,0-0.4,0.3-0.7c0.2-0.2,0.7-0.5,1.7-0.7c0.3-0.1,0.7-0.1,1-0.1
			c0.5,0,1,0.1,1.4,0.3c0.6,0.3,1.1,0.7,1.5,1.4l0.3,0.5c-0.3,0-0.6,0-0.9,0C335.9,66.7,335.1,66.7,334.4,66.7L334.4,66.7z
			 M333.2,74.3c0.6,0,1.3,0,2-0.1c0.7-0.1,1.3-0.1,1.8-0.1c0.2,0,0.5,0,0.7,0c0.6,0,1.1,0.1,1.4,0.3c0.4,0.1,0.5,0.3,0.5,0.3
			c0.1,0.1,0.2,0.3,0.2,0.4c0,0.1,0.1,0.4-0.4,0.9c-0.2,0.2-0.7,0.6-2.5,1c-0.5,0.1-1,0.1-1.4,0.1c-0.8,0-1.4-0.2-1.9-0.5
			c-0.8-0.5-1.4-1.2-1.8-2l-0.2-0.4C332.1,74.3,332.7,74.3,333.2,74.3L333.2,74.3z"/>
	</g>
	<g>
		<path class="st1" d="M359.9,80c-0.6,0-1.2-0.1-1.7-0.2c-1.2-0.2-2.3-0.7-3.3-1.4c-1-0.7-1.9-1.7-2.6-2.9c-0.7-1.2-1.2-2.7-1.5-4.4
			l-2.9-15.8l7.2-1.3l2.6,14.5c0.3,1.6,0.9,2.8,1.8,3.6c0.6,0.5,1.4,0.8,2.4,0.8c0.4,0,0.8,0,1.2-0.1c1.7-0.3,2.9-1.1,3.4-2.3
			c0.6-1.3,0.7-2.9,0.4-4.8l-2.4-13.3l7.2-1.3l4.6,25.5l-7.2,1.3l-0.6-3.6l-0.1,0c-0.7,3-2.9,4.9-6.6,5.6
			C361.2,80,360.5,80,359.9,80z"/>
		<path d="M371.3,51.6l4.4,24.5l-6.2,1.1l-0.6-3.6l-0.9,0.2c-0.6,3-2.7,4.9-6.2,5.5c-0.6,0.1-1.3,0.2-1.9,0.2c-0.6,0-1.1,0-1.7-0.1
			c-1.1-0.2-2.2-0.6-3.1-1.3c-0.9-0.7-1.7-1.6-2.4-2.8c-0.7-1.2-1.2-2.6-1.5-4.3l-2.8-15.3l6.2-1.1l2.5,14c0.3,1.7,1,3,2,3.9
			c0.7,0.6,1.6,0.9,2.7,0.9c0.4,0,0.8,0,1.2-0.1c1.9-0.3,3.1-1.2,3.8-2.6c0.7-1.4,0.8-3.1,0.4-5.2l-2.3-12.8L371.3,51.6 M372.1,50.4
			l-1,0.2l-6.2,1.1l-1,0.2l0.2,1l2.3,12.8c0.3,1.9,0.2,3.4-0.3,4.5c-0.5,1.1-1.5,1.7-3.1,2c-0.4,0.1-0.7,0.1-1.1,0.1
			c-0.8,0-1.5-0.2-2.1-0.7c-0.8-0.7-1.4-1.8-1.6-3.3l-2.5-14l-0.2-1l-1,0.2l-6.2,1.1l-1,0.2l0.2,1l2.8,15.3c0.3,1.8,0.9,3.3,1.6,4.6
			c0.7,1.3,1.6,2.3,2.7,3.1c1.1,0.8,2.2,1.3,3.5,1.5c0.6,0.1,1.2,0.2,1.8,0.2c0.7,0,1.4-0.1,2-0.2c3.1-0.6,5.3-2,6.4-4.2l0.2,1.3
			l0.2,1l1-0.2l6.2-1.1l1-0.2l-0.2-1l-4.4-24.5L372.1,50.4L372.1,50.4z"/>
	</g>
	<g>
		<path class="st1" d="M378.8,68.9l5-0.9l-2.1-11.7l-4.4,0.8l-1.3-6.9l11.4-2.1l0.6,3.6l0.1,0c0.3-1.4,0.9-2.6,1.9-3.5
			c1-1,2.4-1.7,4-2c0.7-0.1,1.3-0.2,1.9-0.2c1.8,0,3.4,0.5,4.8,1.5c1.9,1.3,3.1,3.7,3.7,6.9l0.3,1.5l-7.3,2l-0.2-1.2
			c-0.2-1.2-0.7-2.1-1.4-2.7c-0.5-0.4-1.2-0.6-2-0.6c-0.3,0-0.6,0-1,0.1c-1.2,0.2-2.1,0.8-2.7,1.8c-0.6,1-0.7,2.3-0.4,4l1.3,7.4
			l5.6-1l1.3,6.9L380,75.8L378.8,68.9z"/>
		<path d="M395.8,46.6c1.7,0,3.2,0.5,4.5,1.4c1.8,1.3,2.9,3.5,3.5,6.6l0.2,1.1l-6.3,1.8l-0.1-0.7c-0.2-1.3-0.8-2.4-1.6-3
			c-0.6-0.5-1.4-0.7-2.3-0.7c-0.3,0-0.7,0-1.1,0.1c-1.4,0.3-2.4,0.9-3,2c-0.6,1.1-0.8,2.5-0.4,4.3l1.4,7.9l5.6-1l1.1,5.9l-16.9,3.1
			l-1.1-5.9l5-0.9l-2.3-12.6l-4.4,0.8l-1.1-5.9l10.4-1.9l0.6,3.6l0.9-0.2c0.2-1.4,0.8-2.6,1.8-3.6c1-0.9,2.2-1.6,3.8-1.8
			C394.7,46.6,395.3,46.6,395.8,46.6 M395.8,45.6c-0.6,0-1.3,0.1-2,0.2c-1.7,0.3-3.2,1-4.3,2.1c-0.6,0.6-1.1,1.2-1.4,1.9l-0.2-1.2
			l-0.2-1l-1,0.2l-10.4,1.9l-1,0.2l0.2,1l1.1,5.9l0.2,1l1-0.2l3.5-0.6l1.9,10.7l-4.1,0.7l-1,0.2l0.2,1l1.1,5.9l0.2,1l1-0.2l16.9-3.1
			l1-0.2l-0.2-1l-1.1-5.9l-0.2-1l-1,0.2l-4.6,0.8l-1.3-6.9c-0.3-1.5-0.2-2.8,0.3-3.6c0.5-0.8,1.2-1.3,2.3-1.5
			c0.3-0.1,0.6-0.1,0.9-0.1c0.7,0,1.2,0.2,1.6,0.5c0.7,0.5,1.1,1.3,1.3,2.5l0.1,0.7l0.2,1.1l1.1-0.3l6.3-1.8l0.9-0.2l-0.2-0.9
			l-0.2-1.1c-0.6-3.4-1.9-5.8-3.9-7.2C399.4,46.1,397.7,45.6,395.8,45.6L395.8,45.6z"/>
	</g>
	<g>
		<path class="st1" d="M420.3,69c-0.9,0-1.7-0.1-2.5-0.2c-1.7-0.3-3.2-1-4.6-1.9c-1.4-1-2.5-2.2-3.5-3.8c-0.9-1.6-1.6-3.4-2-5.5
			l-0.1-0.3c-0.4-1.9-0.3-3.8,0-5.5c0.4-1.7,1.1-3.3,2-4.6c1-1.3,2.2-2.5,3.6-3.4c1.4-0.9,3.1-1.5,4.8-1.9c1-0.2,1.9-0.3,2.8-0.3
			c1.1,0,2.1,0.1,3.1,0.4c1.7,0.5,3.2,1.2,4.4,2.2c1.2,1,2.2,2.2,3,3.5c0.7,1.3,1.2,2.7,1.5,4l0.7,3.8l-17.9,3.3
			c0.2,0.4,0.4,0.8,0.6,1.2c0.4,0.5,0.9,0.9,1.4,1.2c0.6,0.3,1.2,0.5,1.9,0.6c0.3,0,0.6,0.1,1,0.1c0.4,0,0.8,0,1.2-0.1
			c1.4-0.3,2.5-0.7,3.2-1.3c0.7-0.6,1.1-1.3,1.3-2l0.1-0.5l6.8,2.3l-0.1,0.5c-0.2,0.7-0.5,1.5-0.9,2.3c-0.4,0.8-1,1.6-1.8,2.4
			c-0.8,0.7-1.8,1.4-2.9,2c-1.2,0.6-2.6,1.1-4.3,1.4C422.2,68.9,421.2,69,420.3,69z M420.8,48.4c-0.5,0-0.9,0-1.4,0.1
			c-1.5,0.3-2.6,0.9-3.3,1.7c-0.6,0.7-1,1.4-1.2,2.2l10.2-1.9c-0.4-0.7-1-1.3-1.9-1.7C422.5,48.5,421.6,48.4,420.8,48.4z"/>
		<path d="M421,42.1c1,0,2,0.1,2.9,0.4c1.6,0.5,3.1,1.2,4.3,2.1c1.2,1,2.1,2.1,2.9,3.4c0.7,1.3,1.2,2.6,1.4,3.9l0.6,3.3l-18,3.3
			c0.2,0.7,0.5,1.4,0.9,1.9c0.4,0.6,0.9,1,1.6,1.3c0.6,0.3,1.3,0.6,2.1,0.7c0.3,0.1,0.7,0.1,1,0.1c0.4,0,0.8,0,1.3-0.1
			c1.5-0.3,2.7-0.8,3.4-1.5c0.7-0.7,1.2-1.5,1.4-2.3l5.9,2c-0.2,0.7-0.5,1.4-0.9,2.2c-0.4,0.8-1,1.5-1.7,2.2
			c-0.7,0.7-1.7,1.4-2.8,1.9c-1.1,0.6-2.5,1-4.1,1.3c-0.9,0.2-1.9,0.3-2.8,0.3c-0.8,0-1.7-0.1-2.4-0.2c-1.6-0.3-3.1-0.9-4.4-1.9
			c-1.3-0.9-2.4-2.1-3.3-3.6c-0.9-1.5-1.5-3.3-1.9-5.3l-0.1-0.3c-0.3-1.9-0.3-3.6,0-5.3c0.4-1.7,1-3.1,1.9-4.4
			c0.9-1.3,2.1-2.4,3.5-3.3c1.4-0.9,2.9-1.5,4.7-1.8C419.2,42.2,420.1,42.1,421,42.1 M414.2,53l11.6-2.1c-0.4-1.1-1.2-2-2.4-2.5
			c-0.8-0.4-1.7-0.6-2.6-0.6c-0.5,0-1,0-1.5,0.1c-1.6,0.3-2.8,0.9-3.6,1.9C414.8,50.9,414.3,51.9,414.2,53 M421,41.1L421,41.1
			c-0.9,0-1.9,0.1-2.9,0.3c-1.8,0.3-3.5,1-5,1.9c-1.5,0.9-2.8,2.1-3.7,3.5c-1,1.4-1.7,3-2.1,4.8c-0.4,1.8-0.4,3.7,0,5.7l0.1,0.3
			c0.4,2.2,1.1,4.1,2,5.7c1,1.6,2.2,2.9,3.6,3.9c1.4,1,3,1.7,4.8,2c0.8,0.2,1.7,0.3,2.6,0.3c0.9,0,1.9-0.1,2.9-0.3
			c1.7-0.3,3.2-0.8,4.4-1.4c1.2-0.6,2.2-1.3,3.1-2.1c0.8-0.8,1.5-1.6,1.9-2.5c0.4-0.8,0.8-1.6,1-2.4l0.2-0.9l-0.9-0.3l-5.9-2
			l-0.8-0.3l6.9-1.3l1-0.2l-0.2-1l-0.6-3.3c-0.3-1.4-0.8-2.8-1.5-4.2c-0.8-1.4-1.8-2.6-3.1-3.7c-1.3-1-2.8-1.8-4.6-2.3
			C423.2,41.2,422.1,41.1,421,41.1L421,41.1z M415.6,51.8c0.2-0.4,0.5-0.8,0.8-1.2c0.7-0.8,1.7-1.3,3.1-1.6c0.5-0.1,0.9-0.1,1.3-0.1
			c0.8,0,1.5,0.2,2.2,0.5c0.5,0.2,0.9,0.5,1.2,0.9L415.6,51.8L415.6,51.8z M416.4,59.2l9.6-1.7l-0.2,0.9c-0.2,0.7-0.6,1.2-1.2,1.8
			c-0.6,0.6-1.6,1-2.9,1.2c-0.4,0.1-0.7,0.1-1.1,0.1c-0.3,0-0.6,0-0.9-0.1c-0.6-0.1-1.2-0.3-1.7-0.6c-0.5-0.3-0.9-0.6-1.3-1.1
			C416.6,59.5,416.5,59.4,416.4,59.2L416.4,59.2z"/>
	</g>
	<g>
		<path class="st1" d="M450,63.8c-0.4,0-0.8,0-1.1-0.1c-0.7-0.2-1.3-0.4-1.8-0.8c-0.6-0.4-1-0.9-1.4-1.4c-0.4-0.6-0.7-1.2-0.8-2
			c-0.1-0.7-0.1-1.4,0-2.1c0.2-0.7,0.4-1.3,0.8-1.8c0.4-0.5,0.9-1,1.4-1.4c0.6-0.4,1.2-0.6,2-0.8c0.3-0.1,0.6-0.1,0.9-0.1
			c0.4,0,0.8,0,1.1,0.1c0.7,0.2,1.3,0.4,1.9,0.8c0.6,0.4,1,0.9,1.4,1.4c0.4,0.6,0.7,1.2,0.8,2c0.1,0.7,0.1,1.4,0,2.1
			c-0.2,0.7-0.4,1.3-0.8,1.8c-0.4,0.5-0.9,1-1.5,1.4c-0.6,0.4-1.2,0.6-1.9,0.8C450.6,63.7,450.3,63.8,450,63.8z M444.4,48.4
			c-0.3-1.4,0-2.7,0.8-3.8c0.8-1.1,1.9-1.8,3.3-2.1l0.9-0.2c1.3-0.2,2.2-0.8,2.8-1.7c0.6-0.9,0.7-2,0.5-3.4
			c-0.2-1.3-0.8-2.2-1.9-2.9c-0.7-0.5-1.6-0.8-2.6-0.8c-0.4,0-0.8,0-1.2,0.1c-0.8,0.1-1.5,0.4-2.1,0.8c-0.6,0.4-1,0.9-1.4,1.5
			c-0.4,0.6-0.6,1.2-0.7,1.9c-0.1,0.7-0.1,1.4,0,2.1l0.5,2.6l-7.5,1.4l-0.6-3.2c-0.3-1.5-0.3-3.1,0-4.6c0.3-1.5,0.9-3,1.8-4.3
			c0.9-1.3,2.1-2.4,3.5-3.4c1.5-1,3.2-1.6,5.2-2c0.9-0.2,1.8-0.2,2.6-0.2c0.8,0,1.7,0.1,2.5,0.2c1.6,0.3,3.1,0.9,4.3,1.8
			c1.3,0.9,2.3,2,3.2,3.3c0.8,1.3,1.4,2.8,1.7,4.4l0.1,0.3c0.3,1.4,0.3,2.8,0.1,4.1c-0.2,1.4-0.6,2.6-1.2,3.7
			c-0.6,1.1-1.5,2.1-2.5,2.9c-1.1,0.8-2.4,1.3-3.8,1.6c-0.5,0.1-0.6,0.3-0.6,0.3c-0.1,0.2-0.1,0.5-0.1,0.8l0.4,2.1l-7.2,1.3
			L444.4,48.4z"/>
		<path d="M448.5,26.7c0.8,0,1.6,0.1,2.4,0.2c1.6,0.3,2.9,0.9,4.2,1.7c1.2,0.8,2.2,1.9,3,3.1c0.8,1.3,1.4,2.7,1.6,4.3l0.1,0.3
			c0.2,1.4,0.3,2.7,0.1,4c-0.2,1.3-0.6,2.5-1.2,3.5c-0.6,1.1-1.4,2-2.4,2.7c-1,0.8-2.2,1.3-3.6,1.5c-0.5,0.1-0.8,0.3-1,0.6
			c-0.2,0.3-0.2,0.7-0.1,1.1l0.3,1.6l-6.2,1.1l-0.8-4.2c-0.2-1.3,0-2.4,0.7-3.5c0.7-1,1.7-1.7,3-1.9l0.9-0.2
			c1.4-0.3,2.4-0.9,3.1-1.9c0.6-1,0.8-2.3,0.6-3.7c-0.3-1.4-0.9-2.5-2.1-3.2c-0.8-0.6-1.8-0.8-2.9-0.8c-0.4,0-0.9,0-1.3,0.1
			c-0.9,0.2-1.7,0.5-2.3,0.9c-0.6,0.4-1.1,1-1.5,1.6c-0.4,0.6-0.7,1.3-0.8,2.1c-0.1,0.8-0.1,1.5,0,2.3l0.4,2.1l-6.5,1.2l-0.5-2.7
			c-0.3-1.5-0.3-3,0-4.4c0.3-1.5,0.9-2.8,1.7-4.1c0.8-1.2,2-2.3,3.4-3.2c1.4-0.9,3.1-1.6,5-1.9C446.8,26.8,447.7,26.7,448.5,26.7
			 M450,53.7c0.3,0,0.7,0,1,0.1c0.6,0.1,1.2,0.4,1.7,0.7c0.5,0.3,0.9,0.8,1.3,1.3c0.4,0.5,0.6,1.1,0.7,1.8c0.1,0.7,0.1,1.3,0,1.9
			c-0.1,0.6-0.4,1.2-0.7,1.7c-0.4,0.5-0.8,0.9-1.3,1.3c-0.5,0.4-1.1,0.6-1.7,0.7c-0.3,0.1-0.6,0.1-0.9,0.1c-0.3,0-0.7,0-1-0.1
			c-0.6-0.1-1.2-0.4-1.7-0.7c-0.5-0.3-0.9-0.8-1.3-1.3c-0.4-0.5-0.6-1.1-0.7-1.8c-0.1-0.7-0.1-1.3,0-1.9c0.1-0.6,0.4-1.2,0.7-1.7
			c0.4-0.5,0.8-0.9,1.3-1.3c0.5-0.3,1.1-0.6,1.8-0.7C449.4,53.7,449.7,53.7,450,53.7 M448.5,25.7c-0.9,0-1.8,0.1-2.7,0.3
			c-2.1,0.4-3.9,1.1-5.4,2.1c-1.5,1-2.8,2.2-3.7,3.5c-0.9,1.4-1.5,2.8-1.9,4.5c-0.3,1.6-0.3,3.2,0,4.8l0.5,2.7l0.2,1l1-0.2l6.5-1.2
			l1-0.2l-0.2-1l-0.4-2.1c-0.1-0.6-0.1-1.3,0-1.9c0.1-0.6,0.3-1.2,0.6-1.7c0.3-0.5,0.7-1,1.3-1.3c0.5-0.4,1.2-0.6,1.9-0.7
			c0.4-0.1,0.8-0.1,1.1-0.1c0.9,0,1.6,0.2,2.3,0.7c0.9,0.6,1.5,1.5,1.7,2.6c0.2,1.2,0.1,2.2-0.4,3c-0.5,0.8-1.3,1.3-2.4,1.5
			l-0.9,0.2c-1.5,0.3-2.8,1.1-3.6,2.3c-0.9,1.3-1.2,2.7-0.9,4.2l0.8,4.2l0.2,1l1-0.2l1.7-0.3c-0.2,0.1-0.5,0.3-0.7,0.4
			c-0.6,0.4-1.1,0.9-1.6,1.5c-0.4,0.6-0.7,1.3-0.9,2c-0.2,0.8-0.2,1.5,0,2.3c0.1,0.8,0.4,1.5,0.9,2.2c0.4,0.6,1,1.2,1.6,1.6
			c0.6,0.4,1.3,0.7,2,0.9c0.4,0.1,0.8,0.1,1.3,0.1c0.3,0,0.7,0,1.1-0.1c0.8-0.1,1.5-0.4,2.1-0.8c0.6-0.4,1.2-0.9,1.6-1.5
			c0.4-0.6,0.7-1.3,0.9-2c0.2-0.8,0.2-1.5,0-2.3c-0.1-0.8-0.4-1.5-0.9-2.2c-0.4-0.6-1-1.2-1.6-1.6c-0.6-0.4-1.3-0.7-2-0.9
			c-0.3-0.1-0.5-0.1-0.8-0.1l1.6-0.3l1-0.2l-0.2-1l-0.3-1.6c0-0.1,0-0.3,0-0.5c0,0,0.1-0.1,0.3-0.1c1.5-0.3,2.9-0.9,4-1.7
			c1.1-0.8,2-1.9,2.7-3c0.6-1.2,1.1-2.5,1.3-3.9c0.2-1.4,0.2-2.8-0.1-4.3l-0.1-0.3c-0.3-1.7-0.9-3.3-1.8-4.6c-0.9-1.4-2-2.5-3.3-3.4
			c-1.3-0.9-2.9-1.5-4.5-1.9C450.2,25.8,449.4,25.7,448.5,25.7L448.5,25.7z"/>
	</g>
</g>
</svg>
