<svg width="160" height="160" viewBox="0 0 160 160" fill="none" xmlns="http://www.w3.org/2000/svg">
<g clip-path="url(#clip0)">
<path d="M101.5 116H58.66L52.54 143H27.7L57.76 17H102.4L132.46 143H107.62L101.5 116ZM63.7 93.32H96.28L81.7 28.88H78.46L63.7 93.32Z" fill="#D9D2E9"/>
<path d="M101.5 116L104.426 115.337L103.896 113H101.5V116ZM58.66 116V113H56.2639L55.7342 115.337L58.66 116ZM52.54 143V146H54.9361L55.4658 143.663L52.54 143ZM27.7 143L24.7819 142.304L23.9001 146H27.7V143ZM57.76 17V14H55.3915L54.8419 16.3038L57.76 17ZM102.4 17L105.318 16.3038L104.768 14H102.4V17ZM132.46 143V146H136.26L135.378 142.304L132.46 143ZM107.62 143L104.694 143.663L105.224 146H107.62V143ZM63.7 93.32L60.7757 92.6502L59.9352 96.32H63.7V93.32ZM96.28 93.32V96.32H100.035L99.206 92.658L96.28 93.32ZM81.7 28.88L84.626 28.218L84.0971 25.88H81.7V28.88ZM78.46 28.88V25.88H76.0695L75.5357 28.2102L78.46 28.88ZM101.5 113H58.66V119H101.5V113ZM55.7342 115.337L49.6142 142.337L55.4658 143.663L61.5858 116.663L55.7342 115.337ZM52.54 140H27.7V146H52.54V140ZM30.6181 143.696L60.6781 17.6962L54.8419 16.3038L24.7819 142.304L30.6181 143.696ZM57.76 20H102.4V14H57.76V20ZM99.4819 17.6962L129.542 143.696L135.378 142.304L105.318 16.3038L99.4819 17.6962ZM132.46 140H107.62V146H132.46V140ZM110.546 142.337L104.426 115.337L98.5742 116.663L104.694 143.663L110.546 142.337ZM63.7 96.32H96.28V90.32H63.7V96.32ZM99.206 92.658L84.626 28.218L78.774 29.542L93.354 93.982L99.206 92.658ZM81.7 25.88H78.46V31.88H81.7V25.88ZM75.5357 28.2102L60.7757 92.6502L66.6243 93.9898L81.3843 29.5498L75.5357 28.2102Z" fill="black"/>
</g>
<defs>
<clipPath id="clip0">
<rect width="160" height="160" fill="white"/>
</clipPath>
</defs>
</svg>
