<svg width="160" height="160" viewBox="0 0 160 160" fill="none" xmlns="http://www.w3.org/2000/svg">
<g clip-path="url(#clip0)">
<path d="M33.28 120.32H45.16V39.68H33.28V17H88.54C94.54 17 99.82 17.84 104.38 19.52C109.06 21.2 112.96 23.48 116.08 26.36C119.32 29.24 121.72 32.72 123.28 36.8C124.96 40.76 125.8 45.08 125.8 49.76V51.92C125.8 59.12 123.76 64.88 119.68 69.2C115.72 73.52 110.68 76.52 104.56 78.2V81.44C110.68 83.12 115.72 86.18 119.68 90.62C123.76 94.94 125.8 100.7 125.8 107.9V110.06C125.8 114.74 124.96 119.12 123.28 123.2C121.72 127.16 119.32 130.64 116.08 133.64C112.96 136.52 109.06 138.8 104.38 140.48C99.82 142.16 94.54 143 88.54 143H33.28V120.32ZM68.92 120.32H86.2C91.24 120.32 95.32 119.24 98.44 117.08C101.56 114.92 103.12 111.32 103.12 106.28V105.2C103.12 100.16 101.56 96.56 98.44 94.4C95.32 92.24 91.24 91.16 86.2 91.16H68.92V120.32ZM68.92 68.48H86.2C91.24 68.48 95.32 67.46 98.44 65.42C101.56 63.26 103.12 59.66 103.12 54.62V53.54C103.12 48.5 101.56 44.96 98.44 42.92C95.32 40.76 91.24 39.68 86.2 39.68H68.92V68.48Z" fill="#D9D2E9"/>
<path d="M33.28 120.32V117.32H30.28V120.32H33.28ZM45.16 120.32V123.32H48.16V120.32H45.16ZM45.16 39.68H48.16V36.68H45.16V39.68ZM33.28 39.68H30.28V42.68H33.28V39.68ZM33.28 17V14H30.28V17H33.28ZM104.38 19.52L103.343 22.335L103.355 22.3393L103.366 22.3436L104.38 19.52ZM116.08 26.36L114.045 28.5644L114.066 28.5835L114.087 28.6022L116.08 26.36ZM123.28 36.8L120.478 37.8714L120.497 37.9219L120.518 37.9716L123.28 36.8ZM119.68 69.2L117.499 67.1401L117.484 67.1564L117.469 67.1728L119.68 69.2ZM104.56 78.2L103.766 75.307L101.56 75.9125V78.2H104.56ZM104.56 81.44H101.56V83.7274L103.766 84.333L104.56 81.44ZM119.68 90.62L117.441 92.6168L117.47 92.6488L117.499 92.6799L119.68 90.62ZM123.28 123.2L120.506 122.058L120.497 122.079L120.489 122.1L123.28 123.2ZM116.08 133.64L118.115 135.844L118.118 135.841L116.08 133.64ZM104.38 140.48L103.366 137.656L103.355 137.661L103.343 137.665L104.38 140.48ZM33.28 143H30.28V146H33.28V143ZM68.92 120.32H65.92V123.32H68.92V120.32ZM98.44 117.08L96.7324 114.613L96.7324 114.613L98.44 117.08ZM68.92 91.16V88.16H65.92V91.16H68.92ZM68.92 68.48H65.92V71.48H68.92V68.48ZM98.44 65.42L100.082 67.9309L100.115 67.9092L100.148 67.8866L98.44 65.42ZM98.44 42.92L96.7324 45.3866L96.765 45.4092L96.7983 45.4309L98.44 42.92ZM68.92 39.68V36.68H65.92V39.68H68.92ZM33.28 123.32H45.16V117.32H33.28V123.32ZM48.16 120.32V39.68H42.16V120.32H48.16ZM45.16 36.68H33.28V42.68H45.16V36.68ZM36.28 39.68V17H30.28V39.68H36.28ZM33.28 20H88.54V14H33.28V20ZM88.54 20C94.2662 20 99.1826 20.8023 103.343 22.335L105.417 16.705C100.457 14.8777 94.8138 14 88.54 14V20ZM103.366 22.3436C107.732 23.9107 111.267 25.9997 114.045 28.5644L118.115 24.1556C114.653 20.9603 110.388 18.4893 105.394 16.6964L103.366 22.3436ZM114.087 28.6022C116.964 31.16 119.088 34.2373 120.478 37.8714L126.082 35.7286C124.352 31.2026 121.676 27.32 118.073 24.1178L114.087 28.6022ZM120.518 37.9716C122.028 41.5295 122.8 45.4469 122.8 49.76H128.8C128.8 44.7131 127.892 39.9905 126.042 35.6283L120.518 37.9716ZM122.8 49.76V51.92H128.8V49.76H122.8ZM122.8 51.92C122.8 58.5255 120.946 63.4903 117.499 67.1401L121.861 71.2599C126.574 66.2697 128.8 59.7145 128.8 51.92H122.8ZM117.469 67.1728C113.922 71.0421 109.388 73.7636 103.766 75.307L105.354 81.093C111.972 79.2764 117.518 75.9979 121.891 71.2272L117.469 67.1728ZM101.56 78.2V81.44H107.56V78.2H101.56ZM103.766 84.333C109.367 85.8705 113.892 88.6378 117.441 92.6168L121.919 88.6232C117.548 83.7222 111.993 80.3695 105.354 78.547L103.766 84.333ZM117.499 92.6799C120.946 96.3297 122.8 101.294 122.8 107.9H128.8C128.8 100.106 126.574 93.5503 121.861 88.5601L117.499 92.6799ZM122.8 107.9V110.06H128.8V107.9H122.8ZM122.8 110.06C122.8 114.372 122.028 118.362 120.506 122.058L126.054 124.342C127.892 119.878 128.8 115.108 128.8 110.06H122.8ZM120.489 122.1C119.1 125.625 116.964 128.733 114.042 131.439L118.118 135.841C121.676 132.547 124.34 128.695 126.071 124.3L120.489 122.1ZM114.045 131.436C111.267 134 107.732 136.089 103.366 137.656L105.394 143.304C110.388 141.511 114.653 139.04 118.115 135.844L114.045 131.436ZM103.343 137.665C99.1826 139.198 94.2662 140 88.54 140V146C94.8138 146 100.457 145.122 105.417 143.295L103.343 137.665ZM88.54 140H33.28V146H88.54V140ZM36.28 143V120.32H30.28V143H36.28ZM68.92 123.32H86.2V117.32H68.92V123.32ZM86.2 123.32C91.6529 123.32 96.385 122.151 100.148 119.547L96.7324 114.613C94.255 116.329 90.8271 117.32 86.2 117.32V123.32ZM100.148 119.547C104.331 116.65 106.12 111.948 106.12 106.28H100.12C100.12 110.692 98.7888 113.19 96.7324 114.613L100.148 119.547ZM106.12 106.28V105.2H100.12V106.28H106.12ZM106.12 105.2C106.12 99.5316 104.331 94.8298 100.148 91.9334L96.7324 96.8666C98.7888 98.2902 100.12 100.788 100.12 105.2H106.12ZM100.148 91.9334C96.385 89.3285 91.6529 88.16 86.2 88.16V94.16C90.8271 94.16 94.255 95.1514 96.7324 96.8666L100.148 91.9334ZM86.2 88.16H68.92V94.16H86.2V88.16ZM65.92 91.16V120.32H71.92V91.16H65.92ZM68.92 71.48H86.2V65.48H68.92V71.48ZM86.2 71.48C91.6233 71.48 96.3297 70.3842 100.082 67.9309L96.7983 62.9091C94.3103 64.5358 90.8567 65.48 86.2 65.48V71.48ZM100.148 67.8866C104.331 64.9902 106.12 60.2884 106.12 54.62H100.12C100.12 59.0316 98.7888 61.5298 96.7324 62.9534L100.148 67.8866ZM106.12 54.62V53.54H100.12V54.62H106.12ZM106.12 53.54C106.12 47.8819 104.333 43.189 100.082 40.4091L96.7983 45.4309C98.7866 46.7309 100.12 49.1181 100.12 53.54H106.12ZM100.148 40.4534C96.385 37.8485 91.6529 36.68 86.2 36.68V42.68C90.8271 42.68 94.255 43.6714 96.7324 45.3866L100.148 40.4534ZM86.2 36.68H68.92V42.68H86.2V36.68ZM65.92 39.68V68.48H71.92V39.68H65.92Z" fill="black"/>
</g>
<defs>
<clipPath id="clip0">
<rect width="160" height="160" fill="white"/>
</clipPath>
</defs>
</svg>
