<svg width="160" height="160" viewBox="0 0 160 160" fill="none" xmlns="http://www.w3.org/2000/svg">
<g clip-path="url(#clip0)">
<path d="M80.44 123.92C85 123.92 88.72 123.26 91.6 121.94C94.6 120.5 96.88 118.64 98.44 116.36C100.12 113.96 101.26 111.26 101.86 108.26C102.46 105.14 102.76 101.96 102.76 98.72V95.48H126.52V98.72C126.52 113.72 122.56 125.3 114.64 133.46C106.84 141.5 95.44 145.52 80.44 145.52C66.04 145.52 54.64 141.14 46.24 132.38C37.84 123.62 33.64 110.84 33.64 94.04V65.96C33.64 57.92 34.72 50.72 36.88 44.36C39.04 37.88 42.16 32.48 46.24 28.16C50.32 23.72 55.24 20.36 61 18.08C66.76 15.68 73.24 14.48 80.44 14.48C87.88 14.48 94.48 15.56 100.24 17.72C106 19.88 110.8 23 114.64 27.08C118.6 31.16 121.54 36.08 123.46 41.84C125.5 47.6 126.52 54.08 126.52 61.28V64.52H102.76V61.28C102.76 58.28 102.4 55.28 101.68 52.28C100.96 49.28 99.76 46.58 98.08 44.18C96.4 41.78 94.12 39.86 91.24 38.42C88.36 36.86 84.76 36.08 80.44 36.08C76.48 36.08 73.06 36.86 70.18 38.42C67.3 39.86 64.9 41.9 62.98 44.54C61.06 47.06 59.62 50.06 58.66 53.54C57.82 56.9 57.4 60.44 57.4 64.16V95.84C57.4 99.92 57.82 103.7 58.66 107.18C59.5 110.54 60.82 113.48 62.62 116C64.42 118.52 66.76 120.5 69.64 121.94C72.64 123.26 76.24 123.92 80.44 123.92Z" fill="#D9D2E9"/>
<path d="M91.6 121.94L92.85 124.667L92.8742 124.656L92.8982 124.645L91.6 121.94ZM98.44 116.36L95.9823 114.64L95.9731 114.653L95.9641 114.666L98.44 116.36ZM101.86 108.26L104.802 108.848L104.804 108.837L104.806 108.827L101.86 108.26ZM102.76 95.48V92.48H99.76V95.48H102.76ZM126.52 95.48H129.52V92.48H126.52V95.48ZM114.64 133.46L112.487 131.371L112.487 131.371L114.64 133.46ZM46.24 132.38L48.4053 130.304L48.4053 130.304L46.24 132.38ZM36.88 44.36L39.7206 45.3247L39.7234 45.3167L39.726 45.3087L36.88 44.36ZM46.24 28.16L48.421 30.2199L48.4351 30.205L48.449 30.1899L46.24 28.16ZM61 18.08L62.1041 20.8694L62.1291 20.8595L62.1538 20.8492L61 18.08ZM114.64 27.08L112.455 29.1361L112.471 29.1529L112.487 29.1694L114.64 27.08ZM123.46 41.84L120.614 42.7887L120.623 42.8152L120.632 42.8415L123.46 41.84ZM126.52 64.52V67.52H129.52V64.52H126.52ZM102.76 64.52H99.76V67.52H102.76V64.52ZM101.68 52.28L104.597 51.5799L104.597 51.5799L101.68 52.28ZM91.24 38.42L89.8112 41.0579L89.8544 41.0813L89.8984 41.1033L91.24 38.42ZM70.18 38.42L71.5216 41.1033L71.5656 41.0813L71.6089 41.0579L70.18 38.42ZM62.98 44.54L65.3663 46.3581L65.3866 46.3315L65.4062 46.3045L62.98 44.54ZM58.66 53.54L55.768 52.7422L55.7584 52.7772L55.7496 52.8124L58.66 53.54ZM58.66 107.18L55.7438 107.884L55.7466 107.896L55.7496 107.908L58.66 107.18ZM69.64 121.94L68.2984 124.623L68.3643 124.656L68.4318 124.686L69.64 121.94ZM80.44 126.92C85.2561 126.92 89.4447 126.228 92.85 124.667L90.35 119.213C87.9953 120.292 84.7439 120.92 80.44 120.92V126.92ZM92.8982 124.645C96.2756 123.023 99.0034 120.849 100.916 118.054L95.9641 114.666C94.7566 116.431 92.9244 117.977 90.3018 119.235L92.8982 124.645ZM100.898 118.08C102.826 115.326 104.124 112.237 104.802 108.848L98.9183 107.672C98.3959 110.283 97.4139 112.594 95.9823 114.64L100.898 118.08ZM104.806 108.827C105.443 105.516 105.76 102.146 105.76 98.72H99.76C99.76 101.774 99.4774 104.764 98.914 107.693L104.806 108.827ZM105.76 98.72V95.48H99.76V98.72H105.76ZM102.76 98.48H126.52V92.48H102.76V98.48ZM123.52 95.48V98.72H129.52V95.48H123.52ZM123.52 98.72C123.52 113.197 119.708 123.931 112.487 131.371L116.793 135.549C125.412 126.669 129.52 114.243 129.52 98.72H123.52ZM112.487 131.371C105.424 138.652 94.9137 142.52 80.44 142.52V148.52C95.9663 148.52 108.256 144.348 116.793 135.549L112.487 131.371ZM80.44 142.52C66.6926 142.52 56.1348 138.364 48.4053 130.304L44.0747 134.456C53.1452 143.916 65.3874 148.52 80.44 148.52V142.52ZM48.4053 130.304C40.7183 122.287 36.64 110.367 36.64 94.04H30.64C30.64 111.313 34.9617 124.953 44.0747 134.456L48.4053 130.304ZM36.64 94.04V65.96H30.64V94.04H36.64ZM36.64 65.96C36.64 58.1854 37.6846 51.3197 39.7206 45.3247L34.0394 43.3952C31.7554 50.1203 30.64 57.6546 30.64 65.96H36.64ZM39.726 45.3087C41.7685 39.1812 44.6827 34.1781 48.421 30.2199L44.059 26.1001C39.6373 30.7819 36.3115 36.5787 34.034 43.4113L39.726 45.3087ZM48.449 30.1899C52.2142 26.0924 56.7531 22.9875 62.1041 20.8694L59.8959 15.2906C53.7269 17.7325 48.4258 21.3476 44.031 26.1301L48.449 30.1899ZM62.1538 20.8492C67.4964 18.6232 73.5757 17.48 80.44 17.48V11.48C72.9043 11.48 66.0236 12.7368 59.8462 15.3108L62.1538 20.8492ZM80.44 17.48C87.5934 17.48 93.8258 18.5187 99.1866 20.529L101.293 14.911C95.1342 12.6013 88.1666 11.48 80.44 11.48V17.48ZM99.1866 20.529C104.56 22.5439 108.96 25.422 112.455 29.1361L116.825 25.0239C112.64 20.578 107.44 17.2161 101.293 14.911L99.1866 20.529ZM112.487 29.1694C116.112 32.9044 118.827 37.4265 120.614 42.7887L126.306 40.8913C124.253 34.7334 121.088 29.4156 116.793 24.9906L112.487 29.1694ZM120.632 42.8415C122.54 48.2283 123.52 54.3618 123.52 61.28H129.52C129.52 53.7982 128.46 46.9717 126.288 40.8385L120.632 42.8415ZM123.52 61.28V64.52H129.52V61.28H123.52ZM126.52 61.52H102.76V67.52H126.52V61.52ZM105.76 64.52V61.28H99.76V64.52H105.76ZM105.76 61.28C105.76 58.0376 105.371 54.8027 104.597 51.5799L98.7628 52.9801C99.4294 55.7573 99.76 58.5224 99.76 61.28H105.76ZM104.597 51.5799C103.794 48.2337 102.445 45.184 100.538 42.4596L95.6223 45.9004C97.0752 47.9759 98.1259 50.3263 98.7628 52.9801L104.597 51.5799ZM100.538 42.4596C98.5439 39.6113 95.8627 37.3773 92.5816 35.7367L89.8984 41.1033C92.3773 42.3427 94.2561 43.9487 95.6223 45.9004L100.538 42.4596ZM92.6689 35.7821C89.2324 33.9207 85.1054 33.08 80.44 33.08V39.08C84.4146 39.08 87.4876 39.7993 89.8112 41.0579L92.6689 35.7821ZM80.44 33.08C76.0846 33.08 72.1528 33.9396 68.7512 35.7821L71.6089 41.0579C73.9672 39.7804 76.8754 39.08 80.44 39.08V33.08ZM68.8384 35.7367C65.5223 37.3947 62.7524 39.7523 60.5538 42.7755L65.4062 46.3045C67.0476 44.0476 69.0777 42.3253 71.5216 41.1033L68.8384 35.7367ZM60.5937 42.7219C58.4114 45.5861 56.8158 48.944 55.768 52.7422L61.552 54.3378C62.4242 51.176 63.7086 48.5339 65.3663 46.3581L60.5937 42.7219ZM55.7496 52.8124C54.8459 56.4272 54.4 60.2128 54.4 64.16H60.4C60.4 60.6672 60.7941 57.3728 61.5704 54.2676L55.7496 52.8124ZM54.4 64.16V95.84H60.4V64.16H54.4ZM54.4 95.84C54.4 100.125 54.841 104.144 55.7438 107.884L61.5762 106.476C60.799 103.256 60.4 99.7152 60.4 95.84H54.4ZM55.7496 107.908C56.6701 111.59 58.1356 114.883 60.1788 117.744L65.0612 114.256C63.5044 112.077 62.3299 109.49 61.5704 106.452L55.7496 107.908ZM60.1788 117.744C62.2747 120.678 64.9987 122.973 68.2984 124.623L70.9816 119.257C68.5213 118.027 66.5653 116.362 65.0612 114.256L60.1788 117.744ZM68.4318 124.686C71.9036 126.214 75.9365 126.92 80.44 126.92V120.92C76.5435 120.92 73.3764 120.306 70.8482 119.194L68.4318 124.686Z" fill="black"/>
</g>
<defs>
<clipPath id="clip0">
<rect width="160" height="160" fill="white"/>
</clipPath>
</defs>
</svg>
