<svg width="160" height="160" viewBox="0 0 160 160" fill="none" xmlns="http://www.w3.org/2000/svg">
<g clip-path="url(#clip0)">
<path d="M33.28 17H79C94.6 17 106.18 20.66 113.74 27.98C121.3 35.18 125.08 46.4 125.08 61.64V98.36C125.08 113.6 121.3 124.88 113.74 132.2C106.18 139.4 94.6 143 79 143H33.28V120.14H45.16V39.68H33.28V17ZM79 120.32C87.28 120.32 93.04 118.4 96.28 114.56C99.64 110.6 101.32 104.48 101.32 96.2V61.64C101.32 54.44 99.64 48.98 96.28 45.26C93.04 41.54 87.28 39.68 79 39.68H68.92V120.32H79Z" fill="#D9D2E9"/>
<path d="M33.28 17V14H30.28V17H33.28ZM113.74 27.98L111.653 30.1352L111.662 30.1439L111.671 30.1524L113.74 27.98ZM113.74 132.2L115.809 134.372L115.818 134.364L115.827 134.355L113.74 132.2ZM33.28 143H30.28V146H33.28V143ZM33.28 120.14V117.14H30.28V120.14H33.28ZM45.16 120.14V123.14H48.16V120.14H45.16ZM45.16 39.68H48.16V36.68H45.16V39.68ZM33.28 39.68H30.28V42.68H33.28V39.68ZM96.28 114.56L93.9925 112.619L93.9871 112.625L96.28 114.56ZM96.28 45.26L94.0178 47.2303L94.0355 47.2508L94.0537 47.2709L96.28 45.26ZM68.92 39.68V36.68H65.92V39.68H68.92ZM68.92 120.32H65.92V123.32H68.92V120.32ZM33.28 20H79V14H33.28V20ZM79 20C94.1924 20 104.872 23.5696 111.653 30.1352L115.827 25.8247C107.488 17.7503 95.0076 14 79 14V20ZM111.671 30.1524C118.408 36.5689 122.08 46.8411 122.08 61.64H128.08C128.08 45.9589 124.192 33.7911 115.809 25.8076L111.671 30.1524ZM122.08 61.64V98.36H128.08V61.64H122.08ZM122.08 98.36C122.08 113.154 118.41 123.502 111.653 130.045L115.827 134.355C124.19 126.258 128.08 114.046 128.08 98.36H122.08ZM111.671 130.028C104.891 136.485 94.2038 140 79 140V146C94.9963 146 107.469 142.315 115.809 134.372L111.671 130.028ZM79 140H33.28V146H79V140ZM36.28 143V120.14H30.28V143H36.28ZM33.28 123.14H45.16V117.14H33.28V123.14ZM48.16 120.14V39.68H42.16V120.14H48.16ZM45.16 36.68H33.28V42.68H45.16V36.68ZM36.28 39.68V17H30.28V39.68H36.28ZM79 123.32C87.6048 123.32 94.4807 121.345 98.5729 116.495L93.9871 112.625C91.5993 115.455 86.9552 117.32 79 117.32V123.32ZM98.5675 116.501C102.592 111.758 104.32 104.793 104.32 96.2H98.32C98.32 104.167 96.6879 109.442 93.9925 112.619L98.5675 116.501ZM104.32 96.2V61.64H98.32V96.2H104.32ZM104.32 61.64C104.32 54.018 102.544 47.7196 98.5063 43.2491L94.0537 47.2709C96.7359 50.2404 98.32 54.862 98.32 61.64H104.32ZM98.5422 43.2896C94.4436 38.5839 87.5806 36.68 79 36.68V42.68C86.9794 42.68 91.6364 44.4961 94.0178 47.2303L98.5422 43.2896ZM79 36.68H68.92V42.68H79V36.68ZM65.92 39.68V120.32H71.92V39.68H65.92ZM68.92 123.32H79V117.32H68.92V123.32Z" fill="black"/>
</g>
<defs>
<clipPath id="clip0">
<rect width="160" height="160" fill="white"/>
</clipPath>
</defs>
</svg>
