<svg width="160" height="160" viewBox="0 0 160 160" fill="none" xmlns="http://www.w3.org/2000/svg">
<g clip-path="url(#clip0)">
<path d="M39.76 17H119.32V39.68H63.52V68.48H117.16V91.16H63.52V120.32H121.48V143H39.76V17Z" fill="#D9D2E9"/>
<path d="M39.76 17V14H36.76V17H39.76ZM119.32 17H122.32V14H119.32V17ZM119.32 39.68V42.68H122.32V39.68H119.32ZM63.52 39.68V36.68H60.52V39.68H63.52ZM63.52 68.48H60.52V71.48H63.52V68.48ZM117.16 68.48H120.16V65.48H117.16V68.48ZM117.16 91.16V94.16H120.16V91.16H117.16ZM63.52 91.16V88.16H60.52V91.16H63.52ZM63.52 120.32H60.52V123.32H63.52V120.32ZM121.48 120.32H124.48V117.32H121.48V120.32ZM121.48 143V146H124.48V143H121.48ZM39.76 143H36.76V146H39.76V143ZM39.76 20H119.32V14H39.76V20ZM116.32 17V39.68H122.32V17H116.32ZM119.32 36.68H63.52V42.68H119.32V36.68ZM60.52 39.68V68.48H66.52V39.68H60.52ZM63.52 71.48H117.16V65.48H63.52V71.48ZM114.16 68.48V91.16H120.16V68.48H114.16ZM117.16 88.16H63.52V94.16H117.16V88.16ZM60.52 91.16V120.32H66.52V91.16H60.52ZM63.52 123.32H121.48V117.32H63.52V123.32ZM118.48 120.32V143H124.48V120.32H118.48ZM121.48 140H39.76V146H121.48V140ZM42.76 143V17H36.76V143H42.76Z" fill="black"/>
</g>
<defs>
<clipPath id="clip0">
<rect width="160" height="160" fill="white"/>
</clipPath>
</defs>
</svg>
