<svg width="160" height="160" viewBox="0 0 160 160" fill="none" xmlns="http://www.w3.org/2000/svg">
<g clip-path="url(#clip0)">
<path d="M40.84 17H121.48V39.68H64.6V68.48H120.4V91.16H64.6V143H40.84V17Z" fill="#D9D2E9"/>
<path d="M40.84 17V14H37.84V17H40.84ZM121.48 17H124.48V14H121.48V17ZM121.48 39.68V42.68H124.48V39.68H121.48ZM64.6 39.68V36.68H61.6V39.68H64.6ZM64.6 68.48H61.6V71.48H64.6V68.48ZM120.4 68.48H123.4V65.48H120.4V68.48ZM120.4 91.16V94.16H123.4V91.16H120.4ZM64.6 91.16V88.16H61.6V91.16H64.6ZM64.6 143V146H67.6V143H64.6ZM40.84 143H37.84V146H40.84V143ZM40.84 20H121.48V14H40.84V20ZM118.48 17V39.68H124.48V17H118.48ZM121.48 36.68H64.6V42.68H121.48V36.68ZM61.6 39.68V68.48H67.6V39.68H61.6ZM64.6 71.48H120.4V65.48H64.6V71.48ZM117.4 68.48V91.16H123.4V68.48H117.4ZM120.4 88.16H64.6V94.16H120.4V88.16ZM61.6 91.16V143H67.6V91.16H61.6ZM64.6 140H40.84V146H64.6V140ZM43.84 143V17H37.84V143H43.84Z" fill="black"/>
</g>
<defs>
<clipPath id="clip0">
<rect width="160" height="160" fill="white"/>
</clipPath>
</defs>
</svg>
