<svg width="160" height="160" viewBox="0 0 160 160" fill="none" xmlns="http://www.w3.org/2000/svg">
<g clip-path="url(#clip0)">
<path d="M71.8 79.28H125.8V143H104.2V128.96H100.96C99.52 133.64 96.76 137.6 92.68 140.84C88.6 143.96 82.48 145.52 74.32 145.52C68.56 145.52 63.16 144.44 58.12 142.28C53.08 140.12 48.7 136.94 44.98 132.74C41.26 128.42 38.32 123.14 36.16 116.9C34 110.54 32.92 103.16 32.92 94.76V65.24C32.92 57.08 34.06 49.88 36.34 43.64C38.74 37.28 41.98 31.94 46.06 27.62C50.26 23.3 55.24 20.06 61 17.9C66.76 15.62 73.12 14.48 80.08 14.48C87.28 14.48 93.7 15.68 99.34 18.08C104.98 20.36 109.78 23.6 113.74 27.8C117.7 31.88 120.7 36.74 122.74 42.38C124.78 47.9 125.8 53.84 125.8 60.2V62.36H102.04V60.2C102.04 52.64 100.06 46.94 96.1 43.1C92.26 39.14 86.8 37.16 79.72 37.16C73 37.16 67.48 39.44 63.16 44C58.84 48.44 56.68 56.12 56.68 67.04V93.68C56.68 113.12 64.6 122.84 80.44 122.84C87.52 122.84 92.86 120.98 96.46 117.26C100.18 113.42 102.04 108.32 102.04 101.96H71.8V79.28Z" fill="#D9D2E9"/>
<path d="M71.8 79.28V76.28H68.8V79.28H71.8ZM125.8 79.28H128.8V76.28H125.8V79.28ZM125.8 143V146H128.8V143H125.8ZM104.2 143H101.2V146H104.2V143ZM104.2 128.96H107.2V125.96H104.2V128.96ZM100.96 128.96V125.96H98.7443L98.0927 128.078L100.96 128.96ZM92.68 140.84L94.5024 143.223L94.5242 143.206L94.5456 143.189L92.68 140.84ZM58.12 142.28L59.3018 139.523L59.3018 139.523L58.12 142.28ZM44.98 132.74L42.7067 134.698L42.7204 134.713L42.7342 134.729L44.98 132.74ZM36.16 116.9L33.3194 117.865L33.3222 117.873L33.325 117.881L36.16 116.9ZM36.34 43.64L33.5332 42.5808L33.5276 42.5956L33.5222 42.6104L36.34 43.64ZM46.06 27.62L43.909 25.5288L43.8939 25.5443L43.879 25.5601L46.06 27.62ZM61 17.9L62.0534 20.709L62.0788 20.6994L62.1041 20.6894L61 17.9ZM99.34 18.08L98.1653 20.8405L98.1904 20.8511L98.2156 20.8613L99.34 18.08ZM113.74 27.8L111.557 29.858L111.572 29.8738L111.587 29.8894L113.74 27.8ZM122.74 42.38L119.919 43.4004L119.922 43.4102L119.926 43.4199L122.74 42.38ZM125.8 62.36V65.36H128.8V62.36H125.8ZM102.04 62.36H99.04V65.36H102.04V62.36ZM96.1 43.1L93.9463 45.1884L93.9784 45.2216L94.0116 45.2537L96.1 43.1ZM63.16 44L65.3102 46.0921L65.3241 46.0777L65.3379 46.0632L63.16 44ZM96.46 117.26L94.3053 115.173L94.3042 115.174L96.46 117.26ZM102.04 101.96H105.04V98.96H102.04V101.96ZM71.8 101.96H68.8V104.96H71.8V101.96ZM71.8 82.28H125.8V76.28H71.8V82.28ZM122.8 79.28V143H128.8V79.28H122.8ZM125.8 140H104.2V146H125.8V140ZM107.2 143V128.96H101.2V143H107.2ZM104.2 125.96H100.96V131.96H104.2V125.96ZM98.0927 128.078C96.8425 132.141 94.452 135.602 90.8144 138.491L94.5456 143.189C99.068 139.598 102.198 135.139 103.827 129.842L98.0927 128.078ZM90.8577 138.457C87.5292 141.002 82.1823 142.52 74.32 142.52V148.52C82.7777 148.52 89.6708 146.918 94.5024 143.223L90.8577 138.457ZM74.32 142.52C68.9454 142.52 63.9496 141.514 59.3018 139.523L56.9382 145.037C62.3704 147.366 68.1746 148.52 74.32 148.52V142.52ZM59.3018 139.523C54.6784 137.541 50.6592 134.627 47.2258 130.751L42.7342 134.729C46.7408 139.253 51.4816 142.699 56.9382 145.037L59.3018 139.523ZM47.2533 130.782C43.8164 126.791 41.0504 121.857 38.995 115.919L33.325 117.881C35.5896 124.423 38.7037 130.049 42.7067 134.698L47.2533 130.782ZM39.0006 115.935C36.9688 109.953 35.92 102.911 35.92 94.76H29.92C29.92 103.409 31.0312 111.127 33.3194 117.865L39.0006 115.935ZM35.92 94.76V65.24H29.92V94.76H35.92ZM35.92 65.24C35.92 57.3538 37.0223 50.5141 39.1578 44.6696L33.5222 42.6104C31.0977 49.2459 29.92 56.8062 29.92 65.24H35.92ZM39.1468 44.6992C41.4266 38.6577 44.4703 33.6724 48.241 29.6799L43.879 25.5601C39.4897 30.2076 36.0534 35.9023 33.5332 42.5808L39.1468 44.6992ZM48.211 29.7112C52.0959 25.7153 56.6987 22.717 62.0534 20.709L59.9466 15.091C53.7813 17.403 48.4241 20.8847 43.909 25.5288L48.211 29.7112ZM62.1041 20.6894C67.4719 18.5647 73.4515 17.48 80.08 17.48V11.48C72.7885 11.48 66.0481 12.6753 59.8959 15.1106L62.1041 20.6894ZM80.08 17.48C86.9459 17.48 92.9558 18.6236 98.1653 20.8405L100.515 15.3195C94.4442 12.7363 87.6142 11.48 80.08 11.48V17.48ZM98.2156 20.8613C103.477 22.9882 107.91 25.9894 111.557 29.858L115.923 25.742C111.65 21.2106 106.483 17.7318 100.464 15.2987L98.2156 20.8613ZM111.587 29.8894C115.235 33.6478 118.015 38.1377 119.919 43.4004L125.561 41.3596C123.385 35.3423 120.165 30.1122 115.893 25.7106L111.587 29.8894ZM119.926 43.4199C121.833 48.5811 122.8 54.1662 122.8 60.2H128.8C128.8 53.5138 127.727 47.2189 125.554 41.34L119.926 43.4199ZM122.8 60.2V62.36H128.8V60.2H122.8ZM125.8 59.36H102.04V65.36H125.8V59.36ZM105.04 62.36V60.2H99.04V62.36H105.04ZM105.04 60.2C105.04 52.1375 102.921 45.5354 98.1884 40.9463L94.0116 45.2537C97.1991 48.3446 99.04 53.1425 99.04 60.2H105.04ZM98.2537 41.0116C93.6998 36.3154 87.3696 34.16 79.72 34.16V40.16C86.2304 40.16 90.8202 41.9646 93.9463 45.1884L98.2537 41.0116ZM79.72 34.16C72.2405 34.16 65.9114 36.7337 60.9821 41.9368L65.3379 46.0632C69.0486 42.1463 73.7595 40.16 79.72 40.16V34.16ZM61.0098 41.9079C55.8555 47.2054 53.68 55.886 53.68 67.04H59.68C59.68 56.354 61.8245 49.6746 65.3102 46.0921L61.0098 41.9079ZM53.68 67.04V93.68H59.68V67.04H53.68ZM53.68 93.68C53.68 103.73 55.7149 111.825 60.2943 117.445C64.9694 123.183 71.8767 125.84 80.44 125.84V119.84C73.1633 119.84 68.1906 117.637 64.9457 113.655C61.6051 109.555 59.68 103.07 59.68 93.68H53.68ZM80.44 125.84C88.0253 125.84 94.2676 123.839 98.6158 119.346L94.3042 115.174C91.4524 118.121 87.0148 119.84 80.44 119.84V125.84ZM98.6147 119.347C102.978 114.844 105.04 108.941 105.04 101.96H99.04C99.04 107.699 97.3825 111.996 94.3053 115.173L98.6147 119.347ZM102.04 98.96H71.8V104.96H102.04V98.96ZM74.8 101.96V79.28H68.8V101.96H74.8Z" fill="black"/>
</g>
<defs>
<clipPath id="clip0">
<rect width="160" height="160" fill="white"/>
</clipPath>
</defs>
</svg>
