<svg width="160" height="160" viewBox="0 0 160 160" fill="none" xmlns="http://www.w3.org/2000/svg">
<g clip-path="url(#clip0)">
<path d="M35.98 17H59.74V68.48H100.42V17H124.18V143H100.42V91.16H59.74V143H35.98V17Z" fill="#D9D2E9"/>
<path d="M35.98 17V14H32.98V17H35.98ZM59.74 17H62.74V14H59.74V17ZM59.74 68.48H56.74V71.48H59.74V68.48ZM100.42 68.48V71.48H103.42V68.48H100.42ZM100.42 17V14H97.42V17H100.42ZM124.18 17H127.18V14H124.18V17ZM124.18 143V146H127.18V143H124.18ZM100.42 143H97.42V146H100.42V143ZM100.42 91.16H103.42V88.16H100.42V91.16ZM59.74 91.16V88.16H56.74V91.16H59.74ZM59.74 143V146H62.74V143H59.74ZM35.98 143H32.98V146H35.98V143ZM35.98 20H59.74V14H35.98V20ZM56.74 17V68.48H62.74V17H56.74ZM59.74 71.48H100.42V65.48H59.74V71.48ZM103.42 68.48V17H97.42V68.48H103.42ZM100.42 20H124.18V14H100.42V20ZM121.18 17V143H127.18V17H121.18ZM124.18 140H100.42V146H124.18V140ZM103.42 143V91.16H97.42V143H103.42ZM100.42 88.16H59.74V94.16H100.42V88.16ZM56.74 91.16V143H62.74V91.16H56.74ZM59.74 140H35.98V146H59.74V140ZM38.98 143V17H32.98V143H38.98Z" fill="black"/>
</g>
<defs>
<clipPath id="clip0">
<rect width="160" height="160" fill="white"/>
</clipPath>
</defs>
</svg>
