<svg width="160" height="160" viewBox="0 0 160 160" fill="none" xmlns="http://www.w3.org/2000/svg">
<g clip-path="url(#clip0)">
<path d="M118.06 105.2C118.06 118.28 114.52 128.3 107.44 135.26C100.36 142.1 90.64 145.52 78.28 145.52C71.92 145.52 66.16 144.68 61 143C55.84 141.2 51.4 138.62 47.68 135.26C43.96 131.78 41.08 127.58 39.04 122.66C37 117.62 35.98 111.8 35.98 105.2V93.32H59.74V105.2C59.74 110.84 61.3 115.28 64.42 118.52C67.54 121.64 71.92 123.2 77.56 123.2C82.84 123.2 86.92 121.64 89.8 118.52C92.8 115.4 94.3 110.96 94.3 105.2V39.32H81.34V17H128.86V39.32H118.06V105.2Z" fill="#D9D2E9"/>
<path d="M107.44 135.26L109.524 137.418L109.534 137.409L109.543 137.399L107.44 135.26ZM61 143L60.0119 145.833L60.0415 145.843L60.0712 145.853L61 143ZM47.68 135.26L45.6305 137.451L45.6497 137.469L45.6691 137.486L47.68 135.26ZM39.04 122.66L36.2592 123.786L36.2639 123.797L36.2688 123.809L39.04 122.66ZM35.98 93.32V90.32H32.98V93.32H35.98ZM59.74 93.32H62.74V90.32H59.74V93.32ZM64.42 118.52L62.259 120.601L62.2787 120.621L62.2987 120.641L64.42 118.52ZM89.8 118.52L87.6375 116.441L87.6163 116.463L87.5956 116.485L89.8 118.52ZM94.3 39.32H97.3V36.32H94.3V39.32ZM81.34 39.32H78.34V42.32H81.34V39.32ZM81.34 17V14H78.34V17H81.34ZM128.86 17H131.86V14H128.86V17ZM128.86 39.32V42.32H131.86V39.32H128.86ZM118.06 39.32V36.32H115.06V39.32H118.06ZM115.06 105.2C115.06 117.741 111.678 126.887 105.337 133.121L109.543 137.399C117.362 129.713 121.06 118.819 121.06 105.2H115.06ZM105.356 133.102C98.9688 139.273 90.0708 142.52 78.28 142.52V148.52C91.2092 148.52 101.751 144.927 109.524 137.418L105.356 133.102ZM78.28 142.52C72.1825 142.52 66.7424 141.715 61.9288 140.147L60.0712 145.853C65.5776 147.645 71.6575 148.52 78.28 148.52V142.52ZM61.9881 140.167C57.1717 138.487 53.088 136.102 49.6909 133.034L45.6691 137.486C49.712 141.138 54.5083 143.913 60.0119 145.833L61.9881 140.167ZM49.7295 133.069C46.3357 129.894 43.6952 126.055 41.8112 121.511L36.2688 123.809C38.4648 129.105 41.5843 133.666 45.6305 137.451L49.7295 133.069ZM41.8208 121.534C39.953 116.92 38.98 111.495 38.98 105.2H32.98C32.98 112.105 34.047 118.32 36.2592 123.786L41.8208 121.534ZM38.98 105.2V93.32H32.98V105.2H38.98ZM35.98 96.32H59.74V90.32H35.98V96.32ZM56.74 93.32V105.2H62.74V93.32H56.74ZM56.74 105.2C56.74 111.409 58.4726 116.669 62.259 120.601L66.581 116.439C64.1274 113.891 62.74 110.271 62.74 105.2H56.74ZM62.2987 120.641C66.1265 124.469 71.3564 126.2 77.56 126.2V120.2C72.4836 120.2 68.9535 118.811 66.5413 116.399L62.2987 120.641ZM77.56 126.2C83.4588 126.2 88.4235 124.434 92.0044 120.555L87.5956 116.485C85.4165 118.846 82.2212 120.2 77.56 120.2V126.2ZM91.9625 120.599C95.6583 116.756 97.3 111.472 97.3 105.2H91.3C91.3 110.448 89.9417 114.044 87.6375 116.441L91.9625 120.599ZM97.3 105.2V39.32H91.3V105.2H97.3ZM94.3 36.32H81.34V42.32H94.3V36.32ZM84.34 39.32V17H78.34V39.32H84.34ZM81.34 20H128.86V14H81.34V20ZM125.86 17V39.32H131.86V17H125.86ZM128.86 36.32H118.06V42.32H128.86V36.32ZM115.06 39.32V105.2H121.06V39.32H115.06Z" fill="black"/>
</g>
<defs>
<clipPath id="clip0">
<rect width="160" height="160" fill="white"/>
</clipPath>
</defs>
</svg>
