<svg width="160" height="160" viewBox="0 0 160 160" fill="none" xmlns="http://www.w3.org/2000/svg">
<g clip-path="url(#clip0)">
<path d="M62.62 143H38.86V17H62.62V68.66H67.84L101.14 17H127.96V18.08L89.08 78.38V81.62L130.12 141.92V143H102.22L67.84 91.34H62.62V143Z" fill="#D9D2E9"/>
<path d="M62.62 143V146H65.62V143H62.62ZM38.86 143H35.86V146H38.86V143ZM38.86 17V14H35.86V17H38.86ZM62.62 17H65.62V14H62.62V17ZM62.62 68.66H59.62V71.66H62.62V68.66ZM67.84 68.66V71.66H69.4755L70.3615 70.2854L67.84 68.66ZM101.14 17V14H99.5045L98.6185 15.3746L101.14 17ZM127.96 17H130.96V14H127.96V17ZM127.96 18.08L130.481 19.7057L130.96 18.9633V18.08H127.96ZM89.08 78.38L86.5587 76.7543L86.08 77.4967V78.38H89.08ZM89.08 81.62H86.08V82.544L86.5999 83.3079L89.08 81.62ZM130.12 141.92H133.12V140.996L132.6 140.232L130.12 141.92ZM130.12 143V146H133.12V143H130.12ZM102.22 143L99.7225 144.662L100.613 146H102.22V143ZM67.84 91.34L70.3375 89.6779L69.4471 88.34H67.84V91.34ZM62.62 91.34V88.34H59.62V91.34H62.62ZM62.62 140H38.86V146H62.62V140ZM41.86 143V17H35.86V143H41.86ZM38.86 20H62.62V14H38.86V20ZM59.62 17V68.66H65.62V17H59.62ZM62.62 71.66H67.84V65.66H62.62V71.66ZM70.3615 70.2854L103.662 18.6254L98.6185 15.3746L65.3185 67.0346L70.3615 70.2854ZM101.14 20H127.96V14H101.14V20ZM124.96 17V18.08H130.96V17H124.96ZM125.439 16.4543L86.5587 76.7543L91.6013 80.0057L130.481 19.7057L125.439 16.4543ZM86.08 78.38V81.62H92.08V78.38H86.08ZM86.5999 83.3079L127.64 143.608L132.6 140.232L91.5601 79.9321L86.5999 83.3079ZM127.12 141.92V143H133.12V141.92H127.12ZM130.12 140H102.22V146H130.12V140ZM104.717 141.338L70.3375 89.6779L65.3425 93.0021L99.7225 144.662L104.717 141.338ZM67.84 88.34H62.62V94.34H67.84V88.34ZM59.62 91.34V143H65.62V91.34H59.62Z" fill="black"/>
</g>
<defs>
<clipPath id="clip0">
<rect width="160" height="160" fill="white"/>
</clipPath>
</defs>
</svg>
