<svg width="160" height="160" viewBox="0 0 160 160" fill="none" xmlns="http://www.w3.org/2000/svg">
<g clip-path="url(#clip0)">
<path d="M39.76 17H63.52V120.32H120.76V143H39.76V17Z" fill="#D9D2E9"/>
<path d="M39.76 17V14H36.76V17H39.76ZM63.52 17H66.52V14H63.52V17ZM63.52 120.32H60.52V123.32H63.52V120.32ZM120.76 120.32H123.76V117.32H120.76V120.32ZM120.76 143V146H123.76V143H120.76ZM39.76 143H36.76V146H39.76V143ZM39.76 20H63.52V14H39.76V20ZM60.52 17V120.32H66.52V17H60.52ZM63.52 123.32H120.76V117.32H63.52V123.32ZM117.76 120.32V143H123.76V120.32H117.76ZM120.76 140H39.76V146H120.76V140ZM42.76 143V17H36.76V143H42.76Z" fill="black"/>
</g>
<defs>
<clipPath id="clip0">
<rect width="160" height="160" fill="white"/>
</clipPath>
</defs>
</svg>
