<svg width="160" height="160" viewBox="0 0 160 160" fill="none" xmlns="http://www.w3.org/2000/svg">
<g clip-path="url(#clip0)">
<path d="M28.96 17H70.72L77.92 111.68V130.04H82.24V111.68L89.44 17H131.2V143H109.6V58.76L111.76 29.96H107.44L98.08 143H62.44L52.72 29.96H48.4L50.56 58.76V143H28.96V17Z" fill="#D9D2E9"/>
<path d="M28.96 17V14H25.96V17H28.96ZM70.72 17L73.7114 16.7725L73.5005 14H70.72V17ZM77.92 111.68H80.92V111.566L80.9114 111.453L77.92 111.68ZM77.92 130.04H74.92V133.04H77.92V130.04ZM82.24 130.04V133.04H85.24V130.04H82.24ZM82.24 111.68L79.2486 111.453L79.24 111.566V111.68H82.24ZM89.44 17V14H86.6595L86.4486 16.7725L89.44 17ZM131.2 17H134.2V14H131.2V17ZM131.2 143V146H134.2V143H131.2ZM109.6 143H106.6V146H109.6V143ZM109.6 58.76L106.608 58.5356L106.6 58.6477V58.76H109.6ZM111.76 29.96L114.752 30.1844L114.993 26.96H111.76V29.96ZM107.44 29.96V26.96H104.678L104.45 29.7124L107.44 29.96ZM98.08 143V146H100.842L101.07 143.248L98.08 143ZM62.44 143L59.451 143.257L59.6869 146H62.44V143ZM52.72 29.96L55.709 29.703L55.4731 26.96H52.72V29.96ZM48.4 29.96V26.96H45.1666L45.4084 30.1844L48.4 29.96ZM50.56 58.76H53.56V58.6477L53.5516 58.5356L50.56 58.76ZM50.56 143V146H53.56V143H50.56ZM28.96 143H25.96V146H28.96V143ZM28.96 20H70.72V14H28.96V20ZM67.7286 17.2275L74.9286 111.907L80.9114 111.453L73.7114 16.7725L67.7286 17.2275ZM74.92 111.68V130.04H80.92V111.68H74.92ZM77.92 133.04H82.24V127.04H77.92V133.04ZM85.24 130.04V111.68H79.24V130.04H85.24ZM85.2314 111.907L92.4314 17.2275L86.4486 16.7725L79.2486 111.453L85.2314 111.907ZM89.44 20H131.2V14H89.44V20ZM128.2 17V143H134.2V17H128.2ZM131.2 140H109.6V146H131.2V140ZM112.6 143V58.76H106.6V143H112.6ZM112.592 58.9844L114.752 30.1844L108.768 29.7356L106.608 58.5356L112.592 58.9844ZM111.76 26.96H107.44V32.96H111.76V26.96ZM104.45 29.7124L95.0902 142.752L101.07 143.248L110.43 30.2076L104.45 29.7124ZM98.08 140H62.44V146H98.08V140ZM65.429 142.743L55.709 29.703L49.731 30.217L59.451 143.257L65.429 142.743ZM52.72 26.96H48.4V32.96H52.72V26.96ZM45.4084 30.1844L47.5684 58.9844L53.5516 58.5356L51.3916 29.7356L45.4084 30.1844ZM47.56 58.76V143H53.56V58.76H47.56ZM50.56 140H28.96V146H50.56V140ZM31.96 143V17H25.96V143H31.96Z" fill="black"/>
</g>
<defs>
<clipPath id="clip0">
<rect width="160" height="160" fill="white"/>
</clipPath>
</defs>
</svg>
