<svg width="160" height="160" viewBox="0 0 160 160" fill="none" xmlns="http://www.w3.org/2000/svg">
<g clip-path="url(#clip0)">
<path d="M33.64 65.96C33.64 49.64 37.72 36.98 45.88 27.98C54.16 18.98 65.56 14.48 80.08 14.48C94.6 14.48 105.94 18.98 114.1 27.98C122.38 36.98 126.52 49.64 126.52 65.96V94.04C126.52 110.84 122.38 123.62 114.1 132.38C105.94 141.14 94.6 145.52 80.08 145.52C65.56 145.52 54.16 141.14 45.88 132.38C37.72 123.62 33.64 110.84 33.64 94.04V65.96ZM80.08 123.92C84.4 123.92 88 123.26 90.88 121.94C93.76 120.5 96.1 118.52 97.9 116C99.7 113.48 100.96 110.48 101.68 107C102.4 103.52 102.76 99.68 102.76 95.48V64.52C102.76 60.56 102.34 56.84 101.5 53.36C100.66 49.88 99.34 46.88 97.54 44.36C95.74 41.84 93.4 39.86 90.52 38.42C87.64 36.86 84.16 36.08 80.08 36.08C76 36.08 72.52 36.86 69.64 38.42C66.76 39.86 64.42 41.84 62.62 44.36C60.82 46.88 59.5 49.88 58.66 53.36C57.82 56.84 57.4 60.56 57.4 64.52V95.48C57.4 99.68 57.76 103.52 58.48 107C59.2 110.48 60.46 113.48 62.26 116C64.06 118.52 66.4 120.5 69.28 121.94C72.16 123.26 75.76 123.92 80.08 123.92Z" fill="#D9D2E9"/>
<path d="M45.88 27.98L43.6722 25.9488L43.6648 25.9568L43.6575 25.9649L45.88 27.98ZM114.1 27.98L111.878 29.9951L111.885 30.0031L111.892 30.0112L114.1 27.98ZM114.1 132.38L111.92 130.319L111.912 130.327L111.905 130.335L114.1 132.38ZM45.88 132.38L43.6848 134.425L43.6923 134.433L43.6998 134.441L45.88 132.38ZM90.88 121.94L92.13 124.667L92.1762 124.646L92.2216 124.623L90.88 121.94ZM97.9 116L100.341 117.744L100.341 117.744L97.9 116ZM101.68 107L104.618 107.608L104.618 107.608L101.68 107ZM101.5 53.36L104.416 52.6561L104.416 52.6561L101.5 53.36ZM97.54 44.36L99.9812 42.6163L99.9812 42.6163L97.54 44.36ZM90.52 38.42L89.0912 41.0579L89.1344 41.0813L89.1784 41.1033L90.52 38.42ZM69.64 38.42L70.9816 41.1033L71.0256 41.0813L71.0689 41.0579L69.64 38.42ZM62.62 44.36L60.1788 42.6163L60.1788 42.6163L62.62 44.36ZM58.66 53.36L55.7438 52.6561L55.7438 52.6561L58.66 53.36ZM58.48 107L55.5422 107.608L55.5422 107.608L58.48 107ZM62.26 116L64.7012 114.256L64.7012 114.256L62.26 116ZM69.28 121.94L67.9384 124.623L67.9838 124.646L68.03 124.667L69.28 121.94ZM36.64 65.96C36.64 50.1252 40.5935 38.277 48.1025 29.9951L43.6575 25.9649C34.8465 35.683 30.64 49.1548 30.64 65.96H36.64ZM48.0878 30.0112C55.6934 21.7442 66.228 17.48 80.08 17.48V11.48C64.892 11.48 52.6266 16.2158 43.6722 25.9488L48.0878 30.0112ZM80.08 17.48C93.9333 17.48 104.397 21.7442 111.878 29.9951L116.323 25.9649C107.483 16.2158 95.2667 11.48 80.08 11.48V17.48ZM111.892 30.0112C119.512 38.2937 123.52 50.1357 123.52 65.96H129.52C129.52 49.1443 125.248 35.6663 116.308 25.9488L111.892 30.0112ZM123.52 65.96V94.04H129.52V65.96H123.52ZM123.52 94.04C123.52 110.378 119.496 122.304 111.92 130.319L116.28 134.441C125.264 124.936 129.52 111.302 129.52 94.04H123.52ZM111.905 130.335C104.431 138.359 93.9586 142.52 80.08 142.52V148.52C95.2414 148.52 107.449 143.921 116.295 134.425L111.905 130.335ZM80.08 142.52C66.2029 142.52 55.6596 138.359 48.0602 130.319L43.6998 134.441C52.6604 143.921 64.9171 148.52 80.08 148.52V142.52ZM48.0752 130.335C40.6093 122.32 36.64 110.388 36.64 94.04H30.64C30.64 111.292 34.8307 124.92 43.6848 134.425L48.0752 130.335ZM36.64 94.04V65.96H30.64V94.04H36.64ZM80.08 126.92C84.6835 126.92 88.7425 126.22 92.13 124.667L89.63 119.213C87.2575 120.3 84.1165 120.92 80.08 120.92V126.92ZM92.2216 124.623C95.5213 122.973 98.2453 120.678 100.341 117.744L95.4588 114.256C93.9547 116.362 91.9987 118.027 89.5384 119.257L92.2216 124.623ZM100.341 117.744C102.417 114.837 103.826 111.437 104.618 107.608L98.7422 106.392C98.0944 109.523 96.9827 112.123 95.4588 114.256L100.341 117.744ZM104.618 107.608C105.386 103.896 105.76 99.8485 105.76 95.48H99.76C99.76 99.5115 99.4142 103.144 98.7422 106.392L104.618 107.608ZM105.76 95.48V64.52H99.76V95.48H105.76ZM105.76 64.52C105.76 60.3476 105.317 56.3895 104.416 52.6561L98.5838 54.0639C99.3626 57.2905 99.76 60.7724 99.76 64.52H105.76ZM104.416 52.6561C103.5 48.8599 102.037 45.4941 99.9812 42.6163L95.0988 46.1037C96.6432 48.2659 97.8201 50.9001 98.5838 54.0639L104.416 52.6561ZM99.9812 42.6163C97.8853 39.682 95.1613 37.3865 91.8616 35.7367L89.1784 41.1033C91.6387 42.3335 93.5947 43.998 95.0988 46.1037L99.9812 42.6163ZM91.9489 35.7821C88.535 33.933 84.5384 33.08 80.08 33.08V39.08C83.7816 39.08 86.745 39.787 89.0912 41.0579L91.9489 35.7821ZM80.08 33.08C75.6216 33.08 71.625 33.933 68.2112 35.7821L71.0689 41.0579C73.415 39.787 76.3784 39.08 80.08 39.08V33.08ZM68.2984 35.7367C64.9987 37.3865 62.2747 39.682 60.1788 42.6163L65.0612 46.1037C66.5653 43.998 68.5213 42.3335 70.9816 41.1033L68.2984 35.7367ZM60.1788 42.6163C58.1232 45.4941 56.6601 48.8599 55.7438 52.6561L61.5762 54.0639C62.3399 50.9001 63.5168 48.2659 65.0612 46.1037L60.1788 42.6163ZM55.7438 52.6561C54.8426 56.3895 54.4 60.3476 54.4 64.52H60.4C60.4 60.7724 60.7974 57.2905 61.5762 54.0639L55.7438 52.6561ZM54.4 64.52V95.48H60.4V64.52H54.4ZM54.4 95.48C54.4 99.8485 54.7742 103.896 55.5422 107.608L61.4178 106.392C60.7458 103.144 60.4 99.5115 60.4 95.48H54.4ZM55.5422 107.608C56.3344 111.437 57.7427 114.837 59.8188 117.744L64.7012 114.256C63.1773 112.123 62.0656 109.523 61.4178 106.392L55.5422 107.608ZM59.8188 117.744C61.9147 120.678 64.6387 122.973 67.9384 124.623L70.6216 119.257C68.1613 118.027 66.2053 116.362 64.7012 114.256L59.8188 117.744ZM68.03 124.667C71.4175 126.22 75.4765 126.92 80.08 126.92V120.92C76.0435 120.92 72.9025 120.3 70.53 119.213L68.03 124.667Z" fill="black"/>
</g>
<defs>
<clipPath id="clip0">
<rect width="160" height="160" fill="white"/>
</clipPath>
</defs>
</svg>
