<svg width="160" height="160" viewBox="0 0 160 160" fill="none" xmlns="http://www.w3.org/2000/svg">
<g clip-path="url(#clip0)">
<path d="M61.72 95.48V143H37.96V17H87.28C93.76 17 99.4 18.08 104.2 20.24C109 22.28 112.96 25.04 116.08 28.52C119.32 31.88 121.72 35.78 123.28 40.22C124.96 44.54 125.8 48.98 125.8 53.54V57.86C125.8 62.54 124.96 67.16 123.28 71.72C121.72 76.16 119.32 80.18 116.08 83.78C112.96 87.26 109 90.08 104.2 92.24C99.4 94.4 93.76 95.48 87.28 95.48H61.72ZM61.72 72.8H84.94C90.22 72.8 94.36 71.36 97.36 68.48C100.48 65.6 102.04 61.88 102.04 57.32V55.16C102.04 50.6 100.48 46.88 97.36 44C94.36 41.12 90.22 39.68 84.94 39.68H61.72V72.8Z" fill="#D9D2E9"/>
<path d="M61.72 95.48V92.48H58.72V95.48H61.72ZM61.72 143V146H64.72V143H61.72ZM37.96 143H34.96V146H37.96V143ZM37.96 17V14H34.96V17H37.96ZM104.2 20.24L102.969 22.9758L102.998 22.9887L103.027 23.001L104.2 20.24ZM116.08 28.52L113.846 30.5226L113.883 30.5632L113.92 30.6024L116.08 28.52ZM123.28 40.22L120.45 41.2144L120.466 41.2612L120.484 41.3073L123.28 40.22ZM123.28 71.72L120.465 70.6829L120.457 70.7042L120.45 70.7255L123.28 71.72ZM116.08 83.78L113.85 81.7731L113.846 81.7774L116.08 83.78ZM104.2 92.24L105.431 94.9758L105.431 94.9758L104.2 92.24ZM61.72 72.8H58.72V75.8H61.72V72.8ZM97.36 68.48L95.3252 66.2756L95.3036 66.2955L95.2824 66.3158L97.36 68.48ZM97.36 44L95.2824 46.1642L95.3036 46.1845L95.3252 46.2044L97.36 44ZM61.72 39.68V36.68H58.72V39.68H61.72ZM58.72 95.48V143H64.72V95.48H58.72ZM61.72 140H37.96V146H61.72V140ZM40.96 143V17H34.96V143H40.96ZM37.96 20H87.28V14H37.96V20ZM87.28 20C93.4312 20 98.6346 21.0253 102.969 22.9758L105.431 17.5042C100.165 15.1347 94.0888 14 87.28 14V20ZM103.027 23.001C107.469 24.889 111.052 27.4063 113.846 30.5226L118.314 26.5174C114.868 22.6737 110.531 19.6709 105.373 17.479L103.027 23.001ZM113.92 30.6024C116.859 33.6495 119.031 37.1776 120.45 41.2144L126.11 39.2255C124.409 34.3824 121.781 30.1105 118.24 26.4376L113.92 30.6024ZM120.484 41.3073C122.031 45.2865 122.8 49.3582 122.8 53.54H128.8C128.8 48.6018 127.889 43.7935 126.076 39.1327L120.484 41.3073ZM122.8 53.54V57.86H128.8V53.54H122.8ZM122.8 57.86C122.8 62.1726 122.027 66.442 120.465 70.6829L126.095 72.7571C127.893 67.8779 128.8 62.9074 128.8 57.86H122.8ZM120.45 70.7255C119.025 74.7807 116.833 78.4588 113.85 81.7731L118.31 85.7869C121.807 81.9012 124.415 77.5393 126.11 72.7144L120.45 70.7255ZM113.846 81.7774C111.039 84.9086 107.435 87.4943 102.969 89.5042L105.431 94.9758C110.565 92.6657 114.881 89.6114 118.314 85.7826L113.846 81.7774ZM102.969 89.5042C98.6346 91.4547 93.4312 92.48 87.28 92.48V98.48C94.0888 98.48 100.165 97.3453 105.431 94.9758L102.969 89.5042ZM87.28 92.48H61.72V98.48H87.28V92.48ZM61.72 75.8H84.94V69.8H61.72V75.8ZM84.94 75.8C90.7764 75.8 95.7392 74.1946 99.4376 70.6442L95.2824 66.3158C92.9808 68.5254 89.6636 69.8 84.94 69.8V75.8ZM99.3948 70.6844C103.179 67.1911 105.04 62.6479 105.04 57.32H99.04C99.04 61.1121 97.7807 64.0089 95.3252 66.2756L99.3948 70.6844ZM105.04 57.32V55.16H99.04V57.32H105.04ZM105.04 55.16C105.04 49.8321 103.179 45.2889 99.3948 41.7956L95.3252 46.2044C97.7807 48.4711 99.04 51.3679 99.04 55.16H105.04ZM99.4376 41.8358C95.7392 38.2854 90.7764 36.68 84.94 36.68V42.68C89.6636 42.68 92.9808 43.9546 95.2824 46.1642L99.4376 41.8358ZM84.94 36.68H61.72V42.68H84.94V36.68ZM58.72 39.68V72.8H64.72V39.68H58.72Z" fill="black"/>
</g>
<defs>
<clipPath id="clip0">
<rect width="160" height="160" fill="white"/>
</clipPath>
</defs>
</svg>
