<svg width="160" height="192" viewBox="0 0 160 192" fill="none" xmlns="http://www.w3.org/2000/svg">
<g clip-path="url(#clip0)">
<path d="M68.74 144.44C57.58 142.4 48.94 137.12 42.82 128.6C36.7 120.08 33.64 108.56 33.64 94.04V65.96C33.64 49.64 37.72 36.98 45.88 27.98C54.16 18.98 65.56 14.48 80.08 14.48C94.6 14.48 105.94 18.98 114.1 27.98C122.38 36.98 126.52 49.64 126.52 65.96V94.04C126.52 108.56 123.4 120.08 117.16 128.6C111.04 137.12 102.46 142.4 91.42 144.44V147.68C91.42 151.04 92.92 152.72 95.92 152.72H107.08V174.32H85.84C80.92 174.32 76.84 172.64 73.6 169.28C70.36 166.04 68.74 161.96 68.74 157.04V144.44ZM80.08 123.92C84.4 123.92 88 123.2 90.88 121.76C93.76 120.32 96.1 118.34 97.9 115.82C99.7 113.3 100.96 110.3 101.68 106.82C102.4 103.22 102.76 99.32 102.76 95.12V64.88C102.76 60.92 102.34 57.2 101.5 53.72C100.66 50.24 99.34 47.18 97.54 44.54C95.74 41.9 93.4 39.86 90.52 38.42C87.64 36.86 84.16 36.08 80.08 36.08C76 36.08 72.52 36.86 69.64 38.42C66.76 39.86 64.42 41.9 62.62 44.54C60.82 47.18 59.5 50.24 58.66 53.72C57.82 57.2 57.4 60.92 57.4 64.88V95.12C57.4 99.32 57.76 103.22 58.48 106.82C59.2 110.3 60.46 113.3 62.26 115.82C64.06 118.34 66.4 120.32 69.28 121.76C72.16 123.2 75.76 123.92 80.08 123.92Z" fill="#D9D2E9"/>
<path d="M68.74 144.44H71.74V141.939L69.2795 141.489L68.74 144.44ZM42.82 128.6L45.2566 126.85L45.2566 126.85L42.82 128.6ZM45.88 27.98L43.6722 25.9488L43.6648 25.9568L43.6575 25.9649L45.88 27.98ZM114.1 27.98L111.878 29.9951L111.885 30.0031L111.892 30.0112L114.1 27.98ZM117.16 128.6L114.74 126.827L114.732 126.839L114.723 126.85L117.16 128.6ZM91.42 144.44L90.8749 141.49L88.42 141.944V144.44H91.42ZM107.08 152.72H110.08V149.72H107.08V152.72ZM107.08 174.32V177.32H110.08V174.32H107.08ZM73.6 169.28L75.7595 167.198L75.7406 167.178L75.7213 167.159L73.6 169.28ZM90.88 121.76L92.2216 124.443L92.2216 124.443L90.88 121.76ZM97.9 115.82L100.341 117.564L100.341 117.564L97.9 115.82ZM101.68 106.82L104.618 107.428L104.62 107.418L104.622 107.408L101.68 106.82ZM97.54 44.54L100.019 42.85L100.019 42.85L97.54 44.54ZM90.52 38.42L89.0912 41.0579L89.1344 41.0813L89.1784 41.1033L90.52 38.42ZM69.64 38.42L70.9816 41.1033L71.0256 41.0813L71.0689 41.0579L69.64 38.42ZM62.62 44.54L60.1413 42.85L60.1413 42.85L62.62 44.54ZM58.48 106.82L55.5383 107.408L55.5402 107.418L55.5422 107.428L58.48 106.82ZM62.26 115.82L64.7012 114.076L64.7012 114.076L62.26 115.82ZM69.28 121.76L67.9384 124.443L67.9384 124.443L69.28 121.76ZM69.2795 141.489C58.8151 139.576 50.8845 134.685 45.2566 126.85L40.3834 130.35C46.9955 139.555 56.3449 145.224 68.2006 147.391L69.2795 141.489ZM45.2566 126.85C39.6197 119.002 36.64 108.167 36.64 94.04H30.64C30.64 108.953 33.7803 121.158 40.3834 130.35L45.2566 126.85ZM36.64 94.04V65.96H30.64V94.04H36.64ZM36.64 65.96C36.64 50.1252 40.5935 38.277 48.1025 29.9951L43.6575 25.9649C34.8465 35.683 30.64 49.1548 30.64 65.96H36.64ZM48.0878 30.0112C55.6934 21.7442 66.228 17.48 80.08 17.48V11.48C64.892 11.48 52.6266 16.2158 43.6722 25.9488L48.0878 30.0112ZM80.08 17.48C93.9333 17.48 104.397 21.7442 111.878 29.9951L116.323 25.9649C107.483 16.2158 95.2667 11.48 80.08 11.48V17.48ZM111.892 30.0112C119.512 38.2937 123.52 50.1357 123.52 65.96H129.52C129.52 49.1443 125.248 35.6663 116.308 25.9488L111.892 30.0112ZM123.52 65.96V94.04H129.52V65.96H123.52ZM123.52 94.04C123.52 108.157 120.485 118.983 114.74 126.827L119.58 130.373C126.315 121.177 129.52 108.963 129.52 94.04H123.52ZM114.723 126.85C109.089 134.694 101.212 139.58 90.8749 141.49L91.9651 147.39C103.708 145.22 112.991 139.546 119.597 130.35L114.723 126.85ZM88.42 144.44V147.68H94.42V144.44H88.42ZM88.42 147.68C88.42 149.744 88.8733 151.852 90.3072 153.458C91.7989 155.129 93.8641 155.72 95.92 155.72V149.72C94.976 149.72 94.7911 149.471 94.7828 149.462C94.7167 149.388 94.42 148.976 94.42 147.68H88.42ZM95.92 155.72H107.08V149.72H95.92V155.72ZM104.08 152.72V174.32H110.08V152.72H104.08ZM107.08 171.32H85.84V177.32H107.08V171.32ZM85.84 171.32C81.6853 171.32 78.4008 169.937 75.7595 167.198L71.4405 171.362C75.2792 175.343 80.1547 177.32 85.84 177.32V171.32ZM75.7213 167.159C73.0882 164.526 71.74 161.229 71.74 157.04H65.74C65.74 162.691 67.6318 167.554 71.4787 171.401L75.7213 167.159ZM71.74 157.04V144.44H65.74V157.04H71.74ZM80.08 126.92C84.714 126.92 88.8078 126.15 92.2216 124.443L89.5384 119.077C87.1922 120.25 84.0861 120.92 80.08 120.92V126.92ZM92.2216 124.443C95.5213 122.793 98.2453 120.498 100.341 117.564L95.4588 114.076C93.9547 116.182 91.9987 117.847 89.5384 119.077L92.2216 124.443ZM100.341 117.564C102.417 114.657 103.826 111.257 104.618 107.428L98.7422 106.212C98.0944 109.343 96.9827 111.943 95.4588 114.076L100.341 117.564ZM104.622 107.408C105.386 103.589 105.76 99.4899 105.76 95.12H99.76C99.76 99.1501 99.4145 102.851 98.7383 106.232L104.622 107.408ZM105.76 95.12V64.88H99.76V95.12H105.76ZM105.76 64.88C105.76 60.7076 105.317 56.7495 104.416 53.0161L98.5838 54.4239C99.3626 57.6505 99.76 61.1324 99.76 64.88H105.76ZM104.416 53.0161C103.501 49.2258 102.046 45.8234 100.019 42.85L95.0613 46.23C96.634 48.5366 97.8186 51.2542 98.5838 54.4239L104.416 53.0161ZM100.019 42.85C97.9282 39.784 95.1954 37.4036 91.8616 35.7367L89.1784 41.1033C91.6046 42.3164 93.5518 44.016 95.0613 46.23L100.019 42.85ZM91.9489 35.7821C88.535 33.933 84.5384 33.08 80.08 33.08V39.08C83.7816 39.08 86.745 39.787 89.0912 41.0579L91.9489 35.7821ZM80.08 33.08C75.6216 33.08 71.625 33.933 68.2112 35.7821L71.0689 41.0579C73.415 39.787 76.3784 39.08 80.08 39.08V33.08ZM68.2984 35.7367C64.9646 37.4036 62.2318 39.784 60.1413 42.85L65.0987 46.23C66.6082 44.016 68.5554 42.3164 70.9816 41.1033L68.2984 35.7367ZM60.1413 42.85C58.114 45.8234 56.6586 49.2258 55.7438 53.0161L61.5762 54.4239C62.3414 51.2542 63.526 48.5366 65.0987 46.23L60.1413 42.85ZM55.7438 53.0161C54.8426 56.7495 54.4 60.7076 54.4 64.88H60.4C60.4 61.1324 60.7974 57.6505 61.5762 54.4239L55.7438 53.0161ZM54.4 64.88V95.12H60.4V64.88H54.4ZM54.4 95.12C54.4 99.4899 54.7744 103.589 55.5383 107.408L61.4217 106.232C60.7456 102.851 60.4 99.1501 60.4 95.12H54.4ZM55.5422 107.428C56.3344 111.257 57.7427 114.657 59.8188 117.564L64.7012 114.076C63.1773 111.943 62.0656 109.343 61.4178 106.212L55.5422 107.428ZM59.8188 117.564C61.9147 120.498 64.6387 122.793 67.9384 124.443L70.6216 119.077C68.1613 117.847 66.2053 116.182 64.7012 114.076L59.8188 117.564ZM67.9384 124.443C71.3522 126.15 75.4461 126.92 80.08 126.92V120.92C76.074 120.92 72.9678 120.25 70.6216 119.077L67.9384 124.443Z" fill="black"/>
</g>
<defs>
<clipPath id="clip0">
<rect width="160" height="192" fill="white"/>
</clipPath>
</defs>
</svg>
