<svg width="160" height="160" viewBox="0 0 160 160" fill="none" xmlns="http://www.w3.org/2000/svg">
<g clip-path="url(#clip0)">
<path d="M122.74 143H98.98V105.2C98.98 102.32 98.2 99.98 96.64 98.18C95.2 96.38 92.74 95.48 89.26 95.48H61.9V143H38.14V17H86.38C92.86 17 98.56 17.9 103.48 19.7C108.4 21.5 112.48 24.02 115.72 27.26C119.08 30.38 121.6 34.04 123.28 38.24C125.08 42.44 125.98 46.94 125.98 51.74V56.06C125.98 61.22 124.6 66.08 121.84 70.64C119.08 75.08 114.82 78.5 109.06 80.9V84.14C113.26 84.62 116.56 86.24 118.96 89C121.48 91.76 122.74 95.24 122.74 99.44V143ZM61.9 72.8H84.58C90.34 72.8 94.72 71.48 97.72 68.84C100.72 66.08 102.22 62.24 102.22 57.32V55.16C102.22 50.96 100.72 47.36 97.72 44.36C94.72 41.24 90.34 39.68 84.58 39.68H61.9V72.8Z" fill="#D9D2E9"/>
<path d="M122.74 143V146H125.74V143H122.74ZM98.98 143H95.98V146H98.98V143ZM96.64 98.18L94.2974 100.054L94.3343 100.1L94.3729 100.145L96.64 98.18ZM61.9 95.48V92.48H58.9V95.48H61.9ZM61.9 143V146H64.9V143H61.9ZM38.14 143H35.14V146H38.14V143ZM38.14 17V14H35.14V17H38.14ZM103.48 19.7L104.511 16.8826L104.511 16.8826L103.48 19.7ZM115.72 27.26L113.599 29.3813L113.638 29.4206L113.679 29.4584L115.72 27.26ZM123.28 38.24L120.495 39.3542L120.508 39.3881L120.523 39.4218L123.28 38.24ZM121.84 70.64L124.388 72.2238L124.397 72.2087L124.407 72.1934L121.84 70.64ZM109.06 80.9L107.906 78.1308L106.06 78.9V80.9H109.06ZM109.06 84.14H106.06V86.8167L108.719 87.1206L109.06 84.14ZM118.96 89L116.696 90.9685L116.72 90.996L116.745 91.0228L118.96 89ZM61.9 72.8H58.9V75.8H61.9V72.8ZM97.72 68.84L99.7019 71.0921L99.7268 71.0702L99.7512 71.0478L97.72 68.84ZM97.72 44.36L95.5575 46.4393L95.5779 46.4605L95.5987 46.4813L97.72 44.36ZM61.9 39.68V36.68H58.9V39.68H61.9ZM122.74 140H98.98V146H122.74V140ZM101.98 143V105.2H95.98V143H101.98ZM101.98 105.2C101.98 101.756 101.034 98.6691 98.9071 96.2152L94.3729 100.145C95.3662 101.291 95.98 102.884 95.98 105.2H101.98ZM98.9826 96.3059C96.7312 93.4917 93.1765 92.48 89.26 92.48V98.48C92.3035 98.48 93.6688 99.2683 94.2974 100.054L98.9826 96.3059ZM89.26 92.48H61.9V98.48H89.26V92.48ZM58.9 95.48V143H64.9V95.48H58.9ZM61.9 140H38.14V146H61.9V140ZM41.14 143V17H35.14V143H41.14ZM38.14 20H86.38V14H38.14V20ZM86.38 20C92.5886 20 97.9273 20.863 102.449 22.5174L104.511 16.8826C99.1927 14.937 93.1314 14 86.38 14V20ZM102.449 22.5174C107.018 24.1889 110.709 26.4912 113.599 29.3813L117.841 25.1387C114.251 21.5488 109.782 18.8111 104.511 16.8826L102.449 22.5174ZM113.679 29.4584C116.718 32.2807 118.982 35.5719 120.495 39.3542L126.065 37.1258C124.218 32.5081 121.442 28.4793 117.761 25.0616L113.679 29.4584ZM120.523 39.4218C122.155 43.2296 122.98 47.3254 122.98 51.74H128.98C128.98 46.5546 128.006 41.6504 126.037 37.0582L120.523 39.4218ZM122.98 51.74V56.06H128.98V51.74H122.98ZM122.98 56.06C122.98 60.6537 121.76 64.9789 119.274 69.0866L124.407 72.1934C127.44 67.1811 128.98 61.7863 128.98 56.06H122.98ZM119.292 69.0562C116.922 72.8692 113.204 75.9234 107.906 78.1308L110.214 83.6692C116.436 81.0766 121.238 77.2908 124.388 72.2238L119.292 69.0562ZM106.06 80.9V84.14H112.06V80.9H106.06ZM108.719 87.1206C112.298 87.5296 114.864 88.862 116.696 90.9685L121.224 87.0315C118.256 83.618 114.222 81.7104 109.401 81.1594L108.719 87.1206ZM116.745 91.0228C118.696 93.1605 119.74 95.8887 119.74 99.44H125.74C125.74 94.5912 124.264 90.3595 121.175 86.9772L116.745 91.0228ZM119.74 99.44V143H125.74V99.44H119.74ZM61.9 75.8H84.58V69.8H61.9V75.8ZM84.58 75.8C90.7523 75.8 95.9555 74.389 99.7019 71.0921L95.7381 66.5879C93.4846 68.571 89.9277 69.8 84.58 69.8V75.8ZM99.7512 71.0478C103.495 67.6038 105.22 62.891 105.22 57.32H99.22C99.22 61.589 97.9454 64.5562 95.6888 66.6322L99.7512 71.0478ZM105.22 57.32V55.16H99.22V57.32H105.22ZM105.22 55.16C105.22 50.1553 103.398 45.7949 99.8413 42.2387L95.5987 46.4813C98.0425 48.9251 99.22 51.7647 99.22 55.16H105.22ZM99.8825 42.2807C96.148 38.3968 90.8753 36.68 84.58 36.68V42.68C89.8047 42.68 93.292 44.0832 95.5575 46.4393L99.8825 42.2807ZM84.58 36.68H61.9V42.68H84.58V36.68ZM58.9 39.68V72.8H64.9V39.68H58.9Z" fill="black"/>
</g>
<defs>
<clipPath id="clip0">
<rect width="160" height="160" fill="white"/>
</clipPath>
</defs>
</svg>
