<svg width="160" height="160" viewBox="0 0 160 160" fill="none" xmlns="http://www.w3.org/2000/svg">
<g clip-path="url(#clip0)">
<path d="M101.68 55.52C101.68 50.48 99.7 46.1 95.74 42.38C91.9 38.66 86.44 36.8 79.36 36.8C73.36 36.8 68.62 38.06 65.14 40.58C61.66 42.98 59.92 46.28 59.92 50.48C59.92 52.64 60.34 54.62 61.18 56.42C62.02 58.1 63.46 59.66 65.5 61.1C67.66 62.42 70.42 63.62 73.78 64.7C77.26 65.78 81.64 66.8 86.92 67.76C100.12 70.16 110.2 74.18 117.16 79.82C124.12 85.46 127.6 93.8 127.6 104.84V107C127.6 112.88 126.52 118.22 124.36 123.02C122.32 127.7 119.32 131.72 115.36 135.08C111.4 138.44 106.6 141.02 100.96 142.82C95.32 144.62 88.96 145.52 81.88 145.52C73.6 145.52 66.28 144.38 59.92 142.1C53.68 139.7 48.46 136.46 44.26 132.38C40.06 128.18 36.88 123.32 34.72 117.8C32.56 112.16 31.48 106.04 31.48 99.44V94.04H55.24V98.36C55.24 105.92 57.4 111.98 61.72 116.54C66.16 120.98 73 123.2 82.24 123.2C89.44 123.2 94.78 121.64 98.26 118.52C101.74 115.4 103.48 111.68 103.48 107.36C103.48 105.32 103.12 103.4 102.4 101.6C101.68 99.68 100.42 98 98.62 96.56C96.82 95 94.36 93.62 91.24 92.42C88.12 91.22 84.16 90.2 79.36 89.36C73 88.28 67.18 86.9 61.9 85.22C56.62 83.42 52 81.08 48.04 78.2C44.2 75.32 41.2 71.72 39.04 67.4C36.88 63.08 35.8 57.8 35.8 51.56V50.48C35.8 45.32 36.82 40.58 38.86 36.26C41.02 31.82 43.96 27.98 47.68 24.74C51.52 21.5 56.08 18.98 61.36 17.18C66.76 15.38 72.76 14.48 79.36 14.48C86.8 14.48 93.4 15.56 99.16 17.72C104.92 19.76 109.72 22.58 113.56 26.18C117.52 29.78 120.46 33.92 122.38 38.6C124.42 43.28 125.44 48.2 125.44 53.36V59.84H101.68V55.52Z" fill="#D9D2E9"/>
<path d="M95.74 42.38L93.6526 44.5347L93.6692 44.5508L93.686 44.5665L95.74 42.38ZM65.14 40.58L66.8432 43.0496L66.8716 43.0301L66.8995 43.0098L65.14 40.58ZM61.18 56.42L58.4615 57.6887L58.4786 57.7254L58.4967 57.7616L61.18 56.42ZM65.5 61.1L63.77 63.5509L63.851 63.6081L63.9357 63.6598L65.5 61.1ZM73.78 64.7L72.862 67.5561L72.8764 67.5607L72.8908 67.5652L73.78 64.7ZM86.92 67.76L86.3833 70.7116L86.3833 70.7116L86.92 67.76ZM117.16 79.82L115.271 82.1508L115.271 82.1508L117.16 79.82ZM124.36 123.02L121.624 121.789L121.617 121.805L121.61 121.821L124.36 123.02ZM115.36 135.08L117.301 137.368L117.301 137.368L115.36 135.08ZM100.96 142.82L101.872 145.678L100.96 142.82ZM59.92 142.1L58.8431 144.9L58.8752 144.912L58.9076 144.924L59.92 142.1ZM44.26 132.38L42.1387 134.501L42.1541 134.517L42.1696 134.532L44.26 132.38ZM34.72 117.8L31.9184 118.873L31.9223 118.883L31.9263 118.893L34.72 117.8ZM31.48 94.04V91.04H28.48V94.04H31.48ZM55.24 94.04H58.24V91.04H55.24V94.04ZM61.72 116.54L59.5421 118.603L59.57 118.633L59.5987 118.661L61.72 116.54ZM98.26 118.52L96.2574 116.286L96.2574 116.286L98.26 118.52ZM102.4 101.6L99.591 102.653L99.6025 102.684L99.6146 102.714L102.4 101.6ZM98.62 96.56L96.6552 98.8271L96.6998 98.8657L96.7459 98.9026L98.62 96.56ZM91.24 92.42L92.3169 89.62L92.3169 89.62L91.24 92.42ZM79.36 89.36L79.8771 86.4049L79.8697 86.4036L79.8622 86.4023L79.36 89.36ZM61.9 85.22L60.932 88.0595L60.9611 88.0695L60.9904 88.0788L61.9 85.22ZM48.04 78.2L46.24 80.6L46.2576 80.6132L46.2755 80.6262L48.04 78.2ZM38.86 36.26L36.1623 34.9476L36.1547 34.9632L36.1473 34.979L38.86 36.26ZM47.68 24.74L45.7454 22.4471L45.7274 22.4623L45.7097 22.4778L47.68 24.74ZM61.36 17.18L60.4113 14.3339L60.4016 14.3372L60.392 14.3405L61.36 17.18ZM99.16 17.72L98.1066 20.529L98.1325 20.5387L98.1585 20.5479L99.16 17.72ZM113.56 26.18L111.508 28.3686L111.525 28.3843L111.542 28.3998L113.56 26.18ZM122.38 38.6L119.604 39.7387L119.617 39.7688L119.63 39.7987L122.38 38.6ZM125.44 59.84V62.84H128.44V59.84H125.44ZM101.68 59.84H98.68V62.84H101.68V59.84ZM104.68 55.52C104.68 49.5824 102.305 44.4311 97.794 40.1935L93.686 44.5665C97.0949 47.7689 98.68 51.3776 98.68 55.52H104.68ZM97.8274 40.2253C93.2651 35.8056 86.9588 33.8 79.36 33.8V39.8C85.9212 39.8 90.5349 41.5144 93.6526 44.5347L97.8274 40.2253ZM79.36 33.8C72.9718 33.8 67.5395 35.1384 63.3805 38.1502L66.8995 43.0098C69.7005 40.9816 73.7482 39.8 79.36 39.8V33.8ZM63.4368 38.1104C59.1512 41.066 56.92 45.286 56.92 50.48H62.92C62.92 47.274 64.1688 44.894 66.8432 43.0496L63.4368 38.1104ZM56.92 50.48C56.92 53.0395 57.4203 55.4576 58.4615 57.6887L63.8985 55.1513C63.2597 53.7824 62.92 52.2405 62.92 50.48H56.92ZM58.4967 57.7616C59.619 60.0061 61.4537 61.9159 63.77 63.5509L67.2301 58.6491C65.4663 57.4041 64.421 56.1938 63.8633 55.0784L58.4967 57.7616ZM63.9357 63.6598C66.3606 65.1417 69.3571 66.4295 72.862 67.5561L74.698 61.8439C71.4829 60.8105 68.9594 59.6983 67.0643 58.5402L63.9357 63.6598ZM72.8908 67.5652C76.5266 68.6935 81.0342 69.739 86.3833 70.7116L87.4567 64.8084C82.2458 63.8609 77.9934 62.8665 74.6692 61.8348L72.8908 67.5652ZM86.3833 70.7116C99.3152 73.0628 108.85 76.9472 115.271 82.1508L119.049 77.4892C111.55 71.4128 100.925 67.2571 87.4567 64.8084L86.3833 70.7116ZM115.271 82.1508C121.367 87.0901 124.6 94.4737 124.6 104.84H130.6C130.6 93.1263 126.873 83.8299 119.049 77.4892L115.271 82.1508ZM124.6 104.84V107H130.6V104.84H124.6ZM124.6 107C124.6 112.505 123.591 117.419 121.624 121.789L127.096 124.251C129.449 119.021 130.6 113.255 130.6 107H124.6ZM121.61 121.821C119.756 126.074 117.036 129.724 113.419 132.792L117.301 137.368C121.604 133.716 124.884 129.326 127.11 124.219L121.61 121.821ZM113.419 132.792C109.8 135.863 105.363 138.266 100.048 139.962L101.872 145.678C107.837 143.774 113 141.017 117.301 137.368L113.419 132.792ZM100.048 139.962C94.754 141.652 88.7092 142.52 81.88 142.52V148.52C89.2108 148.52 95.8861 147.588 101.872 145.678L100.048 139.962ZM81.88 142.52C73.8699 142.52 66.9037 141.417 60.9324 139.276L58.9076 144.924C65.6563 147.343 73.3301 148.52 81.88 148.52V142.52ZM60.9969 139.3C55.0817 137.025 50.2214 133.989 46.3504 130.228L42.1696 134.532C46.6986 138.931 52.2783 142.375 58.8431 144.9L60.9969 139.3ZM46.3813 130.259C42.4734 126.351 39.5226 121.841 37.5137 116.707L31.9263 118.893C34.2374 124.799 37.6466 130.009 42.1387 134.501L46.3813 130.259ZM37.5216 116.727C35.5044 111.46 34.48 105.707 34.48 99.44H28.48C28.48 106.373 29.6156 112.86 31.9184 118.873L37.5216 116.727ZM34.48 99.44V94.04H28.48V99.44H34.48ZM31.48 97.04H55.24V91.04H31.48V97.04ZM52.24 94.04V98.36H58.24V94.04H52.24ZM52.24 98.36C52.24 106.522 54.5903 113.376 59.5421 118.603L63.8979 114.477C60.2097 110.584 58.24 105.318 58.24 98.36H52.24ZM59.5987 118.661C64.8195 123.882 72.5779 126.2 82.24 126.2V120.2C73.4221 120.2 67.5005 118.078 63.8413 114.419L59.5987 118.661ZM82.24 126.2C89.7947 126.2 96.001 124.574 100.263 120.754L96.2574 116.286C93.559 118.706 89.0853 120.2 82.24 120.2V126.2ZM100.263 120.754C104.319 117.117 106.48 112.608 106.48 107.36H100.48C100.48 110.752 99.1611 113.683 96.2574 116.286L100.263 120.754ZM106.48 107.36C106.48 104.959 106.055 102.659 105.185 100.486L99.6146 102.714C100.186 104.141 100.48 105.681 100.48 107.36H106.48ZM105.209 100.547C104.276 98.0598 102.663 95.9522 100.494 94.2174L96.7459 98.9026C98.1775 100.048 99.0836 101.3 99.591 102.653L105.209 100.547ZM100.585 94.2929C98.4393 92.4335 95.6408 90.8984 92.3169 89.62L90.1631 95.22C93.0792 96.3416 95.2007 97.5665 96.6552 98.8271L100.585 94.2929ZM92.3169 89.62C88.9542 88.3266 84.7899 87.2646 79.8771 86.4049L78.8429 92.3151C83.5301 93.1354 87.2858 94.1134 90.1631 95.22L92.3169 89.62ZM79.8622 86.4023C73.6184 85.3421 67.9368 83.9926 62.8096 82.3612L60.9904 88.0788C66.4233 89.8074 72.3816 91.2179 78.8578 92.3177L79.8622 86.4023ZM62.868 82.3805C57.8338 80.6643 53.4901 78.4542 49.8045 75.7738L46.2755 80.6262C50.5099 83.7058 55.4062 86.1757 60.932 88.0595L62.868 82.3805ZM49.84 75.8C46.375 73.2012 43.6763 69.9645 41.7233 66.0584L36.3567 68.7416C38.7237 73.4755 42.025 77.4388 46.24 80.6L49.84 75.8ZM41.7233 66.0584C39.8233 62.2584 38.8 57.4657 38.8 51.56H32.8C32.8 58.1343 33.9367 63.9016 36.3567 68.7416L41.7233 66.0584ZM38.8 51.56V50.48H32.8V51.56H38.8ZM38.8 50.48C38.8 45.7269 39.7367 41.4291 41.5727 37.541L36.1473 34.979C33.9033 39.7309 32.8 44.9131 32.8 50.48H38.8ZM41.5577 37.5724C43.5416 33.4943 46.2344 29.9774 49.6503 27.0022L45.7097 22.4778C41.6856 25.9826 38.4984 30.1457 36.1623 34.9476L41.5577 37.5724ZM49.6146 27.0329C53.1394 24.0588 57.3625 21.7123 62.328 20.0195L60.392 14.3405C54.7975 16.2477 49.9006 18.9412 45.7454 22.4471L49.6146 27.0329ZM62.3087 20.026C67.3584 18.3428 73.0321 17.48 79.36 17.48V11.48C72.4879 11.48 66.1616 12.4172 60.4113 14.3339L62.3087 20.026ZM79.36 17.48C86.5134 17.48 92.7458 18.5187 98.1066 20.529L100.213 14.911C94.0542 12.6013 87.0866 11.48 79.36 11.48V17.48ZM98.1585 20.5479C103.59 22.4716 108.015 25.0939 111.508 28.3686L115.612 23.9914C111.425 20.0661 106.25 17.0483 100.162 14.8921L98.1585 20.5479ZM111.542 28.3998C115.192 31.7179 117.863 35.4946 119.604 39.7387L125.156 37.4613C123.057 32.3454 119.848 27.8421 115.578 23.9602L111.542 28.3998ZM119.63 39.7987C121.503 44.0964 122.44 48.608 122.44 53.36H128.44C128.44 47.792 127.337 42.4635 125.13 37.4012L119.63 39.7987ZM122.44 53.36V59.84H128.44V53.36H122.44ZM125.44 56.84H101.68V62.84H125.44V56.84ZM104.68 59.84V55.52H98.68V59.84H104.68Z" fill="black"/>
</g>
<defs>
<clipPath id="clip0">
<rect width="160" height="160" fill="white"/>
</clipPath>
</defs>
</svg>
