<svg width="160" height="160" viewBox="0 0 160 160" fill="none" xmlns="http://www.w3.org/2000/svg">
<g clip-path="url(#clip0)">
<path d="M34.72 17H125.44V39.68H91.96V143H68.2V39.68H34.72V17Z" fill="#D9D2E9"/>
<path d="M34.72 17V14H31.72V17H34.72ZM125.44 17H128.44V14H125.44V17ZM125.44 39.68V42.68H128.44V39.68H125.44ZM91.96 39.68V36.68H88.96V39.68H91.96ZM91.96 143V146H94.96V143H91.96ZM68.2 143H65.2V146H68.2V143ZM68.2 39.68H71.2V36.68H68.2V39.68ZM34.72 39.68H31.72V42.68H34.72V39.68ZM34.72 20H125.44V14H34.72V20ZM122.44 17V39.68H128.44V17H122.44ZM125.44 36.68H91.96V42.68H125.44V36.68ZM88.96 39.68V143H94.96V39.68H88.96ZM91.96 140H68.2V146H91.96V140ZM71.2 143V39.68H65.2V143H71.2ZM68.2 36.68H34.72V42.68H68.2V36.68ZM37.72 39.68V17H31.72V39.68H37.72Z" fill="black"/>
</g>
<defs>
<clipPath id="clip0">
<rect width="160" height="160" fill="white"/>
</clipPath>
</defs>
</svg>
