<svg width="160" height="160" viewBox="0 0 160 160" fill="none" xmlns="http://www.w3.org/2000/svg">
<g clip-path="url(#clip0)">
<path d="M29.32 17H53.8L78.46 131.12H81.7L106.36 17H130.84L102.4 143H57.76L29.32 17Z" fill="#D9D2E9"/>
<path d="M29.32 17V14H25.5674L26.3936 17.6605L29.32 17ZM53.8 17L56.7323 16.3664L56.221 14H53.8V17ZM78.46 131.12L75.5277 131.754L76.039 134.12H78.46V131.12ZM81.7 131.12V134.12H84.121L84.6323 131.754L81.7 131.12ZM106.36 17V14H103.939L103.428 16.3664L106.36 17ZM130.84 17L133.766 17.6605L134.593 14H130.84V17ZM102.4 143V146H104.798L105.326 143.661L102.4 143ZM57.76 143L54.8336 143.661L55.3617 146H57.76V143ZM29.32 20H53.8V14H29.32V20ZM50.8677 17.6336L75.5277 131.754L81.3923 130.486L56.7323 16.3664L50.8677 17.6336ZM78.46 134.12H81.7V128.12H78.46V134.12ZM84.6323 131.754L109.292 17.6336L103.428 16.3664L78.7677 130.486L84.6323 131.754ZM106.36 20H130.84V14H106.36V20ZM127.914 16.3395L99.4736 142.339L105.326 143.661L133.766 17.6605L127.914 16.3395ZM102.4 140H57.76V146H102.4V140ZM60.6864 142.339L32.2464 16.3395L26.3936 17.6605L54.8336 143.661L60.6864 142.339Z" fill="black"/>
</g>
<defs>
<clipPath id="clip0">
<rect width="160" height="160" fill="white"/>
</clipPath>
</defs>
</svg>
